<svg xmlns="http://www.w3.org/2000/svg" width="172.277" height="172.262" viewBox="0 0 172.277 172.262">
  <g id="Group_1225" data-name="Group 1225" transform="translate(-1486.085 -410.286)">
    <path id="Path_1891" data-name="Path 1891" d="M1658.191,512.553a17.438,17.438,0,0,1-1.262,6.534,17.729,17.729,0,0,1,.191,2.576c0,.556-.027,1.1-.074,1.651-.054.606-.128,1.227-.213,1.911-.012.07-.02.136-.031.206l0,.047c-.14.936-.327,2.218-.633,3.877-.007.043-.019.09-.027.132l-.07.346q-.129.728-.264,1.469a15.911,15.911,0,0,1,1.531,6.868,17.457,17.457,0,0,1-2.532,8.951,22.145,22.145,0,0,1-4.192,5.062c-.027.027-.058.054-.086.082a30.058,30.058,0,0,1-6.492,4.414.155.155,0,0,1-.043.019,23.623,23.623,0,0,1-8.582,2.456c-.59.046-1.185.07-1.764.07q-.77,0-1.515-.058a12.872,12.872,0,0,1-.008,1.969c-.019.886-.043,2.548-.043,3.345,0,.116,0,.233,0,.346,0,.066,0,.131.008.2.007.256.023.606.023,1.01v2.214c0,.151.011.3.019.447.027.552.058,1.173.058,1.888a11.811,11.811,0,0,1-.159,1.912,9.717,9.717,0,0,1-9.708,9.406,9.1,9.1,0,0,1-1.169-.074c-.233.016-.439.02-.606.02-.147.007-.323.011-.525.011-.338,0-.672-.015-1.006-.047a9.522,9.522,0,0,1-3.357-.909,10.091,10.091,0,0,1-3.558,1.107,9.34,9.34,0,0,1-.94.241l-.035.008a12.292,12.292,0,0,1-2.584.292c-.357,0-.719-.016-1.072-.051a10.012,10.012,0,0,1-1.387-.24,9.7,9.7,0,0,1-1.045-.334h-6.908a9.186,9.186,0,0,1-1.224.078c-.213,0-.416-.008-.605-.02a9.327,9.327,0,0,1-1.539.125,10.064,10.064,0,0,1-1.022-.054,9.788,9.788,0,0,1-1.01-.1.429.429,0,0,1-.062.019c-.147.039-.3.07-.447.1a13.411,13.411,0,0,1-2.606.26,13.633,13.633,0,0,1-5.292-1.092c-.078.031-.155.062-.237.093-.046.02-.1.043-.147.066a9.714,9.714,0,0,1-6.853.388c-.116-.031-.229-.07-.342-.109a10.219,10.219,0,0,1-2.164.268c-.944.031-1.826.031-2.673.031-.89,0-1.6-.016-2.3-.031-.614-.012-1.193-.023-1.869-.023h-2.148c-.245,0-.493-.008-.742-.027-.637.027-1.216.027-1.736.027l-.113,0h-.319c-.311,0-.7-.007-1.134-.039-.237.015-.474.023-.715.023-.33,0-.656-.015-.983-.047a10.81,10.81,0,0,1-1.329-.132,9.741,9.741,0,0,1-1.258.187c-.256.019-.649.05-1.123.05a10.642,10.642,0,0,1-1.274-.074,10.2,10.2,0,0,1-1.465-.175c-.047,0-.09-.011-.136-.019-.292.1-.583.195-.882.268-.147.039-.3.07-.447.1a13.381,13.381,0,0,1-2.607.26,13.6,13.6,0,0,1-5.287-1.092c-.078.031-.155.062-.237.089-.047.024-.1.047-.151.07a9.714,9.714,0,0,1-6.853.388,10.174,10.174,0,0,1-2.638-1.142,43.775,43.775,0,0,1-1.969-1.228,9.746,9.746,0,0,1-6.713,2.645c-.233,0-.466-.007-.7-.023-.2.012-.412.016-.63.016s-.458,0-.688-.02a9.053,9.053,0,0,1-.917.043,9.711,9.711,0,0,1-9.685-8.963c-.035-.439-.082-1.045-.082-1.756v-6.13c0-.054,0-.113,0-.171.011-.649.011-1.325.011-2.04,0-.75,0-1.523.012-2.323a14.9,14.9,0,0,1,.225-2.347.813.813,0,0,1,.019-.1,29.984,29.984,0,0,1-4.215.3c-.295,0-.6,0-.9-.012a25.374,25.374,0,0,1-12.719-3.228,17.811,17.811,0,0,1-9.13-15.466,19.927,19.927,0,0,1,.474-4.358c-.047-.486-.07-.975-.07-1.473a16.968,16.968,0,0,1,2.206-8.492,21.226,21.226,0,0,1,.4-2.786c-.035-.466-.055-.929-.055-1.391a18.8,18.8,0,0,1,7.455-15.019.642.642,0,0,1,.058-.043,21.176,21.176,0,0,1,2.125-1.43c0-.288-.011-.575-.011-.863a74.889,74.889,0,0,1,2.677-19.875c-.28-.078-.563-.163-.851-.264-.051-.019-.1-.035-.152-.054a15.128,15.128,0,0,1-8.566-7.937,18.627,18.627,0,0,1-1.741-9.32,87.924,87.924,0,0,1,4.775-11.511,18.449,18.449,0,0,1,2.638-2.222c.1-.074.206-.148.307-.226.206-.159.42-.311.633-.458a10.246,10.246,0,0,1,1.021-3.216,10.128,10.128,0,0,1,6.22-6.737c.055-.284.121-.567.2-.847a9.7,9.7,0,0,1,3.263-4.9,9.991,9.991,0,0,1,2.2-1.674,9.766,9.766,0,0,1,1.076-.521,9.968,9.968,0,0,1,3.442-3.283c.346-.264.637-.459.835-.591s.416-.268.625-.392a9.854,9.854,0,0,1,6.029-2.047c.094,0,.183,0,.272,0a10.234,10.234,0,0,1,5.913-6.278,9.473,9.473,0,0,1,1.177-.571,11.255,11.255,0,0,1,2.6-5.023,87.7,87.7,0,0,1,12.358-5.252,11.181,11.181,0,0,1,7.307,2.918c.279-.159.524-.288.73-.4a16.721,16.721,0,0,1,8.111-1.931c.711,0,1.438.031,2.292.1.136.012.272.027.408.047.23.027.451.062.669.1l.151.011a10.5,10.5,0,0,1,5.147-1.356,10.2,10.2,0,0,1,1.29.082c.074,0,.144,0,.2-.007h.132c.155-.008.315-.012.47-.012h.233a5.441,5.441,0,0,0,5.054.525,9.7,9.7,0,0,1,1.969-.2c.179,0,.357,0,.536.015.206-.027.439-.047.688-.062.345-.019.812-.046,1.356-.046.12,0,.241,0,.361,0a9.7,9.7,0,0,1,3.2.625c.26-.019.521-.031.781-.031a9.574,9.574,0,0,1,2.2.253l.229.046c.229.042.544.1.9.187,2.653.618,5.334,1.266,7.93,1.9l.031.008a.777.777,0,0,1,.1.027c.428.108.859.221,1.294.334.815.21,1.585.412,2.327.582.226.054.447.113.669.183a10.177,10.177,0,0,1,4.891,3.232,20.74,20.74,0,0,1,3.216.287c.1.019.2.035.3.058a19.055,19.055,0,0,1,3.349,1.048c.155.062.365.144.427.163a.3.3,0,0,0,.058.019,14.558,14.558,0,0,1,6.919,5.14c.082.1.159.2.241.3l.2.244a9.607,9.607,0,0,1,2.277.451c.315.1.789.26,1.329.485.183.074.365.159.54.245a25.832,25.832,0,0,1,5.766,4.064c.932.781,1.977,1.663,3.03,2.657a12.3,12.3,0,0,1,2.121,2.649,13.162,13.162,0,0,1,1.581,3.116,9.93,9.93,0,0,1,5.758,3.294c.687.789,1.363,1.582,2.028,2.367a87.779,87.779,0,0,1,5.233,8.616,9.537,9.537,0,0,1,.112,1.876,9.839,9.839,0,0,1,1.29.867,87.168,87.168,0,0,1,5.311,13.714,9.609,9.609,0,0,1-1.158,2.179l-.062.094c-.148.21-.365.528-.637.886-.372.493-.746.979-1.119,1.468-.525.68-1.018,1.325-1.492,1.962-.019.027-.038.054-.058.078-.264.346-.548.766-.879,1.251-.031.042-.066.09-.1.136-.319.45-.773,1.149-1.208,1.822s-.886,1.367-1.329,2.016c-.031.05-.062.1-.1.151a10.053,10.053,0,0,1-3.83,3.566,74.944,74.944,0,0,1,1.9,10.323,14.288,14.288,0,0,1,4.044,4.631A16.017,16.017,0,0,1,1658.191,512.553Z" fill="#fff"/>
    <g id="Group_1226" data-name="Group 1226" transform="translate(1509.334 439.192)">
      <path id="Path_1892" data-name="Path 1892" d="M1649.883,518.6a63.966,63.966,0,0,1-5.873,26.477H1526.979A63.966,63.966,0,0,1,1521.1,518.6c0-1.115.021-2.208.086-3.3a64.368,64.368,0,0,1,128.607,0C1649.863,516.4,1649.883,517.49,1649.883,518.6Z" transform="translate(-1521.1 -453.819)" fill="#fff" fill-rule="evenodd"/>
      <path id="Path_1893" data-name="Path 1893" d="M1641.141,474.113l-.193.043h-.279l-.45.128-.386.172-.279.171-.171.107-.107.129-.064.064v-.064l.064-.171-.064-.3-.064-.343-.172-.471-.107-.236-.107-.3-.172-.3-.214-.214-.235-.3-.279-.3-.279-.3-.557-.343-.279-.064h-.665l-.214.064-.343.172-.279.236-.107.064-.064.107h-.064v.064l-.043-.064-.064-.171-.042-.236-.236-.236-.321-.278-.171-.129-.279-.107-.236-.129-.321-.108-.407-.128-.386-.108h-.386l-.343.064-.214.108-.171.171-.172.171-.107.3-.108.536-.107.579-.064.3-.107.236-.172.171-.171.172-.279.064h-.621l-.321.107-.279.193-.279.171-.236.279-.214.3-.279.707-.278.643-.107.3-.064.278-.064.236-.043.193v.107l-.171-.171-.107-.171-.172-.129-.171-.236-.45-.407-.493-.408-.279-.171-.343-.129-.343-.171-.321-.064-.386-.043-.407.043-.386.064-.451.064-.836.279-.772.364-.793.343-.343.171-.279.193-.321.171-.236.108-.149.193-.172.043-.107.064.043-.064.171-.108.108-.171.171-.236.172-.236.45-.6.45-.579.386-.643.321-.578.128-.3.108-.236.043-.236V472.4l-.043-.236-.108-.3-.128-.236-.15-.214-.45-.536-.515-.471-.557-.408-.6-.365-.579-.171-.6-.171-1.393-.472-.622-.236-.557-.236-.236-.043-.214-.128-.214-.064h-.128l-.043-.043h-.064v-.128l-.043-.172V467.6l-.064-.236-.107-.3-.108-.236-.171-.3-.236-.279-.214-.3-.343-.3-.321-.214-.408-.236-.429-.193-.579-.107-.6-.129h-.557l-.279.064-.236.064-.321.236-.343.3-.215.343-.171.407-.108.408-.171.878-.108.472-.064.364-.108.408-.171.279-.236.236-.214.193h-.214l-.172.043h-.386l-.278.129-.343.171-.236.171-.214.236-.214.3-.343.579-.343.536-.108.236-.343.343-.107.129h-.322l-.343-.193-.279-.043h-.514l-.042.043v-.043l-.064-.128-.108-.171-.107-.236-.172-.3-.171-.343-.279-.343-.214-.364-.279-.343-.408-.365-.321-.343-.386-.3-.45-.236-.45-.171-.515-.108-.493-.064-.493.064-.45.043-.343.129-.343.171-.214.171-.214.172-.171.236-.129.236-.108.471-.043.365v.343l-.128-.108-.108-.193-.108-.236-.171-.279-.214-.365-.236-.343-.15-.471-.279-.407-.343-.365-.343-.236-.321-.215-.343-.193-.278-.107-.172-.064h-.064l-.042-.064v-.042l-.107-.193-.343-.343-.343-.236-.386-.171-.279-.129-.278-.043-.558-.129h-.493l-.408.129-.386.043-.278.129-.215.107-.128.064-.043.064v-.064h-.064l-.043-.107-.171-.064-.172-.129-.171-.107-.214-.129-.279-.107-.236-.108-.321-.064-.407-.128-.322-.043-.407-.064h-.944l-.45.064-.493.108-.343.171-.321.236-.279.236-.171.236-.171.3-.108.343-.064.3-.107.579.043.236v.236l.064.171v.3h-.343l-.214-.064h-.279l-.343-.043-.771-.064-.837-.064h-2.187l-.386.064-.343.064-.321.171-.236.171-.214.236-.236.3-.171.214-.28.665-.149.579-.064.3-.064.236v.343l-.043.107-.064-.043-.043-.064-.064-.129-.107-.171-.171-.108-.172-.171-.214-.129-.278-.236-.343-.107-.343-.129-.428-.171-.45-.064-.558-.043-.557-.064h-.687l-.6.064-.622.171-.557.172-.515.3-.429.278-.343.365-.386.343-.279.365-.279.343-.236.3-.171.343-.107.3-.108.236-.064.171-.043.108v.064l-.064-.064-.043-.108-.064-.171-.343-.471-.214-.3-.279-.3-.279-.343-.386-.3-.407-.279-.45-.3-.558-.236-.493-.171-.622-.171-.729-.064h-.664l-.729.064a14.178,14.178,0,0,0-1.886.471l-.515.214-.45.236-.386.236-.386.3-.557.471-.236.236-.15.236-.171.171-.064.108-.064.064v-.107l-.107-.064h-.043l-.171-.064-.171-.043h-.215l-.235-.064h-1.673l-.386.064-.279.043-.236.129-.171.107-.108.129-.042.171v.108l.042.3.108.3.129.171.042.064v.043h-.042l-.129-.043-.108-.129-.171-.171-.15-.171-.45-.472-.3-.343a64.228,64.228,0,0,1,92.077.471Z" transform="translate(-1530.494 -454.025)" fill="#28a8df" fill-rule="evenodd"/>
      <path id="Path_1894" data-name="Path 1894" d="M1649.876,524.149a63.929,63.929,0,0,1-5.7,26.476H1526.8a63.918,63.918,0,0,1-5.7-26.476,51.1,51.1,0,0,1,.236-5.145l11.984-12.584,7.825,7.439,31.793-37.431,15.135,17.194,19.573-23.689,34.066,35.737,7.117,7.053A60.939,60.939,0,0,1,1649.876,524.149Z" transform="translate(-1521.098 -459.233)" fill="#06a250" fill-rule="evenodd"/>
      <g id="Group_1225-2" data-name="Group 1225" transform="translate(0.24 7.374)">
        <path id="Path_1895" data-name="Path 1895" d="M1649.016,511.275v.171c-.021-.129-.043-.279-.064-.407l-7.117-7.054-34.066-35.737L1588.2,491.937l-15.135-17.194-31.793,37.431-7.825-7.439L1521.46,517.32v-.15c.064-1.157.193-2.293.365-3.43l11.555-12.113,7.718,7.332,31.943-37.581,15.092,17.172,19.509-23.625,35.716,37.453,4.8,4.76A38.114,38.114,0,0,1,1649.016,511.275Z" transform="translate(-1521.46 -464.925)" fill="#1d1d1b"/>
      </g>
      <path id="Path_1896" data-name="Path 1896" d="M1581.678,502.878l-14.867,20.647,28.907-14.04-11.975.826,10.736-10.324Z" transform="translate(-1536.458 -469.331)" fill="#fff" fill-rule="evenodd"/>
      <path id="Path_1897" data-name="Path 1897" d="M1653.878,502.416l.413-14.866,24.364,32.21-16.931-8.259,4.13,12.388-9.5-9.5Z" transform="translate(-1565.711 -465.152)" fill="#fff" fill-rule="evenodd"/>
      <path id="Path_1898" data-name="Path 1898" d="M1626.462,543.781c.236,2.68-3.794,5.574-12.005,8.6-17.793,4.609-26.433,9.154-30.206,15.929h-28.213c8.189-13.4,15.5-14.171,29.22-15.629,4.716-.493,10.054-1.05,16.443-2.23.772-.15,1.543-.279,2.294-.429,5.252-.922,10.183-1.8,11.576-3.773a2.089,2.089,0,0,0,.343-1.586c-.6-3.195-7.653-5.36-17.429-8.36l-2.251-.708c-9.2-2.83-11.041-5.445-10.976-7.117.064-2.122,3.216-4.159,8.468-5.531l-.643.45c-2.659,1.8-5.167,3.516-4.781,5.3.493,2.23,5.489,4.052,16.208,5.9C1623.868,537.907,1626.312,542.13,1626.462,543.781Z" transform="translate(-1532.838 -477.044)" fill="#fff" fill-rule="evenodd"/>
    </g>
    <g id="Group_1227" data-name="Group 1227" transform="translate(1508.38 438.647)">
      <path id="Path_1899" data-name="Path 1899" d="M1644.305,545.746H1525.7l-.252-.555a64.6,64.6,0,0,1-5.787-26.85,65.343,65.343,0,0,1,130.686,0,64.571,64.571,0,0,1-5.79,26.85Zm-117.381-1.892h116.158a62.692,62.692,0,0,0,5.372-25.513,63.449,63.449,0,1,0-126.9,0A62.716,62.716,0,0,0,1526.924,543.853Z" transform="translate(-1519.662 -452.998)" fill="#1d1d1b"/>
    </g>
    <g id="Group_1229" data-name="Group 1229" transform="translate(1495.796 502.006)">
      <path id="Path_1900" data-name="Path 1900" d="M1650.455,580.016c.086-.514.193-1.093.3-1.758l.064-.3c.193-1.179.407-2.358.622-3.537l.086-.429c.278-1.5.45-2.68.579-3.558a21.043,21.043,0,0,0,.214-2.359,6.829,6.829,0,0,0-1.029-3.73,8.07,8.07,0,0,0,2.1-5.38,6.468,6.468,0,0,0-3.044-5.467,7.182,7.182,0,0,0-1.136-.6,4.246,4.246,0,0,0-1.994-3.323c-1.844-1.222-4.545-1.437-7.439-.558a12.2,12.2,0,0,0-3.216,1.479,9.274,9.274,0,0,0-2.658,2.443,5.532,5.532,0,0,0-1.051,3.216,4.557,4.557,0,0,0,.536,2.165,7.636,7.636,0,0,0-.943,3.645c0,.15.043.3.043.45a3.355,3.355,0,0,0-.279.279c-.129.171-.236.343-.343.514-.128-.086-.236-.171-.365-.257a7.774,7.774,0,0,0-1.093-2.144,5.608,5.608,0,0,0-4.931-2.422,5.327,5.327,0,0,0-3.387,1.179,6.233,6.233,0,0,0-1.05,1.072,4.568,4.568,0,0,0-.665-1.007,3.545,3.545,0,0,0-2.7-1.158h-.042a9.751,9.751,0,0,0-3.559.836,18.6,18.6,0,0,0-3.73,2.058,9.855,9.855,0,0,0-2.359,2.208c-.172-.107-.343-.236-.515-.343a8.541,8.541,0,0,0-1.05-2.123,5.935,5.935,0,0,0-4.931-2.53,5.194,5.194,0,0,0-3.387,1.158,4.915,4.915,0,0,0-1.029,1.072,4.653,4.653,0,0,0-.707-1.072,3.5,3.5,0,0,0-2.722-1.158h-.022a9.88,9.88,0,0,0-3.537.772,19.066,19.066,0,0,0-3.752,2.036,10.078,10.078,0,0,0-1.8,1.544,5.393,5.393,0,0,0-1.373-.558V562.2a3.52,3.52,0,0,0-.943-2.616,3.459,3.459,0,0,0-2.637-.986h-.043a8.992,8.992,0,0,0-4.48,1.307c-.343.214-.621.365-.879.515-.214-.171-.493-.343-.815-.557a8.135,8.135,0,0,0-4.7-1.586.077.077,0,0,0-.064-.022,9.569,9.569,0,0,0-5.531,2.1,20.976,20.976,0,0,0-4.888,5.231c-.3.429-.515.9-.793,1.351a8.63,8.63,0,0,0-3.687-4.137,6.694,6.694,0,0,0-1.458-2.615,6.762,6.762,0,0,0-5.1-2.144h-.064c-.3,0-.622.043-.922.064a5.6,5.6,0,0,0-4.137-5.7v-.129a3.541,3.541,0,0,0-1.565-3.108,6.843,6.843,0,0,0-3.73-.75,17.345,17.345,0,0,0-8.039,1.8c-2.766,1.394-4.159,3.151-4.159,5.188a3.21,3.21,0,0,0,.729,2.144,6.6,6.6,0,0,0-1.093,3.216,6.221,6.221,0,0,0-1.78-1.629,12.063,12.063,0,0,0-6.238-1.394h-.129a13.867,13.867,0,0,0-8.639,2.659,9.1,9.1,0,0,0-3.708,7.353,9.428,9.428,0,0,0,.235,2.037,11.033,11.033,0,0,0-.643,3.795,10.164,10.164,0,0,0,.128,1.608,5.3,5.3,0,0,0-1.136,1.222,7.054,7.054,0,0,0-1.136,4.009,5.218,5.218,0,0,0,.365,1.972,9.482,9.482,0,0,0-.772,3.859,8.016,8.016,0,0,0,4.309,7.074,15.972,15.972,0,0,0,8.039,1.908,16.731,16.731,0,0,0,10.633-2.98,12.457,12.457,0,0,0,.987-.815,6.511,6.511,0,0,0,1.929,2.272,8.624,8.624,0,0,0,4.974,1.544,14.539,14.539,0,0,0,5.123-.708,10.2,10.2,0,0,0,2.916-1.543.905.905,0,0,1,.128.15,7.517,7.517,0,0,0,5.767,2.766,13.407,13.407,0,0,0,5.36-1.072,18.73,18.73,0,0,0,4.631-2.744c.129.214.257.429.407.643a9.136,9.136,0,0,0,7.547,4.159,11.15,11.15,0,0,0,5.295-1.094,9.145,9.145,0,0,0,1.008-.557,3.126,3.126,0,0,0,.471.45,6.734,6.734,0,0,0,4.373,1.629h.279a13.144,13.144,0,0,0,4.331-.815,18.375,18.375,0,0,0,4.224-2.273,8.341,8.341,0,0,0,.686-.536,5.493,5.493,0,0,0,1.972,2.315,8.915,8.915,0,0,0,4.995,1.136,16.424,16.424,0,0,0,5.66-.793,7.941,7.941,0,0,0,4.716-3.645c.407-.772.75-1.694,1.157-6.067.129-1.265.236-2.422.365-3.516a7.573,7.573,0,0,0,5.3-1.586,24.749,24.749,0,0,0-.365,3.387,5.965,5.965,0,0,0,.129,1.158,29.372,29.372,0,0,0-.536,4.652,5.866,5.866,0,0,0,2.7,5.317,8.65,8.65,0,0,0,5.1.965,16.7,16.7,0,0,0,5.617-1.05,8.193,8.193,0,0,0,4.523-3.623c.515-.943.772-1.993,1.157-6.045q.193-1.962.386-3.6c.278.021.557.021.836.021a8.135,8.135,0,0,0,3.6-1.05,9.64,9.64,0,0,0-.043,1.093,6.372,6.372,0,0,0,.107.944c-.171.965-.278,1.822-.364,2.551a18.83,18.83,0,0,0-.15,2.315,7.157,7.157,0,0,0,2.637,5.788,8.191,8.191,0,0,0,5.917,1.5,13.817,13.817,0,0,0,5.06-1.479,20.019,20.019,0,0,0,4.373-2.979,12.508,12.508,0,0,0,2.4-2.873,7.692,7.692,0,0,0,1.157-3.966,6.018,6.018,0,0,0-1.115-3.58A5.264,5.264,0,0,0,1650.455,580.016Z" transform="translate(-1500.71 -548.417)" fill="#1d1d1b"/>
      <g id="Group_1228" data-name="Group 1228" transform="translate(2.245 1.967)">
        <path id="Path_1901" data-name="Path 1901" d="M1639.7,559.983a4.463,4.463,0,0,1-2.812-.747,2.473,2.473,0,0,1-1.067-2.084,3.678,3.678,0,0,1,.707-2.106,7.365,7.365,0,0,1,2.12-1.912,10.663,10.663,0,0,1,2.711-1.244,9.786,9.786,0,0,1,2.827-.448,5.216,5.216,0,0,1,2.956.77,2.266,2.266,0,0,1,1.154,1.93c0,1.419-.869,2.725-2.582,3.925a10.7,10.7,0,0,1-6.014,1.916Zm-4.874,19.554c.462-2.672.964-5.341,1.456-8,.142-.767.23-1.3.273-1.606a5.057,5.057,0,0,0,.058-.706c0-.549-.246-.843-.721-.877a4.362,4.362,0,0,1-.736-.116,1.365,1.365,0,0,1-.793-.5,1.507,1.507,0,0,1-.288-.927,3.029,3.029,0,0,1,.692-1.9,7.185,7.185,0,0,1,2.164-1.732,19.657,19.657,0,0,1,3.965-1.644,15.258,15.258,0,0,1,3.894-.7,2.293,2.293,0,0,1,1.773.612,2.443,2.443,0,0,1,.649,1.815,14.6,14.6,0,0,1-.173,1.778c-.115.821-.288,1.946-.548,3.375-.244,1.341-.492,2.681-.722,4.027-.26,1.527-.468,2.732-.59,3.626a16.364,16.364,0,0,0-.187,1.781,1.731,1.731,0,0,0,.071.583.2.2,0,0,0,.217.141,4.378,4.378,0,0,0,.592-.1,3.962,3.962,0,0,1,.476-.1.824.824,0,0,1,.793.34,1.758,1.758,0,0,1,.288,1.06,3.53,3.53,0,0,1-.562,1.8,8.025,8.025,0,0,1-1.586,1.878,15.361,15.361,0,0,1-3.418,2.338,9.8,9.8,0,0,1-3.533,1.061,4.147,4.147,0,0,1-2.956-.617,2.913,2.913,0,0,1-1.009-2.445,16.134,16.134,0,0,1,.115-1.842C1634.563,581.247,1634.671,580.453,1634.83,579.537Zm-12.546-5.082c-.23,1.822-.483,4.029-.736,6.632a20.8,20.8,0,0,1-.663,4.422,4.279,4.279,0,0,1-2.337,1.71,13.009,13.009,0,0,1-4.239.769,5.589,5.589,0,0,1-2.74-.354,1.839,1.839,0,0,1-.663-1.692,46.817,46.817,0,0,1,1.067-7.137,46.857,46.857,0,0,0,1.067-8.667,1.294,1.294,0,0,0-.187-.822.842.842,0,0,0-.678-.209,2.118,2.118,0,0,0-.375.052,2.341,2.341,0,0,1-.433.056,1.335,1.335,0,0,1-1.053-.43,1.659,1.659,0,0,1-.389-1.154,3.19,3.19,0,0,1,.605-1.849,7.774,7.774,0,0,1,1.947-1.807,17.215,17.215,0,0,1,3.345-1.859,7.983,7.983,0,0,1,2.841-.68,1.615,1.615,0,0,1,1.27.5,5.807,5.807,0,0,1,.922,1.99c.109.349.216.8.346,1.359.157.68.318,1.021.5,1.019.26,0,.522-.377.765-1.113.117-.354.2-.623.288-.821a5.82,5.82,0,0,1,1.572-2.293,3.486,3.486,0,0,1,2.192-.748,3.893,3.893,0,0,1,3.331,1.651,8.443,8.443,0,0,1,.029,8.859,3.833,3.833,0,0,1-3.058,1.829,3.032,3.032,0,0,1-1.788-.459,3.07,3.07,0,0,1-1.168-1.461,4.765,4.765,0,0,1-.187-.806c-.106-.551-.274-.821-.5-.815-.187,0-.334.3-.418.893a.337.337,0,0,0,0,.044C1622.6,572.2,1622.442,573.327,1622.283,574.455Zm-24,.295q-.368,2.756-.736,6.693a20.189,20.189,0,0,1-.678,4.455,3.954,3.954,0,0,1-2.336,1.639,12.628,12.628,0,0,1-4.24.571,5.889,5.889,0,0,1-2.74-.451,1.9,1.9,0,0,1-.649-1.711,45.888,45.888,0,0,1,1.052-7.118,46.553,46.553,0,0,0,1.068-8.66,1.357,1.357,0,0,0-.173-.825.855.855,0,0,0-.678-.213,2.157,2.157,0,0,0-.389.045,2.3,2.3,0,0,1-.433.048,1.355,1.355,0,0,1-1.038-.444,1.667,1.667,0,0,1-.389-1.162,3.115,3.115,0,0,1,.591-1.837,7.683,7.683,0,0,1,1.947-1.789,16.686,16.686,0,0,1,3.346-1.819,7.881,7.881,0,0,1,2.841-.642,1.618,1.618,0,0,1,1.269.519,5.621,5.621,0,0,1,.922,2.024c.105.353.223.809.347,1.378q.225,1.039.5,1.038c.26,0,.521-.37.764-1.112.117-.355.219-.627.3-.826a5.814,5.814,0,0,1,1.573-2.3,3.356,3.356,0,0,1,2.178-.724,3.951,3.951,0,0,1,3.331,1.74,7.684,7.684,0,0,1,1.269,4.646,7.531,7.531,0,0,1-1.24,4.428,3.651,3.651,0,0,1-3.058,1.778,3.082,3.082,0,0,1-1.788-.531,3.19,3.19,0,0,1-1.168-1.524,5.307,5.307,0,0,1-.187-.825c-.106-.565-.274-.843-.49-.843s-.335.3-.419.892a.3.3,0,0,0,0,.049Q1598.525,573.048,1598.288,574.749Zm-25.9-7.626c-.432,0-.922.322-1.456.975a15.635,15.635,0,0,0-1.788,2.976,21.106,21.106,0,0,0-1.442,3.828,13.425,13.425,0,0,0-.52,3.335,2.515,2.515,0,0,0,.245,1.165.731.731,0,0,0,.606.471,1.876,1.876,0,0,0,1.341-.81,12.36,12.36,0,0,0,1.558-2.453,21.954,21.954,0,0,0,1.7-4.3,14.641,14.641,0,0,0,.606-3.768,1.882,1.882,0,0,0-.246-1.027A.72.72,0,0,0,1572.387,567.123Zm9.777-3.256c-.178,1.642-.347,3.287-.519,4.926-.218,2.076-.433,3.92-.606,5.516s-.267,2.568-.288,2.91c-.05.764-.087,1.531-.13,2.3v.1c0,.508.42.811,1.269.93.088.012.159.025.188.029a.771.771,0,0,1,.548.4,1.7,1.7,0,0,1,.2.884,3.827,3.827,0,0,1-.692,2.106,7.926,7.926,0,0,1-2.033,2.021,13.1,13.1,0,0,1-3.2,1.722,8.24,8.24,0,0,1-3.028.575,2.6,2.6,0,0,1-1.7-.575,2.684,2.684,0,0,1-.793-1.647c-.042-.274-.087-.639-.13-1.1-.087-.938-.26-1.408-.52-1.416q-.3-.01-.894.643c-.211.233-.379.4-.5.527a11.929,11.929,0,0,1-3.259,2.449,7.033,7.033,0,0,1-3.317.695,5.015,5.015,0,0,1-4.2-2.311,10.753,10.753,0,0,1-1.5-6.1,19.619,19.619,0,0,1,.965-6.039,22.323,22.323,0,0,1,2.8-5.721,18.837,18.837,0,0,1,4.427-4.74,7.571,7.571,0,0,1,4.413-1.717,6.363,6.363,0,0,1,3.6,1.24q1.774,1.226,1.818,1.225a21.281,21.281,0,0,0,1.961-1.076,7.014,7.014,0,0,1,3.532-1.064,1.714,1.714,0,0,1,1.254.392,1.746,1.746,0,0,1,.375,1.252c0,.183-.008.321-.014.41S1582.173,563.791,1582.165,563.867ZM1527.51,582.3c.253-1.7.534-3.394.808-5.09a.986.986,0,0,1,.015-.157c.352-2.206.692-4.489.995-6.838s.588-4.758.866-7.242q.188-1.7.389-3.416c.008-.072.035-.157.043-.25s0-.22,0-.381a.937.937,0,0,0-.2-.665,1.491,1.491,0,0,0-.793-.325,4.373,4.373,0,0,1-1.775-.556,1.264,1.264,0,0,1-.346-.978c0-1.255,1.025-2.4,3.073-3.444a15.521,15.521,0,0,1,7.167-1.58,5.465,5.465,0,0,1,2.653.43,1.622,1.622,0,0,1,.663,1.468c0,.171-.007.3-.014.418s-.012.209-.028.321c-.2,1.363-.384,2.727-.578,4.086-.051.363-.133.912-.23,1.628-.334,2.466-.577,4.373-.706,5.759a23.15,23.15,0,0,1,4.687-3.428,8.461,8.461,0,0,1,3.951-1.05,4.775,4.775,0,0,1,3.663,1.49,5.721,5.721,0,0,1,1.341,4,33.909,33.909,0,0,1-.793,6.871,37.487,37.487,0,0,0-.793,4.526,1.246,1.246,0,0,0,1.211,1.483l.187.052a1.241,1.241,0,0,1,1,1.319,3.2,3.2,0,0,1-.462,1.557,5.407,5.407,0,0,1-1.283,1.5,14.3,14.3,0,0,1-3.792,2.289,8.914,8.914,0,0,1-3.62.762,3.362,3.362,0,0,1-2.624-1.2,4.786,4.786,0,0,1-.924-3.1,62.155,62.155,0,0,1,1.053-7.973c.056-.329.115-.657.173-.986q.172-1.132.375-2.259c.051-.281.108-.527.144-.747a3.062,3.062,0,0,0,.044-.5,1.1,1.1,0,0,0-.26-.735.844.844,0,0,0-.635-.329c-.995-.018-1.831.736-2.495,2.26a26.473,26.473,0,0,0-1.558,7.021c-.044.38-.125.936-.2,1.677-.226,2.2-.55,3.576-.995,4.13a5.244,5.244,0,0,1-2.437,1.591,9.888,9.888,0,0,1-3.592.493,4.594,4.594,0,0,1-2.595-.717,2.181,2.181,0,0,1-.894-1.849,5.114,5.114,0,0,1,.029-.527C1527.43,582.9,1527.461,582.632,1527.51,582.3Zm-4.139-4.313a7.157,7.157,0,0,1-3.057,6.042,12.777,12.777,0,0,1-8.046,2.155,12.32,12.32,0,0,1-5.971-1.337,3.855,3.855,0,0,1-2.206-3.425,5.082,5.082,0,0,1,.807-2.92,2.291,2.291,0,0,1,1.918-1.188c.663.007,1.155.464,1.456,1.348.03.089.059.173.086.247a3.181,3.181,0,0,0,.923,1.353,2.013,2.013,0,0,0,1.283.5,1.552,1.552,0,0,0,1.14-.4,1.47,1.47,0,0,0,.447-1.11,4.832,4.832,0,0,0-1.543-2.6c-.34-.375-.621-.671-.807-.884a14.677,14.677,0,0,1-2.365-3.578,8.29,8.29,0,0,1-.793-3.438,7.062,7.062,0,0,1,2.957-5.8,11.816,11.816,0,0,1,7.541-2.264,10.443,10.443,0,0,1,5.25,1.129,3.446,3.446,0,0,1,1.846,3.1,4.483,4.483,0,0,1-.693,2.625,2.026,2.026,0,0,1-1.745.974,1.533,1.533,0,0,1-.764-.2,1.668,1.668,0,0,1-.577-.563c-.069-.106-.188-.272-.331-.5-.722-1.131-1.355-1.693-1.875-1.7a.933.933,0,0,0-.75.363,1.289,1.289,0,0,0-.317.87c0,.6.572,1.556,1.746,2.849.527.58.939,1.052,1.24,1.419a18.168,18.168,0,0,1,2.524,3.753A7.615,7.615,0,0,1,1523.371,577.987Z" transform="translate(-1504.091 -551.379)" fill="#fff"/>
      </g>
    </g>
    <g id="Group_1230" data-name="Group 1230" transform="translate(1499.696 420)">
      <path id="Path_1902" data-name="Path 1902" d="M1521.527,487.165c.281-.082.351-.1.582.23a2.079,2.079,0,0,1,.3.694,1.776,1.776,0,0,1,.088.431c-.068.611-1.12.861-1.568,1.088-.33.173-.683.333-1,.483.025.279.039.522.041.788a8.77,8.77,0,0,1-.935,4.293,7.8,7.8,0,0,1-1.36,1.732c-.614.636-1.3,1.236-1.965,1.813a4.7,4.7,0,0,1-3.668.94,7.467,7.467,0,0,1-1.458-.3,5.532,5.532,0,0,1-3.141-2.987,9.138,9.138,0,0,1-.6-6.073,25.883,25.883,0,0,1,1.071-2.657c.5-1.289,1.633-1.906,2.645-2.679A6.662,6.662,0,0,1,1515,483.74a7.78,7.78,0,0,1,1.609.291,6.771,6.771,0,0,1,2.606,3.047c.125.364.251.727.354,1.078l.118-.053A15.22,15.22,0,0,1,1521.527,487.165Zm-4.806,4.473c-.683.333-1.367.667-2.038.977a5.221,5.221,0,0,0-.519.246l-.248.13c-.106.031-.106.031-.2-.019l-.023-.013-.021-.07.019-.2c-.025.045-.06.056-.085.1-.012.023-.037.068-.06.056a.025.025,0,0,1-.035.01l-.09-.05c-.117.054-.106.031-.147-.11a2.792,2.792,0,0,0-.137-.341l-.229-.714c-.018-.128.085-.1.154-.064.045.025.136.074.138.017.015-.08-.112-.12-.169-.122-.1-.027.159-.237.207-.27.825-.432,1.662-.829,2.5-1.226.283-.14.566-.28.837-.4a8.245,8.245,0,0,0-.532-1.559,1.758,1.758,0,0,0-2.161-1.006,4.977,4.977,0,0,0-3.279,2.6,5.962,5.962,0,0,0-.686,3.839,3.787,3.787,0,0,0,.626,1.817,2.355,2.355,0,0,0,1.785,1.153,2.11,2.11,0,0,0,1.9-.727,12.151,12.151,0,0,0,1.758-1.867A5.482,5.482,0,0,0,1516.721,491.637Z" transform="translate(-1506.584 -444.679)" fill="#1d1d1b"/>
      <path id="Path_1903" data-name="Path 1903" d="M1528.7,459.753a.6.6,0,0,0,.1.269c.659.351,1.04,1.009,1.631,1.473a13.462,13.462,0,0,1,1.671,1.544c.408.473.782.985,1.156,1.5a11.127,11.127,0,0,1,.713,1.062.666.666,0,0,1,.038.382,2.326,2.326,0,0,1-.359-.22c-.292-.333-.533-.76-1.047-.807a.6.6,0,0,0-.25.123,1.509,1.509,0,0,1,1.22.963c-.242-.079-.409-.125-.559-.191a.1.1,0,0,1-.033.075,4.247,4.247,0,0,1,.43.18l-.359.128c.129.012.148.029.185.027.526-.081.874.267,1.236.56a.469.469,0,0,1,.1.233,8.5,8.5,0,0,1,.11,2.886c-.039.313-.22.359-.517.264.027.163.015.292.053.327.414.235.193.558.077.8-.268.489-.594.927-.9,1.382-.016.056-.087.1-.1.116a.654.654,0,0,1-.741.55,1.511,1.511,0,0,0-.084-.215l-.393.2a1.965,1.965,0,0,1-.079.242.384.384,0,0,1,.007.145,6.976,6.976,0,0,1-.714.366.849.849,0,0,1,.072.344.827.827,0,0,1-.194.486,6.476,6.476,0,0,1-1.045.694,9.1,9.1,0,0,1-1.167.444,1.35,1.35,0,0,1-.534-.064l.029-.148a.7.7,0,0,0-.262-.1,1.576,1.576,0,0,1,.124.287c-.454.426-.912.046-1.385.107-.023-.09-.084-.216-.109-.343a2.363,2.363,0,0,0-.241.305l-.137-.543c-.129-.012-.332-.056-.572-.1a2.332,2.332,0,0,0,0,.348c-.458,0-.853-.213-.871-.578a.911.911,0,0,1-.956-.446,5.921,5.921,0,0,0-.9-.741c-.593-.5-1.186-1-1.762-1.522-.633-.572-1.248-1.163-1.864-1.754a1.451,1.451,0,0,1-.293-.37.566.566,0,0,1,0-.768,3.727,3.727,0,0,0,.412-.918,2.961,2.961,0,0,0,.143-.428c.048-.131.02-.331.124-.446a.337.337,0,0,1,.23-.14c.036,0,.265.17.282.151.3-.254.655-.07.976.115.188.1.257.372.43.528.693.66,1.386,1.357,2.115,2.016.654.626,1.325,1.232,2.033,1.837a2.5,2.5,0,0,0,2.284.635,5.683,5.683,0,0,0,1.457-.879,8,8,0,0,0,1.606-1.894c.189-.248.132-.647.225-.981.077-.278.135-.574.2-.833-.062-.125-.271-.28-.28-.462a4.316,4.316,0,0,0-1.01-1.889,17.575,17.575,0,0,0-2.888-2.819,10.076,10.076,0,0,1-1.115-1.042c-.115-.1-.108-.343-.117-.525.011-.129.135-.226.2-.34-.374-.164-.385-.383-.068-.619a1.758,1.758,0,0,1-.214-.264,2.783,2.783,0,0,1,.305-.107c.29-.051.623.005.416-.46a.484.484,0,0,1,.171-.228c.469-.133.957-.25,1.481-.4Zm-3.618,14.223c-.412-.2-.748-.328-1.068-.477.025.127.013.256.038.382.023.09.1.2.175.193A5.257,5.257,0,0,0,1525.086,473.976Zm-.053.753c.3.168.357.183.457,0a.8.8,0,0,0,.039-.313l-.375.184Zm.311-.73c.169.083.355.147.469.214,0,.384-.017.752-.035,1.118a.544.544,0,0,1,.254-.049c.315.076.385,0,.189-.248-.119-.177-.292-.333-.3-.515C1525.875,473.991,1525.875,473.991,1525.344,474Zm1.729-13.212c-.15-.066-.264-.133-.394-.181l-.1.261c.148.029.279.078.426.106Zm1.961,14.874c-.165-.01-.331-.02-.515-.047-.033.075-.029.148-.062.223C1528.9,475.924,1528.9,475.924,1529.035,475.661Zm3.8-9.253a2.093,2.093,0,0,0-.319-.149c.062.509-.007.586-.47.481a.611.611,0,0,0-.029.148c.183-.009.369.054.511-.026S1532.711,466.579,1532.831,466.408Z" transform="translate(-1510.782 -436.456)" fill="#1d1d1b"/>
      <path id="Path_1904" data-name="Path 1904" d="M1545.921,459.814a4.124,4.124,0,0,1-.495-.043.739.739,0,0,0-.5.179.924.924,0,0,1-.187-.187c-.954-1.384-2.63-3.809-3.555-5.244-.766-1.2-1.448-2.453-2.193-3.665-.136-.251-.33-.495-.487-.731-.151-.273-.208-.545-.451-.724-.029-.043-.079-.072-.093-.094-.051-.122.086-.244.2-.258.122-.05.266-.021.366-.057a1.306,1.306,0,0,0,.237-.251,2.629,2.629,0,0,1,.7-.588,1.04,1.04,0,0,1,.588-.236c.115-.014.236.029.33-.064.172-.114.094-.372.244-.473.115-.108.416.064.574.115l6.518,2.089c.438.143.875.288,1.384.445.166-1.011.338-1.964.481-2.961q.237-1.743.432-3.55c.043-.4.029-.8.072-1.2a6.481,6.481,0,0,0,.122-1.449.49.49,0,0,1,.481-.538c.351-.078.7-.214,1.032-.315.036-.086.029-.237.051-.251a4.92,4.92,0,0,1,.56,0c.057-.287.287-.408.645-.43a1.518,1.518,0,0,0,.438-.136,3.741,3.741,0,0,0,.25.516c1.849,2.683,3.591,5.437,5.411,8.17.358.538.738,1.062,1.075,1.614.158.236.187.372-.057.566-.624.509-1.234,1.039-1.844,1.57-.158.136-.265.114-.43.007a10.6,10.6,0,0,1-1.749-2.438l-1.032-1.736c-.552-.875-1.089-1.728-1.641-2.6a2.79,2.79,0,0,0-.23-.251c-.143,1.183-.273,2.295-.438,3.4-.23,1.614-.49,3.184-.734,4.776-.1.595-.115.574-.7.588-.05-.029-.129-.007-.165-.015-.208.574-.23.588-.811.416-1.354-.4-2.738-.847-4.115-1.235-.946-.3-1.9-.567-2.832-.847-.036-.007-.079.022-.136.029l1.147,1.721c.566.8,1.153,1.592,1.72,2.4.258.388.552.782.81,1.169a4.2,4.2,0,0,1,.423.681.756.756,0,0,1,.078.351c.029.137.158.33.151.459a.159.159,0,0,1-.137.122c-.236.158-.509.308-.76.444l-.193.129c-.165.172-.258.452-.452.58A.152.152,0,0,1,1545.921,459.814Z" transform="translate(-1517.122 -429.716)" fill="#1d1d1b"/>
      <path id="Path_1905" data-name="Path 1905" d="M1571.679,446.115c-.015.033-.039.042-.054.076.084.078.145.166.23.244-.5.215-.5.215-.681-.269-1.227-3.267-2.758-7.415-3.986-10.683-.027-.072-.021-.13-.039-.179a1.052,1.052,0,0,1,.526-1.247c.732-.331,1.524-.573,2.266-.879.387-.145.747-.363,1.134-.509,1.67-.627,3.373-1.24,5.044-1.867a5.926,5.926,0,0,1,.629-.236c.155-.03.464-.091.481-.042.148.248.427.475.215.72a3.168,3.168,0,0,1,.479.538c.161.354.273.726.424,1.056.133.282.082.439-.185.539-.92.345-1.863.7-2.774,1.07-1.137.428-2.266.879-3.419,1.34l-1.064.4.582,1.549,1.961-.736c.629-.236,1.292-.458,1.939-.646.17-.064.481-.042.518.054a2.333,2.333,0,0,1,.137.8c.009.024-.079.085-.085.142.167.3.582.445.509.914.006.163.233.327.33.511s.06.309-.157.39c-.726.273-1.443.57-2.193.852l-1.888.709.6,1.6,7.551-2.837c.367,1.05.691,2.06,1.025,3.095l-2.347.883-4.914,1.846a2.028,2.028,0,0,0-.335.209c-.1.036-.212.024-.333.07-.193.072-.378.169-.572.242-.305.142-.6.227-.886.361-.1.037-.142.136-.181.179Z" transform="translate(-1526.92 -426.794)" fill="#1d1d1b"/>
      <path id="Path_1906" data-name="Path 1906" d="M1593.469,439.7a18.689,18.689,0,0,1-1.825-.837,9.877,9.877,0,0,1-1.3-.981c.5-.611.952-1.163,1.378-1.736a2.607,2.607,0,0,0,.141-.392c.153-.026.1-.333.363-.326.238.011.44.265.62.391a4.443,4.443,0,0,0,.367.3,3.252,3.252,0,0,0,1.981.679,5.755,5.755,0,0,0,3.414-1.041c.3-.236.281-.5-.081-.616a3.649,3.649,0,0,0-.979-.2c-1.191-.055-2.368-.034-3.542-.145a4.867,4.867,0,0,1-3.214-1.278,2.756,2.756,0,0,1-.653-3.3,5.459,5.459,0,0,1,2.964-2.878,8.683,8.683,0,0,1,5.019-.716c.349.044.677.118,1.021.137a5.3,5.3,0,0,1,.94.125c.085.038.166.05.2.122a.1.1,0,0,0,.039.072c.038.072.136.029.208-.01a.483.483,0,0,1,.576.294,6.559,6.559,0,0,0-.283.784,1.067,1.067,0,0,0-.13.311c-.268.571-.546,1.539-1.277,1.56a.334.334,0,0,0-.149.052,11.58,11.58,0,0,0-3.317-.21,4.217,4.217,0,0,0-1.566.351,1.941,1.941,0,0,0-.339.164,1.965,1.965,0,0,0-.43.39c-.11.124-.25.227-.274.388l.013.076c0,.026.034.047.064.068.1.114.311.129.473.154a4.007,4.007,0,0,0,.621.1c.978.04,1.948.029,2.879.1a12.952,12.952,0,0,1,2.167.384,3.485,3.485,0,0,1,2.481,2.8,3.291,3.291,0,0,1-1.416,3.474,9.068,9.068,0,0,1-5.789,1.716A3.87,3.87,0,0,1,1593.469,439.7Z" transform="translate(-1534.567 -425.471)" fill="#1d1d1b"/>
      <path id="Path_1907" data-name="Path 1907" d="M1621.671,438.143c-.336-.007-.463-.114-.456-.4.017-.749.009-1.5.027-2.275l.044-1.886-6.435-.149c-.037.465-.1.929-.11,1.394l-.029,1.241a2.265,2.265,0,0,1,.012.595c-.029.154-.134.23-.086.386a1.422,1.422,0,0,1,.123.288.421.421,0,0,1-.033.309.194.194,0,0,0-.129-.029.217.217,0,0,1-.187.254c-.1.024-.207-.031-.284-.032a.973.973,0,0,0-.391.12,1.286,1.286,0,0,1-.311.019c-.44-.011-.906.031-1.319.021-.129,0-.256-.11-.411-.114l.076-3.282c.011-.491.023-.982.033-1.448.036-.412.276-.769.286-1.183a6.891,6.891,0,0,0-.165-.7,9.206,9.206,0,0,1-.056-2.07l.058-2.481a3.824,3.824,0,0,0,.051-1.086.339.339,0,0,1,.008-.361.765.765,0,0,1,.809-.343,3.669,3.669,0,0,0,.515.115.714.714,0,0,0,.337-.018c.363-.043.725-.035,1.088-.052a.232.232,0,0,1,.128.029.138.138,0,0,1,.1.08c.252.29.14.65.133.986l-.032,1.37c-.01.439-.021.9-.031,1.344a10.789,10.789,0,0,0-.03,1.292c.666.274,1.426-.148,1.928.484a.365.365,0,0,0,.055-.154.126.126,0,0,0,.028-.076c.259-.02.466-.041.673-.036.569-.013,1.137.027,1.731.04.672.015,1.345.005,2.017.021.258.006.133-.152.137-.359a7.152,7.152,0,0,0-.039-1.655,1.1,1.1,0,0,1-.011-.647,1.357,1.357,0,0,1,.163-.333c.111-.307-.1-1.088.388-1.1.1-.023.185-.151.264-.226-.025-.052-.076-.08-.1-.132a2.784,2.784,0,0,1-.392.172l.147-.772c.125.184.2.29.3.421.083-.257.19-.41.5-.377a6.827,6.827,0,0,0,.985-.106c.311-.019.622-.038.932-.031.078,0,.2.186.2.289.035.724.07,1.424.054,2.147-.027,1.137-.44,2.214-.491,3.351-.043.723.121,1.477.079,2.174a22.443,22.443,0,0,0-.081,3.489c.017.388-.121.747-.13,1.135,0,.1-.212.254-.369.327a4.522,4.522,0,0,1-.7.191A3.311,3.311,0,0,0,1621.671,438.143Z" transform="translate(-1541.901 -424.916)" fill="#1d1d1b"/>
      <path id="Path_1908" data-name="Path 1908" d="M1650.44,429.964c-.171.624-.293,1.26-.464,1.883-.14.6-.258.657-.863.516-1.309-.3-2.632-.665-3.947-.944-.509-.092-.509-.092-.626.412-.187.806-.5,2.141-.741,2.959-.035.151-.291.224-.483.366l.269-.017a3.286,3.286,0,0,1-.417,1.681,1.747,1.747,0,0,0-.03.471h-.345l-.018.075c.095.049.2.072.291.121-.088.378-.17.73-.226,1.089-.238,0-.4-.332-.634-.015.177.041.322.1.548.153a7.263,7.263,0,0,1-.57,1.885c-.236-.241-.4-.464-.614-.673a.318.318,0,0,0-.264-.009,1.479,1.479,0,0,0-.363.42c-.138.021-.375.126-.355-.189.01-.157-.488-.3-.682-.265a2.329,2.329,0,0,1-.576.079,2.068,2.068,0,0,1,0-.558c.082-.353.233-.662.335-.983.082-.353.108-.692.214-1.038.066-.171.156-.442.3-.488.293-.117.1-.19.045-.308-.033-.087-.135-.217-.118-.293.108-.347.29-.675.372-1.028.107-.347.088-.723.2-1.095.21-.906.589-2.3.825-3.206.023-.1.021-.207.051-.333-.988-.2-1.891-.546-2.816-.788-.579-.134-1.116-.339-1.689-.5-.246-.084-.373-.219-.278-.515a2.134,2.134,0,0,0,.232-.769c.009-.264-.021-.483.342-.558-.244-.322-.342-.584-.045-.833.068-.064.022-.207.043-.415.353.082.736.145,1.114.232,2.619.609,5.232,1.242,7.87,1.882,1.254.318,2.526.667,3.81.965C1650.481,429.443,1650.547,429.618,1650.44,429.964Zm-8.726,6.6c-.24-.109-.405-.2-.6-.272-.06.145-.132.341-.23.531a1.45,1.45,0,0,1,.308.045,5.732,5.732,0,0,0,.154.593C1641.516,437.074,1641.612,436.778,1641.715,436.563Zm-.6-1.175c.133.111.3.2.432.313l.122-.184c-.12-.054-.214-.1-.36-.163l.229-.186c-.12-.054-.209-.128-.374-.219C1641.145,435.13,1641.116,435.256,1641.112,435.388Zm1.756.78a1.008,1.008,0,0,1-.432-.313c-.13-.242-.209-.128-.333-.05.131-.448.236-.9.367-1.349l-.293.118a1.4,1.4,0,0,0-.09-.525c-.027-.112-.161-.223-.218-.316l-.068.064c.06.2.15.38.21.58a2.82,2.82,0,0,1-.331.056l.06.2c.194-.035.3-.036.438-.057a4.568,4.568,0,0,0-.017.527c-.023.1-.021.207-.044.307l-.013.4c.051.011.151.035.145.06C1642.282,436.4,1642.686,436.151,1642.868,436.167Zm-.938-4.756a3.626,3.626,0,0,0,.21.58.71.71,0,0,0,.2-.06,5.216,5.216,0,0,1-.266-.566A.552.552,0,0,0,1641.93,431.411Z" transform="translate(-1550.315 -425.367)" fill="#1d1d1b"/>
      <path id="Path_1909" data-name="Path 1909" d="M1660.357,447.715c-.667-.581-1.3-1.232-1.91-1.871a4.7,4.7,0,0,1-1.124-3.617,7.494,7.494,0,0,1,.223-1.471,5.535,5.535,0,0,1,2.824-3.288,9.144,9.144,0,0,1,6.037-.9,25.911,25.911,0,0,1,2.707.936c1.313.434,1.987,1.535,2.809,2.507a6.661,6.661,0,0,1,1.446,4.376,7.836,7.836,0,0,1-.21,1.622,6.778,6.778,0,0,1-2.913,2.756,11.464,11.464,0,0,1-3.758.94,8.771,8.771,0,0,1-4.335-.718A7.806,7.806,0,0,1,1660.357,447.715Zm8.785-2.07a1.759,1.759,0,0,0,.9-2.21,4.976,4.976,0,0,0-2.76-3.143,5.962,5.962,0,0,0-3.869-.493,3.79,3.79,0,0,0-1.783.718,2.354,2.354,0,0,0-1.063,1.841,2.11,2.11,0,0,0,.823,1.863,12.124,12.124,0,0,0,1.954,1.663A6.09,6.09,0,0,0,1669.143,445.644Z" transform="translate(-1557.228 -428.778)" fill="#1d1d1b"/>
      <path id="Path_1910" data-name="Path 1910" d="M1689.139,463.07c-.3.456-.679.847-1.018,1.272-.113.141-.4.008-.388.319a1.831,1.831,0,0,1-.169.295,1.525,1.525,0,0,1-.263-.044,3.761,3.761,0,0,1-1.744-1.959,7.517,7.517,0,0,1-.544-3.085c.016-.517.254-1.022,0-1.527a.543.543,0,0,0-.157-.258c-.71-.6-1.437-1.184-2.2-1.8-.246.267-.452.566-.7.8-.234.21-.368.666-.849.48-.076-.028-.161.036-.283.1.073.157.161.295.234.452-.246.1-.42.525-.8.089l-.049.226c-.029.242-.117.271-.311.182a3.807,3.807,0,0,0-.626-.17c-.021-.016-.032-.125-.114-.19-.185-.182-.238-.323.021-.481a2.48,2.48,0,0,0,.275-.343.19.19,0,0,1,.064.085l.254-.194c-.278-.356-.351-.348-.682-.017a1,1,0,0,1-.339.093l-.012-.109c.109-.178.218-.355.375-.594a3.115,3.115,0,0,1-.448-.061c-.206-.032-.327-.129-.181-.311l1.438-1.8,1.321-1.526,2.812-3.513c.307-.383.61-.8.917-1.187.028-.077.125-.2.2-.206.456-.033.586-.359.7-.8.21.069.42.137.594.211a17.152,17.152,0,0,1,3.722,2.714c.912.764,1.844,1.543,2.729,2.384a7.117,7.117,0,0,1,.763,1.074,3.924,3.924,0,0,1,.645,2.5,3.83,3.83,0,0,1-3.983,4.064c-.7-.033-1.393-.122-2.156-.2.1.743.044,1.559.766,2.1C1689.41,462.525,1689.434,462.577,1689.139,463.07Zm-8.562-6.226-.173-.238c-.085.064-.19.113-.275.177l.081.065c-.065.08-.106.214-.17.294l-.238.174A.716.716,0,0,0,1680.576,456.844Zm10.358-.154a1.3,1.3,0,0,0-.331-1.821l-3.011-2.61-1.05-.84c-.659.863-1.14,1.505-1.867,2.414,1.2.9,2.406,1.793,3.606,2.654a2.966,2.966,0,0,0,2,.442A.926.926,0,0,0,1690.934,456.69Z" transform="translate(-1564.317 -432.437)" fill="#1d1d1b"/>
      <path id="Path_1911" data-name="Path 1911" d="M1696.235,474.237a11.585,11.585,0,0,1-.209-1.853,2.118,2.118,0,0,1-.021-.827,5.057,5.057,0,0,1,.524-.983.349.349,0,0,1,.156-.537l.085.5c.121-.339.216-.587.3-.892l.685.572s.063-.086.115-.064c.531.229,1.042.474,1.537.7.176.088.206.165.117.341a2.711,2.711,0,0,0,.315,2.981,7.821,7.821,0,0,0,2.065,1.608.529.529,0,0,0,.292.025c.311.008.609-.04.8.27.033.04.238,0,.353-.062a2.3,2.3,0,0,1,1.361-.031.442.442,0,0,0,.374-.078c.262-.491.855-.551,1.233-.9.418-.386,1.448-1.051,1.941-1.468-.02.017-2.965-3.317-3.245-3.689a.158.158,0,0,1-.047-.1c-.017-.02.023-.053.043-.07a1.9,1.9,0,0,1,.4-.37c.3-.25,1.7-2.076,2.149-1.542,1.153,1.328,2.286,2.672,3.419,4.017a10.385,10.385,0,0,1,.758,1.019,1.54,1.54,0,0,1,.161.473c.235.039.385.216.285.538a1.918,1.918,0,0,1,.395.107c-1.174,1.5-3.395,2.793-4.725,3.983-.293-.227-.535-.394-.758-.578-.058.252-.061.288.188.383s.236.24.095.393a3.286,3.286,0,0,1-.618.351c-.039.033-.162-.033-.212-.092-.133-.158-.32-.339-.341-.525-.057-.188.107-.394.143-.593l.013-.146c-.185.021-.368.005-.319.3.03.076-.036.2-.042.272a.41.41,0,0,0,.031.278,6.728,6.728,0,0,0,.447.57.336.336,0,0,1-.083.1c-.525.139-1.09.311-1.633.43a1.59,1.59,0,0,1-.488-.1,4.288,4.288,0,0,1-1.078.165,6.711,6.711,0,0,1-4.066-1.374c-.309-.247-.638-.477-.948-.723-.086-.062-.09-.228-.184-.42-.562.135-.751-.45-.995-.819A5.351,5.351,0,0,1,1696.235,474.237Zm9.193,3.444q-.521-.017-.449-.533l-.538.284a2.391,2.391,0,0,0,.16.27c-.088.176-.137.319-.206.478C1704.778,477.993,1705.1,477.819,1705.428,477.681Zm.39-.7a3.3,3.3,0,0,0-.151-.38,1.684,1.684,0,0,1,.245-.071c-.064-.115-.091-.228-.137-.323-.417.148-.24.438-.205.68C1705.586,476.906,1705.712,476.935,1705.818,476.981Zm1.236-.94a3.043,3.043,0,0,0,.034-.4.137.137,0,0,1-.093.011l-.232.568a2.615,2.615,0,0,0-.3-.154,1.155,1.155,0,0,0-.038.235C1706.712,476.4,1706.97,476.382,1707.054,476.04Z" transform="translate(-1570.216 -439.282)" fill="#1d1d1b"/>
      <path id="Path_1912" data-name="Path 1912" d="M1708.91,492.118c-.219-.41-.2-.538.14-.837.068-.036.1-.141.121-.211a4.841,4.841,0,0,0,.085-.719c.045-.464.066-.534.576-.513,1,.054,2.677.181,3.661.212,2.269.077,4.515.166,6.772.22a10.371,10.371,0,0,0,1.212-.091c.415-.046.452.023.44.439a.465.465,0,0,0,.1.24c.273.236.524.541.849.6.546.089.629.572.892.9.086.159.194.307.339.523-.134.189-.311.46-.5.708-.893,1.181-1.8,2.339-2.669,3.507-.413.544-.792,1.1-1.169,1.651-.835,1.179-1.9,2.92-2.744,4.135a1.9,1.9,0,0,0-.189.305c-.111.177-.214.2-.414.1-.727-.373-1.5-.722-2.227-1.1a.385.385,0,0,1-.181-.284,2.465,2.465,0,0,1,.247-.689c.243-.424.738-1.362,1.028-1.752a.668.668,0,0,0,.083-.778c-.282-.582-.553-1.2-.858-1.769l-1.921-3.429a.82.82,0,0,0-.458-.254c-.649-.063-1.993-.165-2.666-.216-.243-.017-.4-.082-.4-.371A1.3,1.3,0,0,0,1708.91,492.118Zm8.827,3.9c.59-.872,1.123-1.685,1.724-2.534l-3.125-.088Z" transform="translate(-1574.516 -446.728)" fill="#1d1d1b"/>
      <circle id="Ellipse_10" data-name="Ellipse 10" cx="1.508" cy="1.508" r="1.508" transform="translate(40.398 2.035)" fill="#1d1d1b"/>
      <circle id="Ellipse_11" data-name="Ellipse 11" cx="1.508" cy="1.508" r="1.508" transform="translate(44.182 0.502)" fill="#1d1d1b"/>
    </g>
    <g id="Group_1231" data-name="Group 1231" transform="translate(1522.489 558.978)">
      <path id="Path_1913" data-name="Path 1913" d="M1540.909,646.672v-6.128c.026-1.474,0-2.948.026-4.422a5.775,5.775,0,0,1,.1-.931c.026-.207.13-.284.337-.181s.31.077.414-.155c.026-.129.284-.181.44-.206a27.2,27.2,0,0,1,6.8.025c.311.026.621.052.931.052a3.39,3.39,0,0,1,2.819,1.706,4.027,4.027,0,0,1,.465,4.06,4.88,4.88,0,0,1-1.81,2.146,8.149,8.149,0,0,1-3.646,1.448c-1.06.052-2.146.078-3.206.1h-.388c-.052.724-.077,2.43-.1,3.1-.052.414-.129.44-.465.284a.715.715,0,0,0-.233-.026,2.625,2.625,0,0,1-1.345.026,3.33,3.33,0,0,0-1.086.1C1540.935,647.345,1540.909,647.009,1540.909,646.672Zm6.9-5.9a3.415,3.415,0,0,0,2.224-1.293.823.823,0,0,0,.181-.93.871.871,0,0,0-.853-.595c-.75-.052-1.526-.155-2.3-.181-.957-.027-1.914,0-2.9,0v3.18C1545.408,640.906,1546.624,640.906,1547.813,640.777Z" transform="translate(-1540.909 -634.293)" fill="#1d1d1b"/>
      <path id="Path_1914" data-name="Path 1914" d="M1576.461,645.325c.052.543,0,1.086,0,1.629,0,.181-.31.258-.1.491a1.806,1.806,0,0,1,.052.336c-.026,0-.13.1-.232.129a3.765,3.765,0,0,1-2.586-.44,7.515,7.515,0,0,1-2.353-2.069c-.31-.414-.439-.956-.957-1.189a.543.543,0,0,0-.284-.1c-.931-.026-1.862-.026-2.845-.026-.026.363,0,.724-.052,1.06-.052.31.129.75-.362.905-.078.026-.1.13-.156.258.156.078.311.13.466.207-.129.232,0,.672-.568.568l.1.207c.13.206.078.284-.129.336a3.748,3.748,0,0,0-.595.259c-.026,0-.1-.078-.207-.078-.258-.026-.388-.1-.284-.388a2.489,2.489,0,0,0,0-.44.2.2,0,0,1,.1.026l.078-.311c-.44-.1-.491-.052-.543.414-.026.1-.13.181-.207.284l-.077-.078c-.026-.207-.052-.414-.078-.7a3.211,3.211,0,0,1-.388.232c-.181.1-.337.1-.337-.13v-2.3q.039-1.008.078-2.017v-4.5c0-.491-.026-1.009-.026-1.5a.353.353,0,0,1,.026-.284c.336-.31.233-.646.052-1.06.207-.078.414-.155.595-.207a17.149,17.149,0,0,1,4.6-.206c1.19.025,2.405.052,3.62.155a7.149,7.149,0,0,1,1.267.362,3.928,3.928,0,0,1,2.069,1.552,3.831,3.831,0,0,1-.569,5.663c-.569.414-1.163.776-1.81,1.189.543.517,1.009,1.19,1.914,1.164C1576.332,644.731,1576.383,644.757,1576.461,645.325Zm-10.576.491-.284-.077c-.026.1-.078.206-.1.31h.1c0,.1.051.232.051.336l-.077.284A.715.715,0,0,0,1565.885,645.817Zm7.99-6.594c0-.75-.621-1.163-1.4-1.215l-3.982-.155h-1.345c.026,1.086.052,1.888.052,3.052,1.5-.052,3-.1,4.474-.181a2.968,2.968,0,0,0,1.836-.905A.924.924,0,0,0,1573.875,639.223Z" transform="translate(-1548.641 -634.342)" fill="#1d1d1b"/>
      <path id="Path_1915" data-name="Path 1915" d="M1590.039,646.959a4.6,4.6,0,0,1-.363.337c-.077.052-.232.155-.258.129-.284-.31-.647-.025-.957-.155l.078-.181c-.621.052-.7-.078-.673-.569,0-.724.052-1.448.026-2.172,0-.827-.1-2.973-.1-3.8,0-1.81.026-3.62.026-5.4,0-.414.336-.543.594-.724.285-.233.569-.311.853.026.052.078.207.052.285.052a1.924,1.924,0,0,1,.052.31.932.932,0,0,0,.232-.1c.078-.026.155-.1.232-.129a2.694,2.694,0,0,1,.156.284c.207-.052.207-.129-.052-.569a4.95,4.95,0,0,1,.621,0,.376.376,0,0,1,.155.233c.052.724.078,1.448.078,2.2.026,1.551.026,3.1.026,4.654,0,1.086,0,3.517.026,4.6a3.629,3.629,0,0,1,0,.75c-.026.181.026.465-.31.491-.052.026-.052.181-.1.258C1590.013,647.528,1590.013,647.528,1590.039,646.959Z" transform="translate(-1556.66 -634.217)" fill="#1d1d1b"/>
      <path id="Path_1916" data-name="Path 1916" d="M1604.888,647.552h-2.147a2.753,2.753,0,0,1-.491-.181,2.15,2.15,0,0,1-.543.155c-.465.026-.957.026-1.448.026a5.429,5.429,0,0,1-1.293-.078c-.078-.025-.129-.051-.181-.025-.052,0-.077.025-.129.052-.1.025-.233-.052-.337-.052-.155.025-.284.129-.414.077a.344.344,0,0,1-.1-.077c-.233-.13-.439.155-.647,0-.078-.052-.336-.259-.31-.362.026,0,.026-.027.026-.052a.1.1,0,0,0,.026-.078,2.687,2.687,0,0,0-.1-.44l-.078-.465c-.026-.052.026-.1.026-.155-.258-.595.155-.776.595-1.034.7-.44,1.319-.957,1.965-1.448,2.612-1.862,4.965-3.362,7.576-5.249.078-.052.181-.155.362-.285h-1.81l-2.534-.077c-1.293-.052-4.034-.078-5.327-.13a1.693,1.693,0,0,1-.595-.155c-.052,0-.129-.078-.155-.129v-1.939c0-.259-.052-.517-.026-.776a.5.5,0,0,1,.31-.155c.336,0,.673.026,1.009.026,1.5.026,4.448.026,5.973.052a1.416,1.416,0,0,1,.621.129c-.1.052-.232.1-.362.181a1.133,1.133,0,0,0,.052.206c.284-.181.439-.155.62.155.1.233.439.362.673.543-.052-.362-.129-.724-.181-1.112.1,0,.181-.025.233.026.232.1.414.207.672-.026a.781.781,0,0,1,.595-.025c.181.025.31.181.466.284.18-.284.491-.284.853-.259.594.026,1.189,0,1.784.026a1.324,1.324,0,0,1,.646.155c.1.181.233.362.337.517l.284.465c.052.052.156.155.207.129.465-.181.646.362,1.034.387a3.337,3.337,0,0,1-1.06,1.552c-.543.466-1.086.931-1.63,1.422a35.231,35.231,0,0,1-4.783,3.775c-.646.414-.983.647-1.6,1.086,0,.052-.233.1-.233.155h4.008a2.484,2.484,0,0,1,.44,0c.155.052.259.181.388.232h.13a.025.025,0,0,0,.026-.026c.026,0,.026-.026.052-.026.1-.207.388-.181.568-.181h1.578c.156,0,.7-.078.827.077.026.026.026.078.052.1a.234.234,0,0,0,.13.026.232.232,0,0,1,.155.155c.026.1-.026.181-.026.284a1,1,0,0,0,.207.362c.129.13.078.44.078.647a7.965,7.965,0,0,0,0,1.112c.026.363-.129.44-.414.44-.827.026-1.63.026-2.457.026C1607.474,647.6,1606.439,647.552,1604.888,647.552Zm.181-10.937v-.052a.967.967,0,0,1-.207.026,4.157,4.157,0,0,1-.207-.517l.259-.568c-.466.181-.414.44-.388.724.026.181.026.362.052.543Z" transform="translate(-1559.642 -634.319)" fill="#1d1d1b"/>
      <path id="Path_1917" data-name="Path 1917" d="M1637.125,645.325c.052.543,0,1.086,0,1.629,0,.181-.31.258-.1.491a1.792,1.792,0,0,1,.052.336c-.026,0-.129.1-.232.129a3.766,3.766,0,0,1-2.586-.44,7.512,7.512,0,0,1-2.353-2.069c-.311-.414-.44-.956-.957-1.189a.542.542,0,0,0-.285-.1c-.93-.026-1.861-.026-2.844-.026-.026.363,0,.724-.052,1.06-.052.31.129.75-.362.905-.078.026-.1.13-.155.258.155.078.31.13.466.207-.13.232,0,.672-.569.568l.1.207c.129.206.078.284-.129.336a3.773,3.773,0,0,0-.594.259c-.026,0-.1-.078-.207-.078-.258-.026-.388-.1-.284-.388a2.489,2.489,0,0,0,0-.44.2.2,0,0,1,.1.026l.077-.311c-.44-.1-.491-.052-.543.414-.026.1-.129.181-.207.284l-.078-.078c-.026-.207-.052-.414-.078-.7a3.082,3.082,0,0,1-.388.232c-.181.1-.336.1-.336-.13v-2.3l.078-2.017v-4.5c0-.491-.026-1.009-.026-1.5a.355.355,0,0,1,.026-.284c.336-.31.232-.646.052-1.06.206-.078.414-.155.594-.207a17.156,17.156,0,0,1,4.6-.206c1.189.025,2.405.052,3.62.155a7.138,7.138,0,0,1,1.267.362,3.924,3.924,0,0,1,2.069,1.552,3.831,3.831,0,0,1-.569,5.663c-.569.414-1.164.776-1.81,1.189.543.517,1.008,1.19,1.913,1.164C1637,644.731,1637.047,644.757,1637.125,645.325Zm-10.576.491-.285-.077c-.026.1-.078.206-.1.31h.1c0,.1.052.232.052.336l-.078.284A.716.716,0,0,0,1626.549,645.817Zm7.99-6.594c0-.75-.621-1.163-1.4-1.215l-3.982-.155h-1.345c.026,1.086.052,1.888.052,3.052,1.5-.052,3-.1,4.473-.181a2.964,2.964,0,0,0,1.835-.905A.922.922,0,0,0,1634.54,639.223Z" transform="translate(-1569.023 -634.342)" fill="#1d1d1b"/>
      <path id="Path_1918" data-name="Path 1918" d="M1648.943,647.319c-.026.026-.052.026-.078.052.052.1.078.206.129.31-.543.026-.543.026-.543-.491,0-3.491.026-7.912.026-11.4,0-.078.026-.13.026-.181a1.051,1.051,0,0,1,.931-.982c.8-.052,1.629,0,2.431-.026.414,0,.827-.078,1.241-.078,1.784,0,3.594.026,5.378.026a5.824,5.824,0,0,1,.672,0c.155.026.465.078.465.13.052.284.233.594-.052.75a3.2,3.2,0,0,1,.259.672c.026.388,0,.776.026,1.138.026.31-.078.44-.363.44-.982,0-1.991,0-2.973.026-1.215,0-2.43.026-3.671.052h-1.138v1.655h2.094c.673,0,1.371.026,2.043.078.181,0,.466.129.466.232a2.31,2.31,0,0,1-.156.8c0,.026-.1.052-.129.1.052.336.388.621.155,1.034-.052.155.1.388.13.594s-.052.311-.285.311c-.776,0-1.551.026-2.353.026h-2.017v1.707h8.068c-.026,1.112-.078,2.172-.13,3.258h-7.757a2.049,2.049,0,0,0-.388.078c-.1,0-.207-.052-.336-.052-.207,0-.414.026-.62.026-.337.026-.647,0-.957.026a.486.486,0,0,0-.233.1Z" transform="translate(-1577.043 -634.319)" fill="#1d1d1b"/>
      <path id="Path_1919" data-name="Path 1919" d="M1669.773,647.837a6.424,6.424,0,0,1-.1-1.215c0-.75.078-2.3.078-3.078,0-.75-.026-1.473-.052-2.224-.026-1.137-.052-2.249-.1-3.361,0-.44-.1-.879-.078-1.319a2.669,2.669,0,0,1,.336-.853l.1.026c0,.052.026.129.026.181h.1a2.516,2.516,0,0,0,.026-.465,1.824,1.824,0,0,0,.362-.207l.052.155c.336.052.646.129,1.034.181a2.189,2.189,0,0,1-.181-.284.825.825,0,0,1,1.034.181,10.138,10.138,0,0,0,.983,1.112c.673.595,1.422,1.163,2.146,1.758.207.155.363.388.569.569a1.121,1.121,0,0,0,.491.284,2.6,2.6,0,0,1,.853.569l3.258,2.586c.026.026.051.026.129.052v-3.853c-.026-.673-.052-2.353-.078-3.052,0-.284-.025-.517.233-.672a2.482,2.482,0,0,1,1.37-.207c.258-.025.517-.025.776-.025a3.213,3.213,0,0,1,.491.025.974.974,0,0,1,.284.129c.285.259.129.931.129,1.267-.026.931-.052,2.87-.052,3.776-.026.517.026,1.034.026,1.551v2.405c.026.724.078,1.422.078,2.146a7.013,7.013,0,0,1-.155.983,4.916,4.916,0,0,0,0,.62c-.232-.052-.388-.1-.542-.129-.052,0-.1-.026-.156,0-.258,0-.517.026-.775.052a3.4,3.4,0,0,1-.517.025,2.72,2.72,0,0,1-.466,0c-.155,0-.439-.362-.673-.491-.491-.311-.724-.8-1.163-1.138-.414-.362-.8-.8-1.241-1.137-1.758-1.4-3.517-2.767-5.275-4.137a1,1,0,0,0-.285-.155c.078.776.156,1.526.156,2.276,0,1.242-.052,3.232-.078,4.473-.026.337-.078.569-.491.543a8.026,8.026,0,0,0-1.112.078,2.827,2.827,0,0,1-.414-.078c-.026.026-.026.1-.026.181-.026.052,0,.155-.026.181a2.84,2.84,0,0,1-.8.1A.643.643,0,0,1,1669.773,647.837Z" transform="translate(-1584.118 -634.371)" fill="#1d1d1b"/>
    </g>
  </g>
</svg>
