<svg xmlns="http://www.w3.org/2000/svg" width="1920" height="1029.914" viewBox="0 0 1920 1029.914">
  <g id="Group_1226" data-name="Group 1226" transform="translate(0 -1729)">
    <g id="Group_1225" data-name="Group 1225" transform="translate(-2161.98 1521.611)">
      <path id="Path_1894" data-name="Path 1894" d="M2441.55,1124.722c4.24,10.43,2.66,54.82-1.07,38.77C2436.72,1147.472,2441.55,1124.722,2441.55,1124.722Z" fill="#06a350"/>
      <path id="Path_1895" data-name="Path 1895" d="M2478.79,1226.142c-8.52,0-17.12-.14-25.75-.35a9.79,9.79,0,0,1-1.45-3.42c-.38-3.79-2.66-32.89-.38-35.17,2.28-2.24,8.32-13.98,11.74-15.5a.987.987,0,0,1,.52-.1c2.17.14-2.73,11.25-1.66,13.74,1.14,2.62,9.42,14.36,10.94,24.54S2476.17,1225.342,2478.79,1226.142Z" fill="#06a350"/>
      <path id="Path_1896" data-name="Path 1896" d="M2574.37,1176.572c1.14,7.73,1.52,35.97,2.56,45.11-30.03,2.49-58.68,4.04-85.61,4.39a6.972,6.972,0,0,0-.62-1.11c-1.34-1.86-14.15-12.28-12.56-30.99a43.134,43.134,0,0,1,2.86-13.15c2.31,1.86,6.01,4.34,8.94,3.45,4.42-1.38,3.59,3.59,5.53,3.59s-2.21-4.15-.56-5.25,2.49,3.31,4.42,2.48-3.86-4.14-2.21-4.69-1.1,2.49,6.35,2.76c5.25.21,7.22-4.45,7.91-7.28,8.28,4.11,13.67,3.59,21.3,2.86,2.03-.76,20.33-5.8,32.03-5.9C2569.99,1172.772,2573.96,1173.742,2574.37,1176.572Z" fill="#06a350"/>
      <path id="Path_1897" data-name="Path 1897" d="M2590.49,1220.512l-1.14.1a24.215,24.215,0,0,1-4-11.15c-.55-7.49,0-14.18,2.14-14.18C2589.46,1195.282,2588.7,1210.432,2590.49,1220.512Z" fill="#06a350"/>
      <path id="Path_1898" data-name="Path 1898" d="M2977.89,1088.762c2.86,6.97,1.79,36.62-.73,25.88C2974.68,1103.942,2977.89,1088.762,2977.89,1088.762Z" fill="#06a350"/>
      <path id="Path_1899" data-name="Path 1899" d="M3003.5,1157.032a2.933,2.933,0,0,1,.65,1.73c-4.97.83-9.9,1.69-14.87,2.52-.28-.31-.31-.38-.66-.8-.38-.48-.79-.96-1.21-1.51-1.38-1.8-2.69-3.73-2.79-4.91-.24-2.55-1.8-22.02-.24-23.5,1.51-1.52,5.55-9.39,7.83-10.39a.684.684,0,0,1,.35-.07c1.45.07-1.83,7.52-1.11,9.18.76,1.76,6.32,9.59,7.32,16.43s2.28,10.36,4.04,10.87a1.331,1.331,0,0,1,.69.42Z" fill="#06a350"/>
      <path id="Path_1900" data-name="Path 1900" d="M3066.74,1123.452c.58,4.07.89,16.46,1.34,24.64q-28.17,4.6-56.4,9.39a12.311,12.311,0,0,0-.9-1.69c-.89-1.24-9.45-8.21-8.39-20.75a27.871,27.871,0,0,1,1.9-8.76c1.56,1.24,4.04,2.9,5.97,2.27,2.97-.89,2.39,2.42,3.7,2.42,1.28,0-1.49-2.76-.38-3.52,1.14-.72,1.66,2.24,2.97,1.69,1.31-.59-2.59-2.79-1.49-3.17,1.11-.35-.72,1.69,4.28,1.86,3.49.14,4.8-2.97,5.28-4.87,5.53,2.76,9.12,2.42,14.23,1.9,1.34-.48,13.6-3.86,21.43-3.93C3063.8,1120.892,3066.46,1121.552,3066.74,1123.452Z" fill="#06a350"/>
      <path id="Path_1901" data-name="Path 1901" d="M3076.85,1146.642c-.83.14-1.69.28-2.55.42a11.232,11.232,0,0,1-.21-1.66c-.38-5,0-9.46,1.41-9.46C3076.44,1135.942,3076.5,1141.192,3076.85,1146.642Z" fill="#06a350"/>
      <path id="Path_1902" data-name="Path 1902" d="M3191.83,1108.852c-.53,7.26-5.32,12.98-5.62,13.33,2.41-9.87,1.34-27.49,3.48-27.49S3192.35,1101.362,3191.83,1108.852Z" fill="#06a350"/>
      <path id="Path_1903" data-name="Path 1903" d="M3299.01,1093.352a34.885,34.885,0,0,1-5.63,22.5c-32,3.52-64.89,7.8-98.38,12.57.73-.69,1.49-1.35,2.18-2.04,1-.97,1.9-1.86,2.42-2.31,1.58-1.31,1.86-39.01,3.21-48.09.41-2.86,4.34-3.79,9.66-3.76,11.67.14,30,5.14,32.03,5.9,7.63.76,13.02,1.25,21.27-2.86.72,2.83,2.65,7.49,7.9,7.28,7.49-.27,4.7-3.31,6.39-2.76,1.65.55-4.18,3.87-2.25,4.7s2.8-3.59,4.46-2.49-2.52,5.28-.56,5.28c1.94,0,1.11-5,5.53-3.62,2.9.93,6.62-1.56,8.9-3.42A42.4,42.4,0,0,1,3299.01,1093.352Z" fill="#06a350"/>
      <path id="Path_1904" data-name="Path 1904" d="M3325.97,1086.622c1.55,1.55.96,15.84.31,25.82q-11.34,1.08-22.82,2.31c.31-1.66.66-3.42.93-5.49,1.52-10.18,9.84-21.89,10.98-24.54.86-2.04-2.25-9.77-2.25-12.64,0-.65.18-1.07.59-1.1a1.1,1.1,0,0,1,.52.14C3317.65,1072.6,3323.69,1084.342,3325.97,1086.622Z" fill="#06a350"/>
      <path id="Path_1905" data-name="Path 1905" d="M3336.7,1062.872c-3.76,16.05-5.35-28.31-1.07-38.73C3335.63,1024.142,3340.43,1046.852,3336.7,1062.872Z" fill="#06a350"/>
      <path id="Path_1906" data-name="Path 1906" d="M3585.06,1108.812c-.07.86-.21,1.73-.35,2.59-1.62-.17-3.24-.35-4.87-.48.69-10.26.73-20.02,2.52-20.02C3585.06,1090.9,3585.71,1099.352,3585.06,1108.812Z" fill="#06a350"/>
      <path id="Path_1907" data-name="Path 1907" d="M3704.77,1128.422a5.939,5.939,0,0,1-.35.58c-34.55-6.52-70.73-12.18-107.9-16.36.76-15.46,1.31-37.97,2.41-45.42,1.69-11.5,49.02,1.34,52.75,2.72,3.72,1.35,2.34,11.5,6.76,11.15,4.39-.34,5.73-10.84,28.41-17.91a43.871,43.871,0,0,1,12.98-2.31c13.32.03,19.26,9.83,20.81,28.33C3722.68,1112.882,3706.46,1126.072,3704.77,1128.422Z" fill="#06a350"/>
      <path id="Path_1908" data-name="Path 1908" d="M3754.75,1080.682c2.86,2.86,0,39.66-.49,44.46-.24,2.21-2.72,5.93-5.31,9.32h-.04c-.83,1.1-1.65,2.14-2.41,3.07-9.39-2-18.85-4-28.51-5.94a4.8,4.8,0,0,1,.58-.86,2.483,2.483,0,0,1,1.24-.79c3.35-.97,5.77-7.67,7.67-20.58,1.93-12.91,12.42-27.75,13.87-31.1,1.35-3.11-4.86-17.19-2.1-17.36a1.358,1.358,0,0,1,.65.17C3744.22,1062.972,3751.85,1077.812,3754.75,1080.682Z" fill="#06a350"/>
      <path id="Path_1909" data-name="Path 1909" d="M3766.97,1001.6s6.11,28.75,1.38,49.05S3761.58,1014.822,3766.97,1001.6Z" fill="#06a350"/>
      <path id="Path_1910" data-name="Path 1910" d="M4081.98,347.352V1237.3s-170.07-62.49-321.19-96.59a3.126,3.126,0,0,1,.38-.45c.17-.25.34-.52.55-.8a1.429,1.429,0,0,1,.14-.2c1.72-2.63,3.28-6.01,4.35-7.91,1.93-3.35.48-21.5,2.86-25.82,2.42-4.31,8.63-28.68,9.56-32.03.97-3.35-2.38-26.3-3.83-30.14-1-2.69-.34-37.07-2.41-61.3-.11-.86-.14-1.69-.25-2.52-.06-.83-.17-1.66-.24-2.45-.17-1.45-.34-2.8-.52-4.11a15.284,15.284,0,0,0-.24-1.58c-.17-1.28-.38-2.49-.62-3.63a38.654,38.654,0,0,0-1.38-5.28c-.07-.21-.14-.42-.21-.62a3.174,3.174,0,0,1-.24-.59,5.823,5.823,0,0,0-.45-.86,2.908,2.908,0,0,1-.1-.28,5.053,5.053,0,0,0-.9-1.1,10.624,10.624,0,0,0-2.86-1.94,25.937,25.937,0,0,0-4.25-1.55c-.79-.24-1.66-.45-2.59-.66-1.79-.41-3.79-.75-5.93-1.07-4.39-.62-9.43-1.03-14.85-1.27-5.24-.28-10.8-.35-16.57-.35h-.06q-4.245,0-8.53.11c-21.02.41-42.7,2-54.92,3.07-2.14.17-4.45.28-6.9.28-13.26,0-30.52-2.49-46.08-5.25-15.64-2.76-29.48-5.77-35.97-6.87-.38-.07-.83-.14-1.14-.21-.86-.1-1.52-.21-2-.24-.42,0-1.07-.03-1.59-.03-2.24-.11-5.32-.14-8.73-.21s-7.18-.17-10.74-.38c-6.18-.35-11.66-1-13.43-2.42v-.03a1.717,1.717,0,0,1-.62-.9,14.468,14.468,0,0,0-.96-3.62c-.28-.66-.56-1.32-.87-1.94a17.728,17.728,0,0,0-4.35-5.93,2.976,2.976,0,0,0-1-.49,1.846,1.846,0,0,0-.86.11,2.389,2.389,0,0,0-.86.51,7.225,7.225,0,0,0-.83.83v.04c-.24.31-.48.62-.73.96a19.322,19.322,0,0,0-1.07,1.94c-.06.13-.06.1-.1.2-.17.35-.31.69-.31.69l-10.04-10.04a4.8,4.8,0,0,0-.87-.69,9.651,9.651,0,0,0-1.17-.62c-5.9-2.73-19.33-3.49-19.47-3.49,0,0,8.08,5.66,10.49,7.66.38.35.66.59.66.69.03.07-.17.04-.62-.2a12.4,12.4,0,0,0-4.38-.87c-.9-.06-1.87-.06-2.8-.06a31.578,31.578,0,0,0-4.97.44,3.864,3.864,0,0,0-1.87.66.235.235,0,0,0-.03.24,1.011,1.011,0,0,0,.34.28c.21.07.45.17.76.27.66.18,1.38.42,2.11.7.17.06.35.13.52.2.55.24,1.14.48,1.72.76.28.14.59.28.87.42.48.24.96.48,1.45.72.34.21.65.35.96.55.45.24.87.49,1.31.76.28.18.59.38.87.55.34.25.69.45.96.69a10.951,10.951,0,0,1,.94.66,6.889,6.889,0,0,1,.55.52,4.854,4.854,0,0,1,1.38,1.66.825.825,0,0,1,0,.58.653.653,0,0,1-.24.31,55.681,55.681,0,0,0-5.32,4.35c-.41.38-.83.8-1.28,1.24-.24.31-.51.56-.79.87l-.03.03-.07.07c-.42.48-.83.97-1.25,1.52a1.5,1.5,0,0,0-.27.34,17.468,17.468,0,0,0-1.11,1.49c-.1.14-.2.28-.31.41-.41.62-.83,1.28-1.2,1.97-.14.21-.25.45-.39.66-.24.48-.51.96-.75,1.48-.18.35-.32.69-.45,1-.21.49-.42.93-.59,1.42-.14.34-.28.72-.41,1.1a18.377,18.377,0,0,0-.69,2.21,1.462,1.462,0,0,0-.14.38c-.04.1-.07.21-.11.34-.17.59-.34,1.18-.55,1.73-.14.35-.27.62-.41.93s-.28.66-.45.97a10.049,10.049,0,0,1-.59,1.07c-.1.17-.21.38-.34.59-.28.41-.52.83-.83,1.21,0,.03,0,.06-.04.06a30.656,30.656,0,0,1-4.69,5.04c-4.73,4.15-9.56,6.84-9.56,10.39,0,6.08,3.38,12.15,8.11,14.19s18.26,1.35,22.99,4.07c4.73,2.7,16.84.56,23.06,2.49,6.21,1.9,12.91,28.68,18.64,36.35,12.49,24.54,24.68,16.36,24.19,28.3-.48,11.98,5.94,28.1,7.84,29.55.97.69.27,8.08-.86,16.22-34.07-3.07-68.83-4.83-103.76-4.83-40.01,0-83.09,2.38-128.27,6.52a15.158,15.158,0,0,1,1-5.24c1.9-3.42,6.8-22.68,7.56-25.34.76-2.62-1.9-20.78-3.01-23.82-.72-1.86-.41-23.12-1.41-41.25-.17-2.52-.35-4.9-.52-7.24-.07-.66-.14-1.35-.21-2.01-.03-.62-.1-1.24-.17-1.83-.1-1-.24-1.96-.38-2.9-.07-.69-.17-1.34-.27-1.96-.14-.87-.28-1.73-.45-2.49a28.266,28.266,0,0,0-1.11-4.28.85.85,0,0,1-.07-.21,8.755,8.755,0,0,0-.72-1.58c-1.42-2.45-6.25-4.04-13.05-5.01-3.42-.48-7.32-.79-11.53-1-4.18-.21-8.66-.31-13.29-.28h-.07c-2.21,0-4.48.04-6.73.07-6.8.14-13.63.45-20.05.8-9.29.51-17.64,1.14-23.34,1.65-10.87.9-27.3-1.34-41.9-3.93v-.04c-11.22-1.96-21.33-4.1-26.96-5.14-1.83-.34-3.21-.55-3.97-.62-1.55-.1-4.18-.14-7.14-.17-2.97-.07-6.36-.14-9.5-.31-4.9-.28-9.21-.8-10.59-1.94a1.081,1.081,0,0,1-.49-.72,13.822,13.822,0,0,0-.27-1.38,15.6,15.6,0,0,0-.52-1.49,18.782,18.782,0,0,0-3.25-5.42,4.55,4.55,0,0,0-.79-.72c-.03-.04-.03-.07-.07-.07-.03-.03-.07-.03-.1-.07a2.045,2.045,0,0,0-.66-.31h-.21a2.232,2.232,0,0,0-.51.07,2.331,2.331,0,0,0-.69.45,8.17,8.17,0,0,0-1.21,1.41,11.528,11.528,0,0,0-.83,1.52c-.21.42-.35.73-.35.73l-7.93-7.94a3.786,3.786,0,0,0-.69-.55,9,9,0,0,0-2.01-.94c-.38-.13-.83-.27-1.24-.38-.86-.24-1.79-.48-2.76-.65-1.93-.42-3.97-.66-5.73-.86-2.62-.32-4.56-.42-4.59-.42,0,0,2.83,2,5.31,3.8a28.708,28.708,0,0,1,3.52,2.79c0,.04-.03.04-.1.04-.07-.04-.21-.1-.41-.21a3.385,3.385,0,0,0-.66-.24,11.536,11.536,0,0,0-2.79-.41,29.459,29.459,0,0,0-5.94.24.445.445,0,0,1-.21.03,4.112,4.112,0,0,0-1.17.35.423.423,0,0,0-.28.17.158.158,0,0,0-.03.21,1.641,1.641,0,0,0,.86.41c.48.14,1.04.35,1.59.52a8.633,8.633,0,0,1,.83.38,6.914,6.914,0,0,1,.96.41c.28.14.59.28.9.42.28.14.62.31.93.48s.62.34.93.52c.24.14.49.27.73.41.34.21.72.45,1.03.66.14.1.28.2.42.31a11.345,11.345,0,0,1,.96.69,2.813,2.813,0,0,0,.28.24,4.489,4.489,0,0,1,1.21,1.45.668.668,0,0,1-.1.62c-.04,0-.04.07-.07.07a49.55,49.55,0,0,0-4.32,3.56c-.27.27-.52.51-.79.79a7.85,7.85,0,0,0-.62.66c-.49.55-1,1.13-1.49,1.76-.27.38-.55.72-.79,1.1-.07.1-.14.21-.21.31a17.956,17.956,0,0,0-1,1.55,4.6,4.6,0,0,1-.24.45c-.21.42-.45.83-.66,1.31-.1.21-.2.45-.31.7-.2.37-.34.76-.52,1.17-.1.27-.2.55-.31.86-.17.45-.31.93-.45,1.42-.06.2-.13.41-.2.62-.04.17-.11.34-.14.52-.14.38-.24.75-.38,1.1-.1.24-.21.48-.31.73a5.229,5.229,0,0,1-.38.79c-.14.28-.28.55-.41.83-.11.17-.21.34-.35.52-.17.27-.38.58-.59.86-.03.07-.1.14-.13.21a24.425,24.425,0,0,1-3.63,3.86c-3.73,3.28-7.59,5.39-7.59,8.22,0,4.8,2.69,9.59,6.45,11.22,3.73,1.62,14.43,1.07,18.16,3.21,3.76,2.14,13.32.44,18.22,1.96s10.22,22.68,14.74,28.72c9.87,19.4,19.51,12.95,19.13,22.4s4.69,22.2,6.21,23.34-2.28,24.2-3.8,29.48a14.139,14.139,0,0,0-7.49,6.07c-28.06,4.18-56.5,8.67-85.12,13.33-.59-4.18-.93-7.94-.45-8.32,1.04-.76,4.42-9.29,4.18-15.61-.28-6.31,6.18-2,12.77-14.98,3.04-4.03,6.59-18.19,9.87-19.22,3.28-1,9.67.14,12.19-1.32,2.48-1.41,9.63-1.06,12.15-2.13s4.31-4.28,4.31-7.53c0-1.86-2.59-3.28-5.07-5.45a17.082,17.082,0,0,1-2.42-2.59c-.03-.07-.1-.11-.1-.17-.17-.18-.28-.39-.42-.56a1.78,1.78,0,0,0-.2-.34c-.11-.21-.21-.38-.28-.55-.1-.18-.17-.35-.28-.56-.06-.13-.13-.31-.2-.44a7.507,7.507,0,0,0-.24-.77c-.04-.13-.07-.24-.11-.34-.03-.14-.07-.28-.1-.41-.11-.32-.21-.66-.31-.97-.07-.21-.14-.38-.21-.55-.1-.28-.24-.55-.34-.8-.07-.17-.14-.31-.21-.48-.17-.28-.31-.59-.45-.86-.07-.11-.1-.18-.17-.28-.21-.38-.42-.72-.66-1.07a2.487,2.487,0,0,0-.14-.21,8.6,8.6,0,0,0-.55-.72c-.31-.42-.65-.8-.97-1.17a4.611,4.611,0,0,0-.44-.45l-.52-.52a28.259,28.259,0,0,0-2.9-2.38.094.094,0,0,0-.04-.07.565.565,0,0,1-.07-.42,3.866,3.866,0,0,1,.83-.96.654.654,0,0,1,.18-.14,5.208,5.208,0,0,1,.65-.48,1.707,1.707,0,0,1,.28-.21c.21-.14.45-.28.69-.41a2.982,2.982,0,0,1,.48-.28c.21-.14.42-.24.62-.38.21-.11.42-.21.66-.31.17-.11.38-.17.55-.28.24-.1.45-.2.66-.27a3.342,3.342,0,0,1,.55-.25,8.751,8.751,0,0,1,1.07-.34,1.485,1.485,0,0,0,.59-.28c0-.03,0-.1-.04-.13a.492.492,0,0,0-.17-.14,5,5,0,0,0-.79-.21.255.255,0,0,0-.14-.03,20.1,20.1,0,0,0-3.97-.18,9.462,9.462,0,0,0-1.9.28c-.14.07-.31.1-.42.17a2.719,2.719,0,0,0-.27.14c-.07,0-.07,0-.07-.03a18.877,18.877,0,0,1,2.35-1.87c1.65-1.21,3.55-2.52,3.55-2.52s-1.31.04-3.07.24c-1.14.14-2.52.31-3.8.59-.65.1-1.27.28-1.86.41-.31.11-.59.18-.83.28a5.468,5.468,0,0,0-1.35.62,2.048,2.048,0,0,0-.44.35v.03l-5.32,5.28a3.468,3.468,0,0,1-.21-.45c-.17-.27-.34-.65-.58-1.03a4.657,4.657,0,0,0-.83-.97,2.277,2.277,0,0,0-.45-.28.773.773,0,0,0-.45-.03.981.981,0,0,0-.45.21.154.154,0,0,0-.07.03c-.03,0-.03.04-.07.04a3.221,3.221,0,0,0-.51.48,12.279,12.279,0,0,0-2.18,3.62c-.14.35-.24.69-.34,1.01-.07.34-.14.62-.18.93a.9.9,0,0,1-.34.48c-.9.76-3.8,1.11-7.08,1.31v-.03c-4.21.24-9.04.2-11.15.34-.52.04-1.41.18-2.66.42-1.86.34-4.48.86-7.59,1.48s-6.66,1.31-10.42,1.97c-9.77,1.73-20.75,3.24-28.03,2.62-3.8-.31-9.39-.76-15.6-1.07-4.32-.24-8.88-.45-13.43-.55-1.52,0-3.01-.03-4.49-.03h-.03c-3.11-.04-6.11.03-8.91.17a77,77,0,0,0-7.7.69c-4.55.62-7.8,1.69-8.73,3.35a5.818,5.818,0,0,0-.48,1.03c-.04.04-.04.1-.07.14a19.835,19.835,0,0,0-.73,2.87c-.1.55-.2,1.1-.31,1.69a12.538,12.538,0,0,0-.17,1.27c-.1.66-.17,1.28-.28,1.97-.03.42-.07.83-.1,1.21-.03.45-.07.9-.14,1.35-.14,1.55-.24,3.17-.34,4.83-.69,12.15-.45,26.37-.94,27.61-.75,2.04-2.52,14.15-2.03,15.95.52,1.76,3.8,14.64,5.07,16.95,1.28,2.24.52,11.87,1.52,13.63a44.129,44.129,0,0,0,2.69,4.73,2.312,2.312,0,0,0,.45.52c-133.69,22.75-266.58,46.01-381.32,57.02-1.62-8.77-3.35-21.36-2.24-22.19,1.52-1.14,6.59-13.88,6.21-23.34s9.22-3,19.13-22.4c4.52-6.04,9.8-27.23,14.74-28.72,4.9-1.52,14.46.18,18.19-1.96,3.76-2.14,14.46-1.63,18.19-3.22,3.72-1.62,6.42-6.42,6.42-11.21,0-2.83-3.83-4.94-7.56-8.22a26.277,26.277,0,0,1-3.63-3.86c-.07-.07-.1-.14-.17-.21a7.451,7.451,0,0,1-.55-.9,2.782,2.782,0,0,1-.35-.52c-.13-.24-.31-.51-.45-.79a7.237,7.237,0,0,0-.38-.8,5.231,5.231,0,0,0-.27-.72c-.14-.34-.24-.73-.38-1.1a3.181,3.181,0,0,0-.17-.52,4.4,4.4,0,0,0-.18-.62,15.143,15.143,0,0,0-.45-1.45c-.1-.28-.2-.55-.31-.83-.17-.42-.34-.83-.51-1.21-.11-.21-.21-.45-.31-.69-.21-.45-.45-.86-.69-1.28-.07-.13-.14-.31-.21-.45-.35-.55-.66-1.07-1-1.58-.07-.11-.14-.18-.21-.28-.28-.38-.52-.76-.79-1.1-.49-.63-1-1.21-1.49-1.76-.21-.25-.41-.45-.62-.66-.28-.28-.52-.55-.79-.79a45.723,45.723,0,0,0-4.35-3.56c0-.03-.04-.07-.07-.1a.571.571,0,0,1-.07-.59,4.113,4.113,0,0,1,1.21-1.45,1.808,1.808,0,0,0,.24-.24,7.651,7.651,0,0,1,1-.69c.14-.1.24-.21.38-.31.34-.21.69-.45,1.07-.66.24-.14.45-.27.73-.41.31-.17.62-.35.93-.52a10.233,10.233,0,0,1,.93-.48c.31-.14.59-.28.9-.45.31-.14.62-.28.96-.42.28-.1.56-.24.8-.34.58-.21,1.1-.38,1.58-.52a1.841,1.841,0,0,0,.9-.41c.04-.07,0-.14-.03-.21a.672.672,0,0,0-.28-.21,9.246,9.246,0,0,0-1.17-.31.444.444,0,0,1-.21-.03,29.4,29.4,0,0,0-5.94-.25h-.03a11.988,11.988,0,0,0-2.76.42,4.32,4.32,0,0,0-.66.24c-.21.1-.34.14-.41.17s-.14.04-.11,0a26.409,26.409,0,0,1,3.52-2.79c2.46-1.83,5.32-3.8,5.32-3.8-.03,0-1.97.1-4.59.42a52.827,52.827,0,0,0-5.73.86c-.97.17-1.9.41-2.76.65a11.42,11.42,0,0,0-1.24.38,9,9,0,0,0-2.01.94,4.589,4.589,0,0,0-.69.51v.04l-7.94,7.94a5.757,5.757,0,0,0-.31-.73c-.2-.41-.51-.96-.86-1.52a10.454,10.454,0,0,0-1.21-1.45,3.574,3.574,0,0,0-.69-.41,1.771,1.771,0,0,0-.72-.07,1.7,1.7,0,0,0-.66.31c-.03.04-.07.04-.1.07-.04,0-.04.03-.07.07a4.974,4.974,0,0,0-.8.72,18.379,18.379,0,0,0-3.24,5.42,12.56,12.56,0,0,0-.52,1.49,6.456,6.456,0,0,0-.27,1.38,1.24,1.24,0,0,1-.49.69v.03c-1.38,1.11-5.69,1.66-10.59,1.94v-.04c-6.32.38-13.5.35-16.64.52-.76.07-2.14.27-3.97.62-5.63,1-15.74,3.18-26.96,5.14v.04c-14.6,2.59-31.07,4.83-41.9,3.9-5.7-.48-14.05-1.11-23.34-1.62-6.42-.38-13.25-.66-20.05-.8-2.28-.03-4.53-.07-6.73-.07h-.07c-4.63-.03-9.12.07-13.29.24-4.21.21-8.11.56-11.53,1.04-6.8.97-11.63,2.55-13.08,5.01a11.6,11.6,0,0,0-.69,1.55,2.124,2.124,0,0,0-.07.24,27.089,27.089,0,0,0-1.14,4.28c-.14.76-.28,1.62-.42,2.49-.1.62-.2,1.27-.31,1.93-.1.97-.24,1.93-.34,2.93-.07.59-.14,1.21-.18,1.83-.06.66-.13,1.31-.2,2-.21,2.32-.38,4.73-.49,7.22-1.07,18.16-.72,39.42-1.45,41.28-1.13,3.04-3.76,21.2-3.03,23.82.79,2.66,5.69,21.92,7.59,25.34,1.59,2.89,1,13.84,1.76,18.57-7.15-.25-24.67,1.07-51.2,2.92a2229.943,2229.943,0,0,1-228.47,4.17V326.492c480.12-182,691.58-113.58,1000.27-66.07C3572.51,346.062,4081.98,347.352,4081.98,347.352Z" fill="#06a350"/>
    </g>
  </g>
</svg>
