<?xml version="1.0" encoding="utf-8"?>
<!-- Generator: Adobe Illustrator 23.0.0, SVG Export Plug-In . SVG Version: 6.00 Build 0)  -->
<svg version="1.1" id="Layer_1" xmlns="http://www.w3.org/2000/svg" xmlns:xlink="http://www.w3.org/1999/xlink" x="0px" y="0px"
	 viewBox="0 0 3000 496.7" style="enable-background:new 0 0 3000 496.7;" xml:space="preserve">
<style type="text/css">
	.st0{fill:#FFFFFF;}
</style>
<g id="Group_6477" transform="translate(0 -2749.071)">
	<path id="Path_60" class="st0" d="M521.6,3208.3c-3-5.3-10.6-35.5-11.9-39.6c-1.1-4.1,3-32.5,4.8-37.3c1.1-2.9,0.6-36.2,2.3-64.6
		c0.2-3.9,0.4-7.7,0.8-11.3c0.1-1.1,0.2-2.1,0.3-3.1s0.2-1.9,0.3-2.9c0.2-1.6,0.4-3.1,0.5-4.6c0.2-1,0.3-2.1,0.5-3
		c0.2-1.3,0.4-2.7,0.7-3.9c0.4-2.3,1-4.5,1.8-6.7c0.1-0.1,0.1-0.3,0.1-0.4c0.3-0.8,0.7-1.6,1.1-2.4c2.3-3.8,9.8-6.3,20.5-7.8
		c5.3-0.8,11.4-1.3,18-1.6c6.5-0.3,13.6-0.4,20.8-0.4h0.1c3.5,0,7,0.1,10.5,0.1c10.6,0.2,21.3,0.6,31.4,1.2
		c14.5,0.8,27.6,1.8,36.5,2.5c17,1.5,42.7-2.1,65.6-6.1v-0.1c17.6-3.1,33.4-6.5,42.2-8c2.9-0.5,5-0.9,6.2-1c4.9-0.3,16.1-0.2,26-0.8
		v0.1c7.7-0.4,14.4-1.3,16.6-3v-0.1c0.4-0.3,0.6-0.6,0.8-1.1c0.1-0.7,0.2-1.5,0.4-2.2c0.2-0.8,0.5-1.6,0.8-2.3
		c1.2-3.1,2.9-6,5.1-8.5c0.4-0.4,0.8-0.8,1.2-1.1c0.1-0.1,0.1-0.1,0.1-0.1c0.1-0.1,0.1-0.1,0.2-0.1c0.3-0.2,0.7-0.4,1-0.5
		c0.4,0,0.8,0,1.1,0.1c0.4,0.2,0.7,0.4,1.1,0.6c0.7,0.7,1.3,1.5,1.9,2.3c0.5,0.9,1,1.7,1.4,2.4c0.2,0.4,0.3,0.7,0.5,1.1l12.4-12.4
		v-0.1c0.3-0.3,0.7-0.6,1.1-0.8c1-0.6,2-1.1,3.1-1.5c0.6-0.2,1.3-0.4,1.9-0.6c1.3-0.4,2.8-0.8,4.3-1c3-0.6,6-1.1,9-1.3
		c4.1-0.5,7.1-0.6,7.2-0.6c0,0-4.5,3.1-8.3,5.9c-2,1.3-3.8,2.8-5.5,4.4c-0.1,0.1,0.1,0.1,0.2,0c0.1-0.1,0.3-0.1,0.7-0.3
		c0.3-0.2,0.7-0.3,1-0.4c1.4-0.4,2.9-0.6,4.3-0.6h0.1c3.1-0.2,6.2-0.1,9.3,0.4c0.1,0.1,0.2,0.1,0.3,0.1c0.6,0.1,1.2,0.3,1.8,0.5
		c0.2,0.1,0.3,0.2,0.4,0.3c0.1,0.1,0.1,0.2,0.1,0.3c-0.4,0.3-0.9,0.6-1.4,0.6c-0.8,0.2-1.6,0.5-2.5,0.8c-0.4,0.2-0.8,0.4-1.2,0.5
		c-0.5,0.2-1,0.4-1.5,0.6c-0.5,0.3-0.9,0.5-1.4,0.7s-1,0.5-1.5,0.8s-1,0.5-1.5,0.8c-0.4,0.2-0.8,0.4-1.1,0.6c-0.6,0.3-1.1,0.7-1.7,1
		c-0.2,0.2-0.4,0.3-0.6,0.5c-0.5,0.3-1.1,0.7-1.6,1.1c-0.1,0.1-0.2,0.3-0.4,0.4c-0.8,0.6-1.4,1.4-1.9,2.3c-0.1,0.3-0.1,0.7,0.1,0.9
		c0.1,0.1,0.1,0.1,0.1,0.2c2.4,1.7,4.7,3.6,6.8,5.6c0.4,0.4,0.8,0.8,1.2,1.2c0.3,0.3,0.6,0.6,1,1c0.8,0.9,1.6,1.8,2.3,2.8
		c0.4,0.5,0.8,1.1,1.2,1.7c0.1,0.2,0.2,0.3,0.3,0.4c0.5,0.8,1,1.6,1.6,2.5c0.1,0.2,0.2,0.5,0.3,0.7c0.4,0.6,0.8,1.3,1.1,2
		c0.2,0.4,0.3,0.8,0.5,1.1c0.3,0.6,0.5,1.2,0.8,1.9l0.5,1.3c0.3,0.8,0.5,1.5,0.7,2.3c0.1,0.3,0.2,0.6,0.3,1c0.1,0.3,0.2,0.5,0.3,0.8
		c0.2,0.6,0.4,1.2,0.6,1.7c0.2,0.4,0.3,0.7,0.4,1.1c0.2,0.4,0.4,0.8,0.6,1.2c0.2,0.4,0.5,0.9,0.7,1.2c0.1,0.3,0.3,0.6,0.5,0.8
		c0.3,0.5,0.5,1,0.9,1.4c0.1,0.1,0.2,0.2,0.3,0.3c1.7,2.2,3.6,4.2,5.7,6c5.8,5.1,11.8,8.4,11.8,12.9c0,7.5-4.2,15-10,17.6
		c-5.8,2.5-22.6,1.7-28.5,5c-5.8,3.3-20.8,0.7-28.5,3.1c-7.7,2.3-16,35.5-23.1,44.9c-15.5,30.3-30.5,20.3-29.9,35
		s-7.3,34.7-9.7,36.5c-1.7,1.3,1,21,3.5,34.7c179.5-17.2,387.4-53.6,596.6-89.2c-0.3-0.2-0.5-0.5-0.7-0.8c-1.6-2.4-3-4.8-4.2-7.4
		c-1.6-2.8-0.4-17.8-2.4-21.3c-2-3.6-7.1-23.8-7.9-26.5c-0.8-2.8,2-21.8,3.2-24.9c0.8-1.9,0.4-24.2,1.5-43.2
		c0.2-2.6,0.3-5.1,0.5-7.6c0.1-0.7,0.2-1.4,0.2-2.1c0.1-0.6,0.1-1.2,0.2-1.9c0.2-1.1,0.3-2.1,0.4-3.1c0.1-0.7,0.2-1.3,0.3-2
		c0.2-0.9,0.3-1.8,0.5-2.7c0.3-1.5,0.6-3,1.1-4.5c0.1-0.1,0.1-0.2,0.1-0.2c0.2-0.6,0.5-1.1,0.8-1.6c1.5-2.6,6.5-4.3,13.7-5.2
		c3.6-0.5,7.6-0.9,12-1.1c4.4-0.2,9.1-0.3,13.9-0.3h0.1c2.3,0,4.6,0.1,7,0.1c7.1,0.2,14.3,0.5,21,0.9c9.7,0.5,18.5,1.2,24.4,1.7
		c11.4,1,28.6-1.4,43.8-4.1c5.9-1,11.4-2.1,16.3-3.1s9-1.8,11.9-2.3c1.4-0.3,2.8-0.5,4.2-0.6c3.3-0.2,10.9-0.2,17.4-0.5v0.1
		c5.1-0.3,9.7-0.9,11.1-2.1c0.3-0.2,0.5-0.4,0.5-0.8c0.1-0.5,0.2-0.9,0.3-1.5c0.2-0.5,0.3-1,0.5-1.6c0.8-2.1,2-4,3.4-5.7
		c0.2-0.3,0.5-0.5,0.8-0.8c0,0,0-0.1,0.1-0.1c0,0,0.1,0,0.1-0.1c0.2-0.2,0.4-0.3,0.7-0.3c0.2-0.1,0.5,0,0.7,0.1
		c0.3,0.1,0.5,0.3,0.7,0.4c0.5,0.4,0.9,0.9,1.3,1.5s0.6,1.2,0.9,1.6c0.1,0.2,0.2,0.5,0.3,0.7l8.3-8.3v-0.1c0.2-0.2,0.5-0.4,0.7-0.5
		c0.7-0.4,1.4-0.7,2.1-1c0.4-0.2,0.8-0.3,1.3-0.4c0.9-0.2,1.9-0.5,2.9-0.6c2-0.4,4.2-0.7,5.9-0.9c2.8-0.3,4.8-0.4,4.8-0.4
		s-3,2.1-5.6,3.9c-1.3,0.9-2.5,1.8-3.7,2.9c0,0.1,0,0.1,0.1,0.1c0.1-0.1,0.3-0.2,0.4-0.2c0.2-0.1,0.4-0.2,0.6-0.3c1-0.2,2-0.4,3-0.4
		c2.1-0.1,4.2,0,6.2,0.3c0.1,0,0.2,0,0.2,0.1c0.4,0.1,0.8,0.2,1.2,0.3c0.1,0.1,0.2,0.1,0.3,0.2c0,0.1,0.1,0.1,0.1,0.2
		c-0.3,0.2-0.6,0.4-0.9,0.4c-0.6,0.1-1.1,0.3-1.7,0.5c-0.3,0.1-0.6,0.2-0.9,0.4c-0.3,0.1-0.6,0.3-1,0.4c-0.3,0.2-0.6,0.3-0.9,0.4
		c-0.4,0.2-0.7,0.3-1,0.5s-0.6,0.4-1,0.6c-0.3,0.1-0.5,0.3-0.8,0.4c-0.4,0.2-0.8,0.4-1.1,0.6c-0.2,0.1-0.3,0.2-0.4,0.3
		c-0.4,0.2-0.7,0.5-1,0.8c-0.1,0.1-0.2,0.1-0.3,0.2c-0.5,0.4-1,0.9-1.3,1.5c-0.1,0.2,0,0.5,0.1,0.6l0.1,0.1c1.6,1.1,3.1,2.4,4.5,3.7
		l0.8,0.8c0.2,0.2,0.5,0.5,0.7,0.7c0.5,0.6,1,1.2,1.5,1.8c0.3,0.4,0.6,0.8,0.9,1.1c0.1,0.1,0.2,0.2,0.2,0.3c0.4,0.5,0.7,1.1,1,1.7
		c0.1,0.2,0.2,0.3,0.3,0.4c0.2,0.5,0.4,0.9,0.7,1.3c0.1,0.3,0.2,0.5,0.3,0.8c0.2,0.4,0.4,0.8,0.5,1.2c0.1,0.3,0.2,0.5,0.3,0.9
		c0.2,0.5,0.3,1,0.5,1.5l0.2,0.6c0.1,0.2,0.1,0.3,0.2,0.5c0.1,0.4,0.3,0.8,0.4,1.2c0.1,0.2,0.2,0.5,0.3,0.7c0.2,0.3,0.3,0.6,0.4,0.9
		c0.1,0.3,0.3,0.5,0.4,0.9c0.1,0.2,0.2,0.4,0.3,0.5c0.2,0.3,0.4,0.6,0.7,0.9c0,0.1,0.1,0.2,0.2,0.3c1.1,1.5,2.4,2.8,3.8,4.1
		c3.9,3.4,7.9,5.6,7.9,8.5c0,5.1-2.8,10.1-6.7,11.8c-3.9,1.7-15.1,1.1-19,3.3c-3.9,2.3-13.9,0.5-19.1,2.1
		c-5.1,1.6-10.7,23.8-15.4,30.1c-10.3,20.3-20.4,13.6-20,23.4c0.4,9.9-4.9,23.2-6.5,24.4c-0.8,0.6-0.2,6.5,0.7,13
		c44.8-7.3,89.3-14.3,133.2-20.8c2.7-4.4,6.8-7.8,11.7-9.5c2.4-8.3,8.3-44.3,5.9-46.1s-10.3-21.7-9.7-36.5
		c0.6-14.8-14.5-4.7-29.9-35c-7.1-9.4-15.4-42.6-23.1-44.9c-7.7-2.4-22.6,0.3-28.5-3.1c-5.8-3.3-22.6-2.5-28.4-5
		c-5.9-2.5-10.1-10-10.1-17.5c0-4.4,6-7.7,11.9-12.9c2.1-1.8,4-3.8,5.7-6c0.1-0.1,0.2-0.2,0.2-0.3c0.3-0.4,0.6-0.9,0.9-1.3
		c0.2-0.3,0.4-0.5,0.5-0.8l0.6-1.3c0.2-0.4,0.4-0.8,0.6-1.2s0.3-0.8,0.5-1.1c0.2-0.5,0.4-1.1,0.6-1.7c0.1-0.3,0.2-0.5,0.2-0.8l0.3-1
		c0.2-0.8,0.4-1.5,0.7-2.2c0.2-0.5,0.3-0.9,0.5-1.3c0.2-0.6,0.5-1.2,0.8-1.8c0.2-0.4,0.3-0.8,0.5-1.1c0.3-0.8,0.7-1.4,1-2.1
		c0.1-0.2,0.3-0.5,0.4-0.7c0.5-0.8,1-1.6,1.6-2.4l0.3-0.5c0.4-0.6,0.8-1.1,1.2-1.7c0.8-1,1.6-1.9,2.3-2.8c0.3-0.4,0.6-0.7,1-1
		c0.4-0.4,0.8-0.8,1.2-1.2c2.1-2,4.4-3.8,6.8-5.6c0,0,0-0.1,0.1-0.1c0.2-0.3,0.3-0.6,0.2-1c-0.5-0.9-1.1-1.7-1.9-2.3
		c-0.2-0.1-0.3-0.2-0.4-0.4c-0.5-0.4-1-0.7-1.5-1.1c-0.2-0.2-0.4-0.3-0.7-0.5c-0.5-0.3-1.1-0.7-1.6-1l-1.1-0.6l-1.5-0.8
		c-0.5-0.3-1-0.5-1.5-0.8c-0.5-0.2-1-0.4-1.4-0.6c-0.5-0.3-1-0.5-1.5-0.6c-0.4-0.2-0.9-0.4-1.3-0.6c-0.9-0.3-1.7-0.6-2.5-0.8
		c-0.5-0.1-1-0.3-1.4-0.6c-0.1-0.1,0-0.2,0.1-0.3s0.3-0.2,0.4-0.3c0.6-0.3,1.2-0.4,1.8-0.5c0.1,0,0.3,0,0.3-0.1
		c3.1-0.4,6.2-0.6,9.3-0.4c1.5,0,2.9,0.3,4.4,0.6c0.4,0.1,0.7,0.2,1,0.4l0.6,0.3c0.1,0,0.2,0,0.2-0.1c-1.7-1.6-3.6-3.1-5.5-4.4
		c-3.9-2.8-8.3-5.9-8.3-5.9c0.1,0,3.1,0.2,7.2,0.6c2.8,0.3,5.9,0.7,9,1.3c1.5,0.3,3,0.6,4.3,1c0.6,0.2,1.4,0.4,1.9,0.6
		c1.1,0.4,2.2,0.8,3.1,1.5c0.4,0.2,0.8,0.5,1.1,0.9l12.4,12.4c0,0,0.2-0.5,0.5-1.1c0.4-0.8,0.8-1.6,1.3-2.4c0.5-0.8,1.2-1.5,1.9-2.2
		c0.3-0.3,0.7-0.5,1.1-0.7c0.3-0.1,0.5-0.1,0.8-0.1h0.3c0.4,0.1,0.7,0.3,1,0.5c0.1,0.1,0.1,0.1,0.2,0.1s0.1,0.1,0.1,0.1
		c0.5,0.3,0.9,0.7,1.2,1.1c2.2,2.5,3.9,5.4,5.1,8.5c0.3,0.8,0.6,1.5,0.8,2.3c0.2,0.7,0.3,1.4,0.4,2.2c0.1,0.5,0.4,0.9,0.8,1.1
		c2.2,1.8,8.9,2.6,16.6,3c4.9,0.3,10.2,0.4,14.9,0.5c4.6,0.1,8.7,0.1,11.2,0.3c1.2,0.1,3.3,0.4,6.2,1c8.8,1.6,24.6,5,42.2,8v0.1
		c22.8,4.1,48.5,7.6,65.6,6.2c8.9-0.8,22-1.8,36.5-2.6c10-0.5,20.7-1,31.4-1.2c3.5-0.1,7.1-0.1,10.5-0.1h0.1
		c7.2-0.1,14.3,0.1,20.8,0.4c6.6,0.3,12.7,0.8,18,1.6c10.6,1.5,18.2,4,20.4,7.8c0.5,0.8,0.8,1.6,1.1,2.5c0,0.1,0.1,0.2,0.1,0.3
		c0.7,2.2,1.3,4.4,1.7,6.7c0.3,1.2,0.5,2.5,0.7,3.9c0.2,1,0.3,2,0.4,3.1c0.2,1.5,0.4,3,0.6,4.5c0.1,0.9,0.2,1.9,0.3,2.9
		c0.1,1,0.2,2.1,0.3,3.1c0.3,3.7,0.5,7.4,0.8,11.3c1.6,28.4,1.1,61.6,2.2,64.5c1.7,4.8,5.9,33.2,4.7,37.3
		c-1.2,4.2-8.9,34.3-11.8,39.6c-1,2.6-1.5,5.4-1.6,8.2c70.7-6.5,138.1-10.2,200.7-10.2c54.6,0,109,2.8,162.3,7.6
		c1.8-12.7,2.9-24.3,1.3-25.4c-3-2.3-13-27.5-12.3-46.2c0.8-18.7-18.3-5.9-37.9-44.3c-9-12-19.4-53.9-29.2-56.9
		c-9.7-3-28.7,0.3-36.1-3.9c-7.4-4.3-28.6-3.2-36-6.4s-12.7-12.7-12.7-22.2c0-5.6,7.6-9.8,15-16.3c2.7-2.4,5.2-5,7.3-7.9v-0.1
		c0.5-0.6,0.9-1.2,1.3-1.9c0.2-0.3,0.4-0.6,0.5-0.9c0.3-0.5,0.6-1.1,0.9-1.7c0.3-0.5,0.5-1,0.7-1.5s0.4-0.9,0.7-1.5
		c0.3-0.9,0.6-1.8,0.9-2.7c0.1-0.2,0.1-0.4,0.2-0.5c0-0.2,0.1-0.4,0.2-0.6c0.3-1.2,0.7-2.3,1.1-3.5c0.2-0.6,0.4-1.2,0.7-1.7
		c0.3-0.8,0.6-1.5,0.9-2.2c0.2-0.5,0.4-1,0.7-1.6c0.4-0.8,0.8-1.6,1.2-2.3c0.2-0.3,0.4-0.7,0.6-1c0.6-1.1,1.2-2.1,1.9-3.1l0.5-0.6
		c0.5-0.8,1.1-1.6,1.7-2.3c0.1-0.2,0.3-0.4,0.4-0.5c0.6-0.9,1.3-1.6,1.9-2.4l0.1-0.1l0.1-0.1c0.4-0.5,0.9-0.9,1.2-1.3
		c0.7-0.7,1.4-1.3,2-1.9c2.6-2.4,5.4-4.7,8.3-6.8c0.2-0.1,0.3-0.3,0.4-0.5c0.1-0.3,0.1-0.6,0-0.9c-0.5-1-1.3-1.9-2.2-2.6
		c-0.3-0.3-0.5-0.5-0.9-0.8c-0.5-0.4-1-0.7-1.5-1c-0.5-0.4-1-0.7-1.5-1.1c-0.4-0.3-0.9-0.6-1.4-0.9c-0.7-0.4-1.4-0.8-2.1-1.2
		c-0.5-0.3-1-0.5-1.5-0.9c-0.8-0.4-1.5-0.8-2.3-1.1c-0.4-0.2-0.9-0.4-1.4-0.6c-0.9-0.4-1.8-0.8-2.7-1.2l-0.8-0.3
		c-1.1-0.4-2.2-0.8-3.3-1.1c-0.5-0.2-0.9-0.3-1.2-0.4c-0.2-0.1-0.4-0.2-0.5-0.4c-0.1-0.1,0-0.3,0.1-0.4c0.9-0.6,1.9-1,2.9-1
		c2.6-0.4,5.2-0.7,7.8-0.7c1.5,0,3,0,4.4,0.1c2.4,0,4.7,0.5,6.9,1.3c0.7,0.4,1,0.4,1,0.3c0-0.2-0.4-0.5-1-1.1
		c-3.8-3.1-16.4-12-16.4-12c0.2,0,21.2,1.2,30.5,5.5c0.6,0.3,1.2,0.6,1.8,1c0.5,0.3,0.9,0.7,1.4,1.1l15.7,15.7c0,0,0.2-0.5,0.5-1.1
		c0-0.1,0.1-0.2,0.2-0.3c0.5-1,1-2.1,1.7-3c0.4-0.5,0.8-1,1.1-1.5v-0.1c0.4-0.5,0.8-0.9,1.3-1.3c0.4-0.4,0.9-0.6,1.4-0.8
		c0.4-0.2,0.9-0.2,1.4-0.2c0.6,0.1,1.1,0.4,1.6,0.8c2.9,2.6,5.2,5.8,6.8,9.3c0.5,1,0.9,2,1.3,3c0.7,1.8,1.3,3.7,1.5,5.7
		c0.2,0.6,0.5,1.1,1,1.4v0.1c2.8,2.2,11.3,3.2,21,3.8c5.6,0.3,11.4,0.5,16.8,0.6c5.3,0.1,10.2,0.2,13.7,0.3c0.8,0,1.8,0.1,2.5,0.1
		c0.8,0.1,1.8,0.2,3.1,0.4c0.5,0.1,1.2,0.2,1.8,0.3c10.2,1.7,31.8,6.4,56.3,10.7c24.4,4.3,51.4,8.2,72.1,8.2c3.8,0,7.5-0.2,10.8-0.4
		c19.1-1.7,53-4.2,85.9-4.8c4.5-0.1,8.9-0.2,13.3-0.2h0.1c9,0,17.7,0.1,25.9,0.5c8.5,0.4,16.4,1,23.2,2c3.3,0.5,6.5,1,9.3,1.7
		c1.5,0.3,2.8,0.6,4.1,1c2.3,0.6,4.5,1.4,6.6,2.4c1.7,0.8,3.2,1.8,4.5,3c0.5,0.5,1,1.1,1.4,1.7c0,0.1,0.1,0.3,0.2,0.4
		c0.3,0.4,0.5,0.9,0.7,1.3c0.1,0.3,0.2,0.6,0.4,0.9l0.3,1c0.9,2.7,1.6,5.5,2.2,8.3c0.4,1.8,0.7,3.7,1,5.7c0.2,0.8,0.3,1.6,0.4,2.5
		c0.3,2.1,0.5,4.2,0.8,6.4c0.1,1.2,0.3,2.5,0.4,3.8c0.2,1.3,0.2,2.6,0.4,3.9c3.2,37.9,2.2,91.7,3.8,95.9c2.3,6,7.5,41.9,6,47.1
		c-1.5,5.2-11.2,43.4-15,50.1c-3.7,6.8-1.5,35.2-4.5,40.4c-1.7,3-4.1,8.3-6.8,12.4c-0.1,0.1-0.2,0.2-0.2,0.3
		c-0.3,0.4-0.6,0.9-0.9,1.2c-0.2,0.2-0.4,0.5-0.6,0.7c236.4,53.4,405.4,125.6,405.4,125.6l0.1,25.5l-2999.5-2.8v3.4
		c295.6,4.5,495.2-19.8,530.7-18.5C523.2,3229.9,524.1,3212.8,521.6,3208.3z M1363.3,3023.5c0,0-5,23.8-1.1,40.5
		C1366.1,3080.8,1367.8,3034.4,1363.3,3023.5L1363.3,3023.5z M2599.9,2963.8c7.4-31.8-2.2-76.7-2.2-76.7
		C2589.3,2907.8,2592.5,2995.6,2599.9,2963.8L2599.9,2963.8z M2565.7,3099.8c1.2-1.5,2.5-3.1,3.8-4.8h0.1c4-5.3,7.9-11.1,8.3-14.6
		c0.8-7.5,5.2-65.1,0.8-69.6c-4.5-4.5-16.5-27.7-23.2-30.7c-0.3-0.2-0.7-0.3-1-0.3c-4.3,0.3,5.4,22.3,3.3,27.2
		c-2.3,5.2-18.7,28.5-21.7,48.7s-6.8,30.7-12,32.2c-0.8,0.2-1.4,0.6-1.9,1.2c-0.4,0.4-0.7,0.9-0.9,1.3
		C2536.2,3093.5,2551,3096.6,2565.7,3099.8L2565.7,3099.8z M2499.9,3086.4c0.2-0.3,0.4-0.6,0.5-0.9c2.6-3.7,28-24.3,24.8-61.3
		c-2.4-28.9-11.7-44.3-32.6-44.3c-6.9,0.2-13.8,1.4-20.3,3.6c-35.5,11.1-37.6,27.5-44.4,28c-6.9,0.5-4.8-15.3-10.6-17.4
		c-5.8-2.2-79.9-22.2-82.5-4.3c-1.7,11.7-2.6,46.9-3.8,71.1C2389.2,3067.4,2445.8,3076.2,2499.9,3086.4L2499.9,3086.4z
		 M2312.6,3058.9c0.2-1.3,0.4-2.7,0.5-4.1c1-14.8,0-28-4.2-28c-2.8,0-2.9,15.3-3.9,31.3C2307.5,3058.4,2310.1,3058.6,2312.6,3058.9
		L2312.6,3058.9z M1924.6,2983c5.8-25.1-1.7-60.6-1.7-60.6C1916.3,2938.7,1918.7,3008.1,1924.6,2983z M1908.3,3060.5
		c1-15.6,1.9-38-0.5-40.4c-3.6-3.6-13-21.9-18.4-24.2c-0.2-0.1-0.5-0.2-0.8-0.2c-0.6,0.1-0.9,0.7-0.9,1.7c0,4.5,4.9,16.6,3.5,19.8
		c-1.8,4.2-14.8,22.5-17.2,38.4c-0.4,3.2-1,6-1.5,8.6C1884.6,3062.8,1896.5,3061.6,1908.3,3060.5L1908.3,3060.5z M1856.8,3065.9
		c6.9-10.4,10-22.8,8.8-35.2c-0.4-7-1.9-14-4.5-20.5c-3.6,2.9-9.4,6.8-13.9,5.3c-6.9-2.2-5.6,5.7-8.6,5.7c-3.1,0,3.5-6.5,0.9-8.3
		c-2.6-1.7-3.9,5.2-7,3.9c-3-1.3,6.1-6.5,3.5-7.3c-2.7-0.9,1.7,3.9-10,4.3c-8.2,0.3-11.2-7-12.4-11.4c-12.9,6.4-21.3,5.7-33.3,4.5
		c-3.2-1.2-31.9-9-50.1-9.2c-8.3-0.1-14.5,1.4-15.1,5.9c-2.1,14.2-2.5,73.2-5,75.2c-0.8,0.7-2.2,2.1-3.8,3.6
		c-1.1,1.1-2.3,2.1-3.4,3.2C1755.3,3078.1,1806.8,3071.4,1856.8,3065.9L1856.8,3065.9z M1698,3054.9c0.8-11.7,0-22.1-3.3-22.1
		s-1.7,27.6-5.5,43C1689.2,3075.8,1697.1,3066.6,1698,3054.9L1698,3054.9z M1513.8,3112.1c0.1,0.9,0.2,1.7,0.3,2.6
		c1.3-0.2,2.7-0.4,4-0.6c-0.5-8.5-0.6-16.7-2.1-16.7C1513.8,3097.3,1513.2,3104.3,1513.8,3112.1L1513.8,3112.1z M1416.1,3131
		c29.4-5,58.8-9.9,88.2-14.7c-0.7-12.8-1.2-32.2-2.1-38.6c-0.4-3-4.6-4-10.1-3.9c-12.3,0.1-31.4,5.4-33.5,6.2
		c-8,0.8-13.6,1.3-22.2-3c-0.8,3-2.8,7.8-8.3,7.6c-7.8-0.3-5-3.5-6.7-2.9s4.4,4.1,2.3,5s-2.9-3.8-4.6-2.7c-1.7,1.2,2.6,5.5,0.6,5.5
		c-2.1,0-1.1-5.2-5.8-3.8c-3,1-6.9-1.6-9.3-3.6c-1.7,4.4-2.7,9-3,13.7c-1.7,19.6,11.7,30.5,13.1,32.5
		C1415.3,3129.2,1415.7,3130.1,1416.1,3131L1416.1,3131z M1373.8,3125.6c0.2,1.8,2.2,4.9,4.4,7.7c0.6,0.9,1.3,1.6,1.9,2.4
		c0.5,0.6,0.6,0.8,1,1.2c7.8-1.3,15.5-2.7,23.3-3.9c0-1-0.4-1.9-1-2.7v-0.1c-0.3-0.3-0.7-0.5-1.1-0.6c-2.8-0.8-4.8-6.3-6.3-17
		c-1.6-10.7-10.3-23-11.4-25.7c-1.1-2.6,4-14.3,1.7-14.4c-0.2,0-0.4,0-0.5,0.1c-3.6,1.6-9.9,13.9-12.3,16.3
		C1371,3091.2,1373.4,3121.6,1373.8,3125.6L1373.8,3125.6z M749.2,3212.3c0.6,6.2,2.8,12.2,6.3,17.4l1.8-0.2
		c-2.8-15.8-1.6-39.5-4.7-39.5C749.2,3190.1,748.3,3200.6,749.2,3212.3L749.2,3212.3z M602.1,3238.3c42.1-0.5,86.9-3,133.9-6.9
		c-1.6-14.3-2.2-58.5-4-70.6c-0.6-4.4-6.9-5.9-15.1-5.8c-18.3,0.2-46.9,8-50.1,9.2c-11.9,1.1-20.4,1.9-33.3-4.5
		c-1.1,4.4-4.2,11.7-12.4,11.4c-11.7-0.4-7.3-5.2-9.9-4.3s6.5,6,3.5,7.3s-4.3-5.6-6.9-3.9s3.9,8.2,0.9,8.2s-1.7-7.8-8.6-5.6
		c-4.6,1.4-10.4-2.5-14-5.4c-2.6,6.6-4.1,13.5-4.5,20.6c-2.5,29.3,17.5,45.6,19.7,48.5C601.5,3237.1,601.8,3237.7,602.1,3238.3
		L602.1,3238.3z M539.9,3232.5c0.4,1.9,1.2,3.7,2.3,5.3c13.5,0.3,26.9,0.5,40.3,0.5c-4.1-1.2-7.1-9.5-9.5-25.4s-15.3-34.3-17.1-38.4
		c-1.7-3.9,6-21.3,2.6-21.5c-0.3,0-0.6,0-0.8,0.2c-5.3,2.4-14.8,20.7-18.4,24.2C535.8,3181,539.3,3226.6,539.9,3232.5L539.9,3232.5z
		 M524.2,3079.8c0,0-7.6,35.6-1.7,60.6C528.4,3165.5,530.8,3096,524.2,3079.8L524.2,3079.8z"/>
	<g id="Group_1259" transform="translate(-277.121 2759.562)">
		<g id="Group_1258">
			<path id="Path_2032" class="st0" d="M1262.8,181.2c5.2-3.8,10.9-6.7,17-8.8c6.4-2.4,13.3-3,20-1.8c3.6,0.7,7,2.4,9.9,4.7
				c2.9,2.4,5.2,5.3,6.8,8.7c0.4,0.8,0.7,1.6,1.1,2.5l0.5,1.2l0.4,1.2l0.7,2.5l0.5,2.5c0.3,1.7,0.6,3.3,0.7,5c0,0.4,0.1,0.8,0.1,1.3
				v1.4c0,1,0,1.9-0.1,2.8c-0.4,3.8-1.8,7.4-3.9,10.6c-2,2.9-4.5,5.6-7.3,7.8c-2.7,2.1-5.5,3.9-8.6,5.4c-1.5,0.8-3,1.4-4.5,2.1
				c-1.5,0.6-3,1.2-4.6,1.7c-6.1,2.1-12.3,3.7-18.7,4.6c-6.3,1-12.6,1.5-19,1.4c6.1-1.7,12.1-3.5,18-5.5c5.8-1.9,11.6-4.2,17.1-6.8
				c2.7-1.3,5.4-2.7,7.9-4.2s4.8-3.2,7-5c4.2-3.7,7.4-8.1,7.8-13c0.1-0.6,0.1-1.2,0.1-1.8v-0.9c0-0.3-0.1-0.7-0.1-1.1
				c-0.2-1.4-0.2-2.9-0.5-4.3l-0.3-2.1l-0.5-2l-0.3-1l-0.4-1c-0.3-0.6-0.4-1.3-0.7-1.9c-1-2.4-2.5-4.6-4.3-6.4
				c-1.9-1.8-4.2-3.1-6.7-3.9c-5.2-1.7-11.3-1.5-17.2-0.6C1274.7,177.5,1268.7,179.1,1262.8,181.2z"/>
			<path id="Path_2033" class="st0" d="M1258.7,177.1c-3.6-4.9-7.5-9.5-11.7-13.8c-2-2.1-4.2-4-6.6-5.7c-2-1.6-4.5-2.7-7-3.2
				c-2.1-0.2-4.2,0.7-5.5,2.3c-1.8,2.1-3.2,4.3-4.3,6.8c-7.1,15.9-7,34.1,0.3,49.8c2.7,5.2,6.2,9.8,10.5,13.7
				c4.5,4,9.5,7.4,14.8,10.2c-6.1-1.4-11.8-3.9-17-7.4c-2.6-1.8-5.1-3.9-7.3-6.1c-2.2-2.3-4.2-4.9-5.9-7.6c-3.4-5.5-5.8-11.6-6.9-18
				c-1.1-6.3-1.3-12.8-0.4-19.2c0.8-6.4,2.8-12.7,5.7-18.5c1.5-3,3.5-5.8,5.9-8.2c1.4-1.4,3.1-2.5,5-3.1s4-0.7,6-0.3
				c3.4,0.9,6.5,2.6,9.1,5c2.3,2.2,4.4,4.6,6.3,7.1C1253.3,166,1256.3,171.4,1258.7,177.1z"/>
		</g>
	</g>
</g>
</svg>
