<?xml version="1.0" encoding="utf-8"?>
<!-- Generator: Adobe Illustrator 23.0.0, SVG Export Plug-In . SVG Version: 6.00 Build 0)  -->
<svg version="1.1" id="Layer_1" xmlns="http://www.w3.org/2000/svg" xmlns:xlink="http://www.w3.org/1999/xlink" x="0px" y="0px"
	 viewBox="0 0 757 578.4" style="enable-background:new 0 0 757 578.4;" xml:space="preserve">
<style type="text/css">
	.st0{opacity:0.3;fill:url(#Path_66_1_);enable-background:new    ;}
	.st1{opacity:0.3;fill:url(#Path_67_1_);enable-background:new    ;}
	.st2{opacity:0.3;fill:url(#Path_68_1_);enable-background:new    ;}
	.st3{fill:#01135D;}
</style>
<g id="Group_6478" transform="translate(-1162.87 -3926.057)">
	<g id="Group_75" transform="translate(1331 3926.057)">
		
			<radialGradient id="Path_66_1_" cx="137.0562" cy="364.9807" r="0.5" gradientTransform="matrix(-443.051 0 0 -443.051 60944.3828 161928.625)" gradientUnits="userSpaceOnUse">
			<stop  offset="0.734" style="stop-color:#FCEE21"/>
			<stop  offset="1" style="stop-color:#FFFFFF"/>
		</radialGradient>
		<path id="Path_66" class="st0" d="M0,223.5c0,122.3,99.2,221.5,221.5,221.5s221.5-99.2,221.5-221.5S343.9,2,221.5,2
			S0,101.2,0,223.5z"/>
		
			<radialGradient id="Path_67_1_" cx="137.4679" cy="365.2693" r="0.5" gradientTransform="matrix(-276.8961 0 0 -276.896 38285.8398 101363.0859)" gradientUnits="userSpaceOnUse">
			<stop  offset="0.541" style="stop-color:#FCEE21"/>
			<stop  offset="0.976" style="stop-color:#FFFFFF"/>
		</radialGradient>
		<path id="Path_67" class="st1" d="M83.1,221.5c0,76.5,62,138.4,138.4,138.4S360,298,360,221.5S298,83,221.5,83
			S83.1,145,83.1,221.5L83.1,221.5z"/>
		
			<radialGradient id="Path_68_1_" cx="138.4798" cy="365.9782" r="0.5" gradientTransform="matrix(-144.092 0 0 -144.092 20176.1035 52956.0391)" gradientUnits="userSpaceOnUse">
			<stop  offset="0.488" style="stop-color:#FCEE21"/>
			<stop  offset="0.961" style="stop-color:#FFFFFF"/>
		</radialGradient>
		<path id="Path_68" class="st2" d="M150.2,221.5c0,39.8,32.3,72,72,72c39.8,0,72-32.3,72-72s-32.3-72-72-72c0,0,0,0,0,0
			C182.5,149.5,150.2,181.7,150.2,221.5C150.2,221.5,150.2,221.5,150.2,221.5z"/>
	</g>
	<g id="Group_13" transform="translate(0 4082.5)">
		<g id="Group_12" transform="translate(1162.871 0)">
			<g id="Group_11">
				<path id="Path_13" class="st3" d="M757,422.9l0-13.5c-0.1-17.7-0.6-45.9-2.9-74.9h2.9v-57.1h-10.4c-1.8-9.4-4.5-18.5-7.8-27.5
					c2.5-0.6,5-1.3,7.3-2.3c3.4,2.3,7.1,4.1,10.9,5.5V47c-25.2-1.8-90.7-7.1-147.4-14.2c-58.5-7.3-48.9-6.7-85.1,2.9
					c-36.1,9.6-65.2-0.5-65.2-0.5c0.9-1.1,1.3-3.9,1.3-3.9C444.8,21,430.3,28,430.3,28c-10.2-1.2-19.9-5.4-27.7-12.1
					c0,0,0.6-2.6-1.3-6.7c-1.9-4.1-9.1-5.6-12.8-6.9c-3.7-1.3-5.2,3.5-10.4,12.8c-5.2,9.3-14.5,13.9-23.8,19.1s-6.7,16.7-6.9,17.5
					c-0.2,0.9-16.4,21.6-24.9,34c-8.4,12.3-18.3,17.5-21.5,23.3c-3.2,5.8,7,16.3,9.9,17.8c2.9,1.5,6.1,5.2,17.3,5.5
					s2.5-6.4,24.3-5.1c21.8,1.3,61.2-5.9,61.2-5.9c10.4-1.7,43.3,36.7,46.6,42.6c1.2,2.1,2.8,5.6,4.5,9.5l-137.9,6v-9.9
					c0-13-10.3-24.1-23.3-24.1c-12.9-0.1-23.5,10.4-23.5,23.4c0,0,0,0.1,0,0.1v12.6l-32.4,1.4v44.3l32.4-0.7v51.1h-32.4v57.1h32.4
					v37.2c-1.8-14.6-5.5-29.8-12.9-35.7c0,0,6.3,10.8,9.1,39.5c-1.8-6-4.3-11.7-7.4-17.2c-5.8-10.5-14-19.4-21.7-24
					c-7.7-4.7-14.8-5.1-17-1.8c-0.1,0.1,2.6-2,12.6,3.9c5,3.1,11.9,8.7,18.9,19.3c7.1,11,11.4,23.5,12.7,36.6
					c-1-1.7-2.2-3.3-3.5-4.9c-6.5-8.6-18.1-17.3-31.1-21.4c-12.8-4.3-26.9-4.1-36.3-0.1c-9.2,3.5-13.9,10.5-12.4,13.6
					c0.4-0.7,0.9-1.4,1.5-2c2.6-3,6-5.4,9.7-6.8c6-2.4,15.9-4.8,29.8-1.9c12.4,2.9,28.2,10.2,40,30.7L0,424.9L757,422.9z
					 M542.1,254.6c0,0-0.6,11.2-2,22.8H326.9v-52.1l168.5-3.4c3,4.9,6.2,10.3,9.6,16.5C521.1,268.1,542.1,254.6,542.1,254.6z
					 M336.9,357.5c-7.6,6.1-9.5,26.3-9.9,38.2c0,0-0.1,0-0.1,0v-61.2h213.2c0,5.8-0.6,11.2-1.6,14.3c-2.4,7.3-3.1,16.5-5.2,22.9
					c-2.1,6.4-9.4,17-11.3,18.9c-0.3,0.3-0.9,0.8-1.6,1.5c-51-0.9-109.1-0.4-172.9,2.6c4.2-6.2,9.6-11.4,15.9-15.3
					c6-1,12.1-0.4,17.8,1.8c2.6,1,4.8,2.6,6.6,4.6c0.4,0.4,0.7,0.9,1,1.4c1.1-2.2-2.2-6.9-8.4-9.3c-3.2-1.3-6.6-2-10-2
					c2.9-1.2,5.8-2.1,8.9-2.8c12.2-2.5,20.8-0.4,26,1.7c3.3,1.2,6.2,3.3,8.5,5.9c0.5,0.5,0.9,1.1,1.3,1.8c1.4-2.8-2.8-8.8-10.8-11.9
					c-8.2-3.4-20.4-3.7-31.6,0.1c-4.7,1.5-9.3,3.7-13.5,6.4c-1.2,0.3-2.4,0.6-3.5,1c-4,1.3-7.9,3.2-11.4,5.6
					c1.9-7.8,5-15.2,9.4-21.9c1.4-2,2.8-4,4.4-5.9c3.1-1.1,4.2-0.6,4.2-0.5c-0.6-0.8-1.6-1.3-2.6-1.4c3-3.5,6.6-6.5,10.4-8.9
					c8.3-4.8,10.9-3.4,11-3.4c-1.9-2.9-8.2-2.6-14.8,1.6c-5,3.2-9.4,7.3-13,12c-0.9,0.4-1.8,0.9-2.6,1.4c-2.7,1.7-5.2,3.8-7.4,6.2
					c2.5-12.9,5.6-18,5.6-18c-5.2,4.2-8.3,13.6-10.2,23.7c-1,1.5-2,3-2.8,4.5c-2.1,3.7-3.8,7.6-5,11.7
					C332.6,364.8,336.9,357.5,336.9,357.5z M337.3,377c-0.5,4.7-0.8,9.2-1,13.2c-0.7,0.8-1.3,1.5-1.9,2.3c-0.8,0.9-1.5,1.9-2.1,2.9
					l-0.2,0C332.8,389,334.5,382.8,337.3,377L337.3,377z M340.8,378.8c0.4-3.6,0.8-6.8,1.2-9.8c1.9-2.7,4.1-5.2,6.5-7.4
					c-0.5,0.8-0.9,1.5-1.3,2.3C344.6,368.6,342.4,373.6,340.8,378.8L340.8,378.8z M343.1,388.7c2.2-2,4.7-3.7,7.3-5.1
					c-1.8,1.7-3.5,3.5-5,5.5c-1.1,1.4-2.1,2.8-3,4.3C342.7,391.8,342.9,390.2,343.1,388.7L343.1,388.7z M556.9,389.2
					c-1.4,1.2-2.8,2.4-4.1,3.7c-1.7-0.1-3.5-0.1-5.2-0.2c0.8-3.4,3.1-7,4.5-7.8C554.3,383.8,558.8,387.5,556.9,389.2L556.9,389.2z
					 M571.6,350c-0.2,9.9-1.2,14.7-1.4,18.7c-0.2,4-6.9,14.5-9.5,14.9c-2.6,0.5-3.8-3.6-5.2-6.6s-1-23.2,0-38.6
					c0.1-1.3,0.2-2.6,0.4-3.8h15.4C571.7,339.6,571.8,344.8,571.6,350L571.6,350z M735,277.4H584.5c-0.2-11.3-1.7-29.2-1.7-29.2l3-7
					c23-12,52.9,0.4,52.9,0.4c43.2,13.4,73.5,12.8,90.6,10.3C731.7,260.2,733.6,268.8,735,277.4L735,277.4z M585.5,389.2
					c-2.1-5.7,1.2-15.8,1.2-15.8c11.8,4.5,9-6.8,4-17.2c-2-4.3-3.7-12.6-4.8-21.6h58.3c2,3.5,4.7,11,6.8,26.5
					c-1.3-0.3-2.6-0.4-3.9-0.4c-1.6-2.3-3.4-3.7-5.7-3.7c0,0,1.2,0.6,2.8,4.3c-0.6,0.2-1.1,0.7-1.3,1.3c0.5-0.1,1.1-0.2,1.6-0.2h0.2
					c0.6,1.6,1.1,3.3,1.5,4.9c-7.5-4.3-15.4-6.6-22.1-6.7c-9.5-0.4-16.4,4-16.2,7.4c0.7-0.5,1.4-0.9,2.1-1.2
					c3.5-1.7,7.4-2.5,11.2-2.3c6.1,0.1,15.4,1.7,26.3,9.1c1,5.8,1.8,11.7,2.2,17.6c-0.5-1.5-1-2.9-1.7-4.3c-3-6.5-8.2-11.8-13.1-14
					c-4.7-2.3-9.1-1.6-9.7,0.2c0.4-0.1,0.9-0.2,1.3-0.2c2.1-0.1,4.2,0.3,6.1,1.3c3.1,1.4,7.6,4.4,11.6,10.8
					c2.3,3.9,3.8,8.3,4.2,12.8l-0.4,0c-3-5.6-7-10.5-11.7-14.7c-8-7.2-18.5-11.5-26.6-11.5c-7.9-0.3-13.6,3.3-13.4,6.1
					c0.5-0.4,1.1-0.7,1.7-1c2.9-1.4,6.1-2.1,9.3-1.9c5.2,0.1,13.2,1.5,22.5,8c5.4,3.9,9.9,8.9,13.3,14.7c-17.5-1.2-36.9-2.4-58-3.3
					C586,392.6,586.2,390.8,585.5,389.2z M647.4,334.5h24.4c1.8,8.7,3.4,20.7,4.6,37.3c-2.2-15.6-6.2-28.7-13.9-28.7
					c0,0,4,2,7.3,19.1c-2.5,0.6-4.5,3.2-6,7c-2-2.2-4.4-4.1-7-5.7C655,350.8,652,339.7,647.4,334.5z M652.6,377.5
					c0.1,1,0.2,2.1,0.2,3.2c-0.2-1.2-0.3-2.3-0.5-3.4C652.4,377.4,652.5,377.4,652.6,377.5L652.6,377.5z M658.3,376.5
					c-0.3-3.1-0.6-6.2-1-9.2c2,1.5,3.7,3.3,5.3,5.2c-0.6,2.2-1.2,4.5-1.6,6.8C660.2,378.3,659.3,377.3,658.3,376.5L658.3,376.5z
					 M660.1,385.4c-0.3,2.2-0.5,4.4-0.7,6.7c-0.1-2.7-0.3-5.4-0.5-8.1C659.3,384.4,659.7,384.9,660.1,385.4L660.1,385.4z
					 M663.5,390.2c0.2,0.3,0.4,0.7,0.6,1c-0.3,0.8-0.6,1.6-0.9,2.5C663.3,392.4,663.4,391.3,663.5,390.2L663.5,390.2z M664.3,383
					c0.4-2.6,0.7-4.8,1.1-6.8c0.2,0.3,0.3,0.5,0.5,0.8c1.1,2,2.1,4,2.9,6.2c-0.8,1-1.5,2-2.2,3C665.9,385.1,665.1,384,664.3,383
					L664.3,383z M665.6,393.9c0.4,0.8,0.8,1.6,1.2,2.4c-0.6,0.9-1.1,1.8-1.7,2.8c-0.2,0-0.4,0-0.7-0.1
					C664.7,397.3,665.1,395.6,665.6,393.9L665.6,393.9z M671.2,380.6c-0.2-0.5-0.4-0.9-0.6-1.4c-1.2-2.5-2.6-4.9-4.3-7.1
					c1.4-5.4,2.8-8,3.7-9.2c0.8,4.5,1.6,10,2.3,16.8C671.9,380,671.5,380.3,671.2,380.6L671.2,380.6z M672.5,382.5
					c0.1,0.7,0.1,1.3,0.2,2c-0.2-0.5-0.4-1.1-0.5-1.6C672.2,382.8,672.3,382.7,672.5,382.5L672.5,382.5z M670.9,390.9
					c-0.2,0.3-0.5,0.6-0.7,0.9c-0.7-1.2-1.3-2.3-2.1-3.5c0.1-0.1,0.2-0.3,0.2-0.4c0.5-0.8,1-1.5,1.4-2.1
					C670.2,387.4,670.6,389.2,670.9,390.9L670.9,390.9z M652.1,371.2c-0.4-0.3-0.8-0.6-1.2-0.9c-0.6-2.6-1.5-5.2-2.7-7.6
					c1,0.2,2.1,0.6,3,1C651.6,366,651.8,368.5,652.1,371.2L652.1,371.2z M735.2,365.4c-0.5,0-1,0-1.5,0c-5.7,0.2-11.2,1.6-16.3,4.1
					c-0.5-0.8-1-1.6-1.6-2.4c0.2,0,0.4,0,0.6,0.1c-0.3-0.6-0.9-1.1-1.5-1.3c-1.5-1.9-3.4-3.5-5.5-4.8c1,1.4,1.8,2.8,2.5,4.3
					c-2.2,0.1-4.4,0.6-6.4,1.6c-4.3,2.1-8,5.2-10.8,9.1c-1.6,0.4-3.2,0.8-4.8,1.4c3.1-25.8,8.4-28.4,8.4-28.4
					c-7.1,0-10.9,12.4-12.9,27.1c-0.5-0.3-1-0.6-1.6-0.7c-1-14.3-2.7-29.2-5.7-41.1h54.2C733.4,343.2,734.4,353.4,735.2,365.4
					L735.2,365.4z M684,380.1c-0.1-1.1-0.1-2.3-0.2-3.4c0.3,0,0.6,0,0.9,0c0.2,0,0.4,0,0.6,0c-0.1,0.9-0.2,1.9-0.3,2.9
					C684.6,379.8,684.3,380,684,380.1L684,380.1z M684.5,383.9c0,0.5-0.1,1.1-0.1,1.6c0-0.5-0.1-1-0.1-1.5
					C684.3,384,684.4,384,684.5,383.9L684.5,383.9z M720.5,396.9c-1.6-7.7-4.5-15.1-9.3-19.1c1.6-1.1,3.1-2,4.6-2.9
					C718,382.2,719.5,389.5,720.5,396.9L720.5,396.9z M719.3,373.1c4.2-2,8.7-3.3,13.3-3.9c-3.9,6.2-6.2,14.5-7.7,22.7
					C723.9,385.5,722,379.1,719.3,373.1L719.3,373.1z M700.2,375.4c-0.5,0-1,0-1.5,0.1c2.6-3,5.7-5.4,9.3-7.1
					c1.5-0.7,3.1-1.1,4.7-1.3c0.5,1.1,1.1,2.4,1.6,3.9c-2.8,1.5-5.4,3.2-7.8,5.1C704.4,375.6,702.3,375.3,700.2,375.4L700.2,375.4z
					 M703.8,378.4c-0.1,0.1-0.2,0.2-0.3,0.3c-0.1-0.1-0.2-0.2-0.3-0.3C703.4,378.4,703.6,378.4,703.8,378.4L703.8,378.4z
					 M711.9,399.4c-1.1-6.2-2.9-12.5-5.9-17.3c1-1,2.1-1.9,3.1-2.7c0.7,0.3,1.3,0.5,1.8,0.7l0.1,0c1.3,3.3,2.3,6.7,3.1,10.2
					C715.4,396.9,714.8,398.1,711.9,399.4L711.9,399.4z M708.5,403.2c-1.3-6.3-3.7-12.3-8-15.1c1.1-1.4,2.3-2.7,3.5-4
					C706.3,390.2,707.8,396.7,708.5,403.2L708.5,403.2z M704.6,402.8c-3.7-0.4-7.6-0.8-11.7-1.2c1.8-4.8,4.4-9.3,7.5-13.3
					C701.2,389.7,703.2,394.2,704.6,402.8L704.6,402.8z M690.2,395.8c0.4-5.4,2-10.7,4.8-15.4c0.3-0.4,0.5-0.9,0.8-1.3
					c1.9-0.4,3.8-0.7,5.7-0.8c0.2,0.4,0.4,0.9,0.7,1.4C697.4,384.4,693.3,389.8,690.2,395.8L690.2,395.8z M688.8,387.4
					c0.2-2.1,0.4-4.2,0.6-6.1c0.8-0.4,1.7-0.7,2.5-1c-0.4,0.7-0.8,1.5-1.1,2.2C690,384.2,689.4,385.8,688.8,387.4L688.8,387.4z
					 M736,380.6c-3.3,4.2-5.4,10.2-6.7,16.4c1-8.9,3.1-17.7,6.2-26.1C735.7,374,735.9,377.2,736,380.6L736,380.6z M736.8,406.5
					c-1.1-0.1-2.3-0.3-3.5-0.5c0.5-6.2,1.5-12.3,3-18.4C736.6,393.6,736.7,399.9,736.8,406.5L736.8,406.5z M741.4,335l-0.1-0.5h0
					C741.4,334.6,741.4,334.8,741.4,335L741.4,335z"/>
			</g>
		</g>
	</g>
</g>
</svg>
