<?xml version="1.0" encoding="utf-8"?>
<!-- Generator: Adobe Illustrator 23.0.0, SVG Export Plug-In . SVG Version: 6.00 Build 0)  -->
<svg version="1.1" id="Layer_1" xmlns="http://www.w3.org/2000/svg" xmlns:xlink="http://www.w3.org/1999/xlink" x="0px" y="0px"
	 viewBox="0 0 613.8 342.9" style="enable-background:new 0 0 613.8 342.9;" xml:space="preserve">
<style type="text/css">
	.st0{fill:#01135D;}
</style>
<g id="Group_13" transform="translate(-1162.871)">
	<g id="Group_12" transform="translate(1162.871 0)">
		<g id="Group_11">
			<path id="Path_13" class="st0" d="M613.8,342.9l0-12.6c0-14.3-0.5-37.2-2.3-60.7h2.3v-46.3h-8.5c-1.5-7.6-3.6-15-6.4-22.3
				c2-0.5,4-1.1,5.9-1.9c2.8,1.9,5.7,3.4,8.9,4.5V36.5c-20.4-1.4-73.5-5.8-119.5-11.5c-47.4-6-39.7-5.4-69,2.3s-52.9-0.4-52.9-0.4
				c0.5-1,0.9-2.1,1.1-3.2c-7.3-4.9-16.4-5.9-24.6-2.6c-8.3-0.9-16.1-4.4-22.5-9.8c0,0,0.5-2.1-1.1-5.4c-1.6-3.3-7.4-4.6-10.4-5.6
				c-3-1.1-4.2,2.8-8.4,10.4c-4.2,7.6-11.8,11.2-19.3,15.5s-5.4,13.5-5.6,14.2s-13.3,17.5-20.2,27.6S246.7,82,244.1,86.6
				c-2.6,4.7,5.7,13.2,8,14.5c2.3,1.2,4.9,4.2,14,4.5s2.1-5.2,19.7-4.1s49.6-4.8,49.6-4.8c8.4-1.4,35.1,29.8,37.8,34.6
				c1,1.7,2.3,4.6,3.7,7.7l-111.8,4.8v-8c0-10.6-8.4-19.5-18.9-19.6c-10.5,0-19,8.4-19.1,18.9c0,0,0,0,0,0.1v10.2l-26.2,1.1v35.9
				l26.2-0.5v41.4h-26.2v46.3h26.2v30.2c-1.5-11.9-4.4-24.2-10.5-29c0,0,5.1,8.7,7.4,32c-1.5-4.8-3.5-9.5-6-13.9
				c-4.7-8.5-11.4-15.7-17.6-19.5c-6.2-3.8-12-4.2-13.8-1.5c-0.1,0.1,2.1-1.6,10.2,3.1c4,2.5,9.6,7,15.3,15.6
				c5.7,8.9,9.3,19.1,10.3,29.6c-0.8-1.4-1.8-2.7-2.8-4c-5.3-7-14.7-14.1-25.2-17.4c-10.4-3.5-21.8-3.3-29.4-0.1
				c-7.4,2.9-11.3,8.5-10,11.1c0.4-0.6,0.8-1.1,1.2-1.6c2.1-2.5,4.8-4.4,7.9-5.5c4.8-2,12.9-3.9,24.2-1.6
				c10.1,2.3,22.9,8.3,32.5,24.9L0,342.9L613.8,342.9z M439.5,204.8c0,0-0.5,9.1-1.6,18.5H265.1v-42.2l136.6-2.8
				c2.4,3.9,5,8.4,7.8,13.4C422.5,215.7,439.5,204.8,439.5,204.8z M273.2,288.2c-6.2,4.9-7.7,21.3-8,31c0,0,0,0-0.1,0v-49.6h172.8
				c0.1,3.9-0.4,7.8-1.3,11.6c-1.9,5.9-2.5,13.4-4.2,18.6s-7.7,13.8-9.2,15.3c-0.2,0.2-0.7,0.6-1.3,1.2
				c-41.4-0.7-88.4-0.3-140.2,2.1c3.4-5,7.8-9.2,12.9-12.4c4.8-0.8,9.8-0.3,14.4,1.4c2.1,0.8,3.9,2.1,5.4,3.8
				c0.3,0.3,0.6,0.7,0.8,1.1c0.9-1.8-1.8-5.6-6.8-7.6c-2.6-1-5.3-1.6-8.1-1.7c2.3-1,4.7-1.7,7.2-2.3c9.9-2,16.8-0.4,21.1,1.4
				c2.7,1,5,2.7,6.9,4.8c0.4,0.4,0.8,0.9,1.1,1.4c1.1-2.2-2.2-7.2-8.7-9.7c-6.6-2.8-16.6-3-25.6,0.1c-3.9,1.2-7.5,3-10.9,5.2
				c-1,0.2-1.9,0.5-2.9,0.8c-3.3,1.1-6.4,2.6-9.2,4.5c1.5-6.3,4.1-12.3,7.6-17.7c1.1-1.7,2.3-3.3,3.5-4.8c2.5-0.9,3.4-0.5,3.4-0.4
				c-0.5-0.7-1.3-1.1-2.1-1.1c2.5-2.8,5.3-5.2,8.5-7.2c6.8-3.9,8.8-2.8,8.9-2.7c-1.6-2.4-6.6-2.1-12,1.3c-4.1,2.6-7.6,5.9-10.6,9.7
				c-0.7,0.3-1.4,0.7-2.1,1.1c-2.2,1.4-4.2,3.1-6,5c2.1-10.4,4.5-14.6,4.5-14.6c-4.3,3.4-6.8,11-8.2,19.3c-0.8,1.2-1.6,2.4-2.3,3.7
				c-1.7,3-3.1,6.2-4.1,9.5C269.7,294.2,273.2,288.2,273.2,288.2z M273.5,304.1c-0.4,3.8-0.7,7.5-0.8,10.7c-0.5,0.6-1.1,1.2-1.5,1.8
				c-0.6,0.8-1.2,1.6-1.7,2.4l-0.2,0C269.8,313.8,271.2,308.8,273.5,304.1L273.5,304.1z M276.3,305.5c0.3-2.9,0.6-5.6,1-8
				c1.6-2.2,3.3-4.2,5.3-6c-0.4,0.6-0.7,1.2-1.1,1.9C279.4,297.2,277.6,301.3,276.3,305.5L276.3,305.5z M278.2,313.5
				c1.8-1.6,3.8-3,5.9-4.1c-1.5,1.4-2.8,2.9-4,4.5c-0.9,1.1-1.7,2.3-2.4,3.5C277.8,316,278,314.7,278.2,313.5L278.2,313.5z
				 M451.6,313.9c-1.2,0.9-2.3,1.9-3.3,3c-1.4,0-2.8-0.1-4.2-0.1c0.7-2.8,2.5-5.7,3.7-6.3C449.4,309.5,453.1,312.6,451.6,313.9
				L451.6,313.9z M463.5,282.1c-0.2,8-1,11.9-1.2,15.2s-5.6,11.7-7.7,12.1c-2.1,0.4-3.1-2.9-4.2-5.4s-0.8-18.8,0-31.3
				c0.1-1.1,0.2-2.1,0.3-3.1h12.5C463.5,273.8,463.6,277.9,463.5,282.1L463.5,282.1z M595.9,223.3h-122c-0.2-9.2-1.4-23.7-1.4-23.7
				l2.4-5.7c18.6-9.7,42.9,0.3,42.9,0.3c35,10.9,59.6,10.4,73.5,8.3C593.2,209.4,594.8,216.3,595.9,223.3L595.9,223.3z M474.7,313.9
				c-1.7-4.6,1-12.8,1-12.8c9.6,3.6,7.3-5.5,3.2-14c-1.6-3.5-3-10.2-3.9-17.5h47.2c1.6,2.9,3.8,8.9,5.5,21.5c-1-0.2-2.1-0.4-3.2-0.3
				c-1.3-1.9-2.8-3-4.6-3c0,0,1,0.5,2.3,3.5c-0.5,0.2-0.9,0.6-1.1,1.1c0.4-0.1,0.9-0.1,1.3-0.1h0.2c0.5,1.3,0.9,2.6,1.3,4
				c-6.1-3.5-12.5-5.4-17.9-5.4c-7.7-0.3-13.3,3.2-13.2,6c0.5-0.4,1.1-0.7,1.7-1c2.8-1.4,6-2,9.1-1.9c4.9,0.1,12.5,1.4,21.3,7.4
				c0.8,4.7,1.4,9.5,1.8,14.3c-0.4-1.2-0.8-2.4-1.4-3.5c-2.4-5.3-6.7-9.6-10.6-11.3c-3.8-1.8-7.4-1.3-7.9,0.2
				c0.4-0.1,0.7-0.1,1.1-0.1c1.7-0.1,3.4,0.3,5,1c3.9,1.9,7.2,4.9,9.4,8.7c1.9,3.2,3.1,6.7,3.4,10.4l-0.3,0
				c-2.4-4.5-5.6-8.6-9.5-11.9c-6.5-5.9-15-9.3-21.6-9.4c-6.4-0.3-11,2.7-10.9,5c0.4-0.3,0.9-0.6,1.4-0.8c2.3-1.1,4.9-1.7,7.5-1.6
				c4.2,0.1,10.7,1.2,18.2,6.5c4.4,3.2,8,7.2,10.7,11.9c-14.2-1-29.9-1.9-47.1-2.7C475.1,316.7,475.3,315.2,474.7,313.9L474.7,313.9
				z M524.9,269.6h19.8c1.9,10,3.1,20.1,3.7,30.2c-1.7-12.7-5.1-23.3-11.2-23.3c0,0,3.3,1.6,5.9,15.5c-2,0.5-3.6,2.6-4.9,5.7
				c-1.6-1.8-3.5-3.4-5.6-4.6C531,282.8,528.7,273.8,524.9,269.6L524.9,269.6z M529.2,304.5c0.1,0.8,0.1,1.7,0.2,2.6
				c-0.1-0.9-0.3-1.9-0.4-2.8C529,304.3,529.1,304.4,529.2,304.5L529.2,304.5z M533.8,303.6c-0.2-2.5-0.5-5-0.8-7.5
				c1.6,1.2,3,2.6,4.3,4.2c-0.5,1.8-1,3.7-1.3,5.5C535.3,305.1,534.5,304.3,533.8,303.6L533.8,303.6z M535.2,310.9
				c-0.2,1.8-0.4,3.6-0.6,5.4c-0.1-2.2-0.2-4.4-0.4-6.6C534.6,310.1,534.9,310.5,535.2,310.9L535.2,310.9z M537.9,314.7
				c0.2,0.3,0.3,0.5,0.5,0.8c-0.3,0.7-0.5,1.3-0.7,2C537.8,316.6,537.9,315.6,537.9,314.7L537.9,314.7z M538.6,308.9
				c0.3-2.1,0.6-3.9,0.9-5.5c0.1,0.2,0.3,0.4,0.4,0.7c0.9,1.6,1.7,3.3,2.4,5c-0.6,0.8-1.2,1.6-1.8,2.5
				C539.9,310.6,539.3,309.8,538.6,308.9L538.6,308.9z M539.7,317.8c0.3,0.6,0.7,1.3,1,2c-0.5,0.7-0.9,1.5-1.4,2.3l-0.5,0
				C538.9,320.5,539.2,319.1,539.7,317.8L539.7,317.8z M544.2,307c-0.2-0.4-0.3-0.7-0.5-1.1c-0.9-2-2.1-4-3.5-5.8
				c1.1-4.4,2.2-6.5,3-7.5c0.7,3.7,1.3,8.1,1.8,13.6C544.7,306.5,544.5,306.7,544.2,307L544.2,307z M545.2,308.5
				c0,0.5,0.1,1.1,0.1,1.6c-0.1-0.4-0.3-0.9-0.4-1.3C545,308.7,545.1,308.6,545.2,308.5L545.2,308.5z M543.9,315.3
				c-0.2,0.2-0.4,0.5-0.6,0.7c-0.5-0.9-1.1-1.9-1.7-2.8c0.1-0.1,0.1-0.2,0.2-0.3c0.4-0.6,0.8-1.2,1.2-1.7
				C543.4,312.5,543.7,313.9,543.9,315.3L543.9,315.3z M528.7,299.3c-0.3-0.2-0.6-0.5-1-0.7c-0.5-2.1-1.2-4.2-2.2-6.1
				c0.8,0.2,1.7,0.5,2.5,0.8C528.3,295.1,528.5,297.2,528.7,299.3L528.7,299.3z M596.1,294.6c-0.4,0-0.8,0-1.2,0
				c-4.6,0.2-9.1,1.3-13.2,3.3c-0.4-0.7-0.8-1.3-1.3-1.9c0.2,0,0.3,0,0.5,0.1c-0.2-0.5-0.7-0.9-1.2-1.1c-1.2-1.5-2.7-2.9-4.4-3.9
				c0.8,1.1,1.5,2.3,2.1,3.5c-1.8,0-3.6,0.5-5.2,1.3c-3.5,1.7-6.5,4.3-8.7,7.4c-1.3,0.3-2.6,0.7-3.9,1.1c2.5-20.9,6.8-23,6.8-23
				c-5.8,0-8.9,10.1-10.5,22c-0.4-0.3-0.8-0.5-1.3-0.5c-0.8-11.6-2.2-23.7-4.7-33.3h44C594.6,276.7,595.4,285,596.1,294.6
				L596.1,294.6z M554.6,306.6c-0.1-0.9-0.1-1.8-0.2-2.7c0.3,0,0.5,0,0.7,0c0.2,0,0.3,0,0.5,0c-0.1,0.8-0.2,1.5-0.3,2.3
				C555.1,306.3,554.8,306.5,554.6,306.6L554.6,306.6z M554.9,309.7c0,0.4-0.1,0.9-0.1,1.3c0-0.4,0-0.8-0.1-1.2
				C554.8,309.7,554.9,309.7,554.9,309.7L554.9,309.7z M584.1,320.2c-1.3-6.2-3.6-12.2-7.5-15.5c1.3-0.9,2.5-1.6,3.7-2.3
				C582.1,308.3,583.4,314.2,584.1,320.2L584.1,320.2z M583.2,300.9c3.4-1.6,7-2.7,10.8-3.2c-3.1,5.1-5.1,11.8-6.2,18.4
				C586.9,310.9,585.4,305.8,583.2,300.9L583.2,300.9z M567.7,302.8c-0.4,0-0.8,0-1.2,0c2.1-2.4,4.6-4.4,7.5-5.7
				c1.2-0.6,2.5-0.9,3.8-1.1c0.4,0.9,0.9,2,1.3,3.2c-2.2,1.2-4.4,2.6-6.3,4.2C571.1,302.9,569.4,302.7,567.7,302.8L567.7,302.8z
				 M570.6,305.2c-0.1,0.1-0.2,0.1-0.2,0.2c-0.1-0.1-0.2-0.1-0.2-0.2C570.3,305.2,570.5,305.2,570.6,305.2L570.6,305.2z
				 M577.2,322.2c-0.9-5.1-2.4-10.2-4.7-14c0.8-0.8,1.7-1.5,2.5-2.2c0.6,0.2,1.1,0.4,1.4,0.6l0.1,0c1,2.7,1.9,5.4,2.5,8.2
				C580,320.2,579.6,321.2,577.2,322.2L577.2,322.2z M574.5,325.3c-1.1-5.1-3-10-6.5-12.3c0.9-1.1,1.8-2.2,2.9-3.3
				C572.7,314.8,573.9,320,574.5,325.3L574.5,325.3z M571.3,325c-3-0.3-6.2-0.6-9.5-1c1.5-3.9,3.5-7.5,6.1-10.8
				C568.5,314.4,570.1,318,571.3,325L571.3,325z M559.6,319.3c0.3-4.4,1.7-8.7,3.9-12.5c0.2-0.4,0.4-0.7,0.7-1
				c1.5-0.4,3.1-0.6,4.7-0.6c0.2,0.3,0.4,0.7,0.6,1.1C565.4,310.1,562.1,314.5,559.6,319.3L559.6,319.3z M558.5,312.5
				c0.1-1.7,0.3-3.4,0.4-4.9c0.7-0.3,1.4-0.6,2-0.8c-0.3,0.6-0.6,1.2-0.9,1.8C559.4,309.9,558.9,311.2,558.5,312.5L558.5,312.5z
				 M596.8,307c-2.7,3.4-4.4,8.3-5.4,13.3c0.8-7.2,2.5-14.3,5-21.1C596.5,301.6,596.6,304.2,596.8,307L596.8,307z M597.4,328
				c-0.9-0.1-1.9-0.2-2.9-0.4c0.4-5,1.2-10,2.4-14.9C597.2,317.5,597.3,322.6,597.4,328L597.4,328z M601.1,270l-0.1-0.4h0
				C601.1,269.7,601.1,269.8,601.1,270L601.1,270z"/>
		</g>
	</g>
</g>
</svg>
