<svg xmlns="http://www.w3.org/2000/svg" xmlns:xlink="http://www.w3.org/1999/xlink" width="600" height="1045" viewBox="0 0 600 1045">
  <defs>
    <clipPath id="clip-path">
      <rect id="Rectangle_1399" data-name="Rectangle 1399" width="600" height="1045" transform="translate(12695 2147)" fill="#fff" stroke="#707070" stroke-width="1"/>
    </clipPath>
  </defs>
  <g id="Mask_Group_13" data-name="Mask Group 13" transform="translate(-12695 -2147)" clip-path="url(#clip-path)">
    <g id="Group_6486" data-name="Group 6486" transform="translate(11429 2557)">
      <g id="Group_1250" data-name="Group 1250" transform="translate(0 -372.341)">
        <path id="Path_2043" data-name="Path 2043" d="M0-346.84H1922V819H0Z" transform="translate(-2 18)" fill="#17a350"/>
        <g id="Group_6480" data-name="Group 6480">
          <path id="Path_61" data-name="Path 61" d="M2103.779,3379.564s-512.17,1.295-922.289,86.9c-309.093,47.57-520.651,116.118-1002.3-66.951-2.68-205.523,0-246.387,0-246.387H2103.779Z" transform="translate(-181 -2447.475)" fill="#06a350"/>
        </g>
      </g>
      <g id="Group_6479" data-name="Group 6479">
        <path id="Path_2040" data-name="Path 2040" d="M1347.565,612.151l0-2.185c-.052-17.7-.574-45.888-2.874-74.864h2.878V478.013h-10.44a168.173,168.173,0,0,0-7.843-27.461,50.122,50.122,0,0,0,7.334-2.3,48.666,48.666,0,0,0,10.949,5.509V247.58c-25.157-1.785-90.666-7.1-147.407-14.242-58.509-7.345-48.927-6.7-85.053,2.877-36.124,9.6-65.248-.486-65.248-.486.866-1.073,1.3-3.9,1.3-3.9-15.8-10.169-30.3-3.239-30.3-3.239a51.358,51.358,0,0,1-27.7-12.127s.64-2.6-1.318-6.7c-1.94-4.125-9.077-5.631-12.769-6.931-3.673-1.3-5.2,3.465-10.377,12.768-5.2,9.322-14.52,13.861-23.823,19.06s-6.7,16.667-6.931,17.533c-.209.866-16.443,21.639-24.9,33.993-8.437,12.336-18.262,17.516-21.466,23.287-3.206,5.752,7.034,16.321,9.91,17.846,2.894,1.525,6.1,5.2,17.292,5.509s2.546-6.394,24.308-5.112c21.762,1.265,61.177-5.924,61.177-5.924,10.378-1.717,43.316,36.746,46.641,42.637,1.213,2.139,2.827,5.642,4.549,9.458l-137.936,5.955v-9.91c0-13.023-10.324-24.109-23.347-24.13a23.442,23.442,0,0,0-23.533,23.441v12.622l-32.356,1.4v44.3l32.356-.66v51.113H838.273V535.1h32.356v37.2c-1.794-14.625-5.464-29.8-12.926-35.741,0,0,6.255,10.753,9.068,39.47a87.4,87.4,0,0,0-7.376-17.19c-5.806-10.451-14.025-19.394-21.749-23.989-7.658-4.739-14.823-5.132-17.037-1.788-.125.068,2.586-1.969,12.618,3.853,4.963,3.132,11.871,8.675,18.888,19.265a82.623,82.623,0,0,1,12.726,36.556,46.37,46.37,0,0,0-3.452-4.9c-6.479-8.606-18.141-17.334-31.067-21.44-12.836-4.343-26.938-4.066-36.294-.111-9.186,3.531-13.931,10.477-12.372,13.649a13.432,13.432,0,0,1,1.493-1.977,24.312,24.312,0,0,1,9.726-6.813c5.979-2.434,15.887-4.81,29.837-1.932,12.421,2.874,28.228,10.214,40.022,30.667l-272.175,25.6ZM1132.62,455.178s-.578,11.195-1.957,22.835H917.509V425.944l168.459-3.44c2.985,4.861,6.177,10.324,9.558,16.543C1111.674,468.691,1132.62,455.178,1132.62,455.178ZM927.454,558.121c-7.631,6.077-9.456,26.311-9.857,38.214-.029,0-.059,0-.088,0V535.1h213.172c-.045,5.781-.614,11.21-1.612,14.311-2.356,7.328-3.067,16.528-5.2,22.9-2.114,6.377-9.442,17.015-11.349,18.9-.283.283-.863.8-1.626,1.479-51.022-.922-109.062-.419-172.9,2.6a53.892,53.892,0,0,1,15.9-15.341,33.494,33.494,0,0,1,17.785,1.766,16.586,16.586,0,0,1,6.635,4.646,7.926,7.926,0,0,1,1.024,1.373c1.086-2.159-2.165-6.921-8.445-9.336a29.2,29.2,0,0,0-10-2.049,54.965,54.965,0,0,1,8.852-2.84c12.151-2.507,20.78-.438,25.987,1.683a21.162,21.162,0,0,1,8.471,5.933,10.111,10.111,0,0,1,1.305,1.751c1.387-2.755-2.762-8.835-10.78-11.917-8.15-3.444-20.432-3.686-31.611.1a57.112,57.112,0,0,0-13.465,6.408c-1.183.283-2.36.617-3.523,1.01a45.049,45.049,0,0,0-11.357,5.559,70.863,70.863,0,0,1,9.367-21.876,70.1,70.1,0,0,1,4.366-5.916c3.1-1.149,4.179-.561,4.249-.512a3.583,3.583,0,0,0-2.594-1.414,49.181,49.181,0,0,1,10.428-8.937c8.344-4.843,10.872-3.443,10.988-3.359-1.932-2.908-8.168-2.564-14.836,1.561a50.059,50.059,0,0,0-13.02,12,22.175,22.175,0,0,0-2.586,1.372,35.192,35.192,0,0,0-7.415,6.159c2.55-12.885,5.552-18.04,5.552-18.04-5.242,4.171-8.337,13.577-10.159,23.743a52.76,52.76,0,0,0-2.816,4.507,59.65,59.65,0,0,0-5.031,11.693C923.19,565.445,927.454,558.121,927.454,558.121Zm.393,19.5c-.529,4.657-.848,9.2-1.035,13.226-.677.75-1.305,1.5-1.873,2.258a31.149,31.149,0,0,0-2.1,2.945l-.212.011A57.121,57.121,0,0,1,927.847,577.622Zm3.533,1.785c.351-3.585.766-6.85,1.216-9.811a46.932,46.932,0,0,1,6.55-7.415c-.459.756-.911,1.519-1.344,2.3A76.084,76.084,0,0,0,931.38,579.407Zm2.323,9.883a39.313,39.313,0,0,1,7.314-5.062,45.486,45.486,0,0,0-4.952,5.506,40.45,40.45,0,0,0-3.011,4.27Q933.315,591.571,933.7,589.29Zm213.785.51a50.6,50.6,0,0,0-4.069,3.7q-2.589-.081-5.208-.158c.838-3.41,3.121-6.991,4.547-7.784C1144.889,584.376,1149.376,588.153,1147.487,589.8Zm14.675-39.227c-.226,9.928-1.179,14.675-1.42,18.695-.226,4.037-6.861,14.451-9.461,14.935-2.615.469-3.794-3.551-5.215-6.635s-.953-23.217,0-38.619c.082-1.322.217-2.6.37-3.847h15.392A137.582,137.582,0,0,1,1162.162,550.574Zm163.369-72.561H1175.066c-.24-11.306-1.677-29.246-1.677-29.246l3-7c22.974-11.973,52.879.363,52.879.363,43.222,13.434,73.467,12.824,90.6,10.264A237.444,237.444,0,0,1,1325.531,478.013ZM1176.074,589.8c-2.131-5.667,1.179-15.819,1.179-15.819,11.817,4.487,8.974-6.844,4-17.239-2.031-4.264-3.73-12.638-4.826-21.64h58.265c2,3.525,4.713,10.952,6.807,26.55a14.005,14.005,0,0,0-3.888-.379c-1.556-2.32-3.418-3.678-5.65-3.678,0,0,1.247.612,2.835,4.323a2.513,2.513,0,0,0-1.339,1.3,7.457,7.457,0,0,1,1.593-.186l.2,0a48.307,48.307,0,0,1,1.542,4.928c-7.463-4.258-15.41-6.643-22.067-6.686-9.517-.376-16.41,3.992-16.22,7.407a12.146,12.146,0,0,1,2.1-1.2,23.5,23.5,0,0,1,11.238-2.331c6.069.121,15.422,1.728,26.315,9.074a175.374,175.374,0,0,1,2.182,17.626,32.831,32.831,0,0,0-1.7-4.331c-2.987-6.505-8.207-11.824-13.119-13.984-4.7-2.254-9.108-1.553-9.746.207a6.089,6.089,0,0,1,1.316-.155,12.845,12.845,0,0,1,6.143,1.267c3.1,1.415,7.61,4.359,11.563,10.762a31.3,31.3,0,0,1,4.219,12.82l-.424-.032a53.57,53.57,0,0,0-11.708-14.727c-8.043-7.238-18.477-11.49-26.587-11.543-7.863-.311-13.56,3.3-13.4,6.12a10.048,10.048,0,0,1,1.735-.993,19.406,19.406,0,0,1,9.285-1.926c5.156.1,13.173,1.488,22.5,8a47.3,47.3,0,0,1,13.255,14.71c-17.548-1.244-36.938-2.4-58.037-3.336A5.331,5.331,0,0,0,1176.074,589.8Zm61.92-54.7h24.363c1.777,8.677,3.435,20.667,4.57,37.306-2.151-15.615-6.231-28.733-13.874-28.733,0,0,4.024,1.96,7.3,19.06-2.527.589-4.5,3.191-6.026,7.017a31.04,31.04,0,0,0-6.957-5.693C1245.512,551.389,1242.578,540.3,1237.994,535.1Zm5.2,43.033c.079,1.044.158,2.105.232,3.2q-.241-1.752-.523-3.446C1243,577.97,1243.095,578.05,1243.192,578.135Zm5.707-1.064c-.285-3.1-.619-6.193-1.007-9.224a33.054,33.054,0,0,1,5.316,5.175,66.62,66.62,0,0,0-1.584,6.821Q1250.3,578.414,1248.9,577.071Zm1.78,8.954c-.275,2.193-.507,4.436-.7,6.683-.13-2.654-.289-5.382-.481-8.143Q1250.1,585.277,1250.68,586.025Zm3.35,4.778c.2.326.4.664.6,1-.333.812-.642,1.63-.906,2.464C1253.821,593.061,1253.923,591.918,1254.03,590.8Zm.818-7.175c.351-2.575.727-4.849,1.117-6.838.172.268.345.527.518.806a40.453,40.453,0,0,1,2.928,6.153,29.838,29.838,0,0,0-2.21,3.036C1256.455,585.714,1255.665,584.664,1254.848,583.628Zm1.3,10.9c.41.786.813,1.588,1.2,2.419-.6.92-1.148,1.85-1.675,2.784-.22-.019-.436-.037-.657-.054A28.169,28.169,0,0,1,1256.152,594.529Zm5.6-13.278c-.2-.455-.4-.906-.616-1.353a38.779,38.779,0,0,0-4.278-7.135c1.369-5.447,2.766-8.016,3.659-9.2.834,4.507,1.615,10.026,2.261,16.772Q1262.255,580.774,1261.748,581.25Zm1.282,1.9q.083.977.164,1.983c-.169-.532-.351-1.063-.541-1.591C1262.778,583.414,1262.9,583.28,1263.03,583.154Zm-1.619,8.358c-.243.285-.479.574-.716.863-.65-1.16-1.335-2.317-2.071-3.463.076-.135.152-.277.227-.41.472-.762.953-1.471,1.437-2.133A36.293,36.293,0,0,1,1261.411,591.513Zm-18.761-19.726c-.393-.291-.787-.58-1.186-.86a39.2,39.2,0,0,0-2.665-7.585,18.945,18.945,0,0,1,3.044.97Q1242.269,567.791,1242.649,571.786Zm83.087-5.8c-.5-.011-1.016-.008-1.537.012a40.718,40.718,0,0,0-16.286,4.091c-.509-.837-1.047-1.63-1.61-2.391a1.9,1.9,0,0,1,.58.1,2.54,2.54,0,0,0-1.54-1.333,20.882,20.882,0,0,0-5.486-4.784,27.848,27.848,0,0,1,2.546,4.3,15.326,15.326,0,0,0-6.423,1.587,28.871,28.871,0,0,0-10.788,9.133,36.718,36.718,0,0,0-4.812,1.414c3.1-25.794,8.389-28.383,8.389-28.383-7.149,0-10.924,12.421-12.893,27.087a3.883,3.883,0,0,0-1.6-.656c-1-14.262-2.735-29.237-5.737-41.063h54.236C1323.918,543.843,1324.936,554.063,1325.737,565.989Zm-51.167,14.783q-.1-1.687-.214-3.389c.328-.006.615,0,.863,0,.227.02.41.032.574.045q-.185,1.425-.348,2.871C1275.153,580.452,1274.862,580.613,1274.57,580.773Zm.439,3.775c-.049.541-.1,1.086-.144,1.629q-.037-.745-.076-1.494C1274.862,584.638,1274.936,584.59,1275.009,584.548Zm36,13.026c-1.632-7.665-4.451-15.058-9.282-19.057,1.553-1.084,3.069-2.028,4.55-2.871A122.106,122.106,0,0,1,1311.008,597.574Zm-1.129-23.8a43.226,43.226,0,0,1,13.267-3.922c-3.862,6.244-6.244,14.517-7.695,22.707A75.746,75.746,0,0,0,1309.879,573.771Zm-19.137,2.271c-.481,0-.971.023-1.469.057a27.565,27.565,0,0,1,9.265-7.051,15.891,15.891,0,0,1,4.693-1.341c.518,1.128,1.072,2.442,1.638,3.925a54.762,54.762,0,0,0-7.831,5.121A20.17,20.17,0,0,0,1290.742,576.041Zm3.584,2.99c-.1.087-.189.178-.286.264-.091-.1-.19-.182-.281-.277C1293.945,579.023,1294.146,579.023,1294.325,579.031Zm8.151,20.991c-1.1-6.235-2.912-12.534-5.851-17.289,1.04-.964,2.083-1.872,3.12-2.7.728.266,1.3.537,1.782.747l.071.039a65.428,65.428,0,0,1,3.063,10.166C1305.935,597.506,1305.373,598.722,1302.476,600.022Zm-3.38,3.786c-1.338-6.289-3.745-12.31-7.973-15.131a52.016,52.016,0,0,1,3.523-4.017A87.624,87.624,0,0,1,1299.1,603.809Zm-3.941-.416q-5.584-.582-11.721-1.18a52.153,52.153,0,0,1,7.514-13.32C1291.732,590.362,1293.75,594.787,1295.156,603.393Zm-14.382-6.938a34.846,34.846,0,0,1,4.827-15.368q.4-.652.811-1.261a31.912,31.912,0,0,1,5.749-.792c.214.4.444.858.687,1.359A60.806,60.806,0,0,0,1280.773,596.454Zm-1.378-8.394c.17-2.144.354-4.164.551-6.077.848-.37,1.673-.694,2.478-.982-.4.722-.776,1.46-1.123,2.215A36.79,36.79,0,0,0,1279.4,588.06Zm47.2-6.856c-3.291,4.193-5.381,10.191-6.7,16.372a113.275,113.275,0,0,1,6.19-26.068Q1326.361,576.187,1326.592,581.2Zm.811,25.922c-1.132-.147-2.3-.3-3.528-.45a114.573,114.573,0,0,1,3.016-18.373Q1327.222,597.2,1327.4,607.126Zm4.541-71.537-.07-.487h.036C1331.92,535.266,1331.933,535.426,1331.944,535.589Z" transform="translate(572.435 -6.117)" fill="#fff"/>
      </g>
    </g>
  </g>
</svg>
