<svg xmlns="http://www.w3.org/2000/svg" width="677.378" height="133.788" viewBox="0 0 677.378 133.788">
  <g id="Group_13" data-name="Group 13" transform="translate(0 -234.544)">
    <path id="Path_59" data-name="Path 59" d="M4049.758-1407.872c.671-1.207,2.4-8.011,2.683-8.95.255-.927-.671-7.341-1.073-8.414-.256-.658-.134-8.17-.512-14.584-.037-.878-.1-1.731-.171-2.548-.024-.244-.049-.475-.073-.707s-.036-.439-.061-.646c-.037-.354-.086-.7-.122-1.036-.037-.232-.074-.463-.11-.683-.049-.3-.1-.61-.146-.878a9.847,9.847,0,0,0-.4-1.512c-.012-.025-.012-.061-.024-.086a4.851,4.851,0,0,0-.245-.549c-.512-.866-2.219-1.427-4.621-1.768-1.208-.171-2.585-.293-4.072-.366s-3.061-.1-4.7-.085h-.023c-.78,0-1.573.012-2.377.024-2.4.049-4.817.146-7.084.28-3.281.183-6.231.4-8.243.573-3.829.329-9.646-.463-14.8-1.378v-.012c-3.963-.7-7.536-1.463-9.524-1.817-.646-.122-1.134-.2-1.4-.22-1.109-.061-3.645-.049-5.876-.183v.012c-1.732-.1-3.256-.293-3.744-.683v-.012a.412.412,0,0,1-.17-.244,2.368,2.368,0,0,0-.1-.488,4.272,4.272,0,0,0-.181-.524,6.459,6.459,0,0,0-1.147-1.914,1.737,1.737,0,0,0-.28-.256c-.012-.012-.012-.024-.024-.024s-.025-.012-.037-.024a.568.568,0,0,0-.231-.11.611.611,0,0,0-.256.024,1.292,1.292,0,0,0-.244.146,3.648,3.648,0,0,0-.426.512c-.122.2-.232.39-.306.536a2.21,2.21,0,0,0-.109.256l-2.8-2.8v-.012a1.41,1.41,0,0,0-.244-.183,3.215,3.215,0,0,0-.708-.329,3.775,3.775,0,0,0-.439-.134c-.3-.085-.634-.171-.976-.232a19.46,19.46,0,0,0-2.024-.3c-.927-.11-1.609-.146-1.622-.146s1.012.695,1.878,1.341a9.178,9.178,0,0,1,1.244.988c.012.012-.013.012-.037,0s-.073-.024-.147-.061a1.547,1.547,0,0,0-.23-.085,4.228,4.228,0,0,0-.976-.146h-.014a10.4,10.4,0,0,0-2.1.086c-.013.012-.049.012-.074.012a2.757,2.757,0,0,0-.414.11.22.22,0,0,0-.1.073.08.08,0,0,0-.012.073.621.621,0,0,0,.317.146c.17.049.354.11.56.183.086.037.184.085.281.122.123.049.231.1.342.146s.207.11.317.159.219.11.329.171l.329.183c.1.049.171.1.257.146.134.073.255.158.377.232.049.037.085.073.134.11a2.594,2.594,0,0,1,.354.244.557.557,0,0,0,.085.085,1.464,1.464,0,0,1,.427.512.2.2,0,0,1-.025.207c-.012.012-.024.024-.024.037a15.605,15.605,0,0,0-1.536,1.256c-.1.085-.184.183-.281.28-.073.073-.146.146-.219.232-.171.2-.354.4-.524.622-.1.122-.183.256-.28.39-.025.037-.05.061-.074.1-.122.183-.231.366-.353.561-.025.049-.049.11-.074.159-.085.146-.17.292-.244.451-.037.085-.073.171-.109.244-.061.134-.122.281-.183.427l-.109.293c-.061.171-.11.341-.159.512a1.469,1.469,0,0,0-.061.219,1.11,1.11,0,0,0-.061.183c-.049.134-.085.268-.134.39a1.918,1.918,0,0,0-.1.256,2.839,2.839,0,0,0-.134.281c-.049.1-.111.195-.159.281a1.007,1.007,0,0,1-.122.183,2.753,2.753,0,0,1-.2.317c-.024.025-.037.049-.061.073a9.144,9.144,0,0,1-1.28,1.366c-1.318,1.158-2.671,1.9-2.671,2.9a4.4,4.4,0,0,0,2.267,3.963c1.319.561,5.1.378,6.428,1.134s4.694.158,6.426.695,3.608,8.011,5.207,10.145c3.5,6.853,6.89,4.573,6.755,7.914s1.659,7.841,2.195,8.243c.39.293-.22,4.743-.793,7.841-40.531-3.89-87.478-12.108-134.7-20.144a.773.773,0,0,0,.158-.183,15.6,15.6,0,0,0,.951-1.671c.353-.622.086-4.024.537-4.816.45-.817,1.61-5.365,1.793-5.987a25.477,25.477,0,0,0-.72-5.633c-.171-.439-.085-5.463-.33-9.755-.036-.585-.073-1.158-.122-1.707-.024-.158-.036-.317-.048-.476-.012-.134-.024-.28-.037-.427-.037-.244-.061-.463-.1-.695-.014-.158-.037-.3-.061-.451-.037-.207-.073-.4-.109-.6a7.143,7.143,0,0,0-.256-1.012c-.012-.012-.012-.036-.024-.049a1.95,1.95,0,0,0-.172-.366c-.328-.585-1.474-.963-3.084-1.183-.8-.122-1.719-.2-2.719-.244s-2.048-.073-3.146-.061h-.012c-.524,0-1.048.012-1.585.012-1.609.036-3.219.11-4.744.2-2.195.11-4.17.268-5.512.378a44.238,44.238,0,0,1-9.9-.927c-1.33-.232-2.585-.476-3.683-.695s-2.024-.4-2.683-.524a8.765,8.765,0,0,0-.939-.146c-.744-.049-2.451-.037-3.938-.122v.012a5.976,5.976,0,0,1-2.5-.463.317.317,0,0,1-.122-.171c-.012-.11-.037-.207-.061-.329s-.073-.232-.122-.354a4.363,4.363,0,0,0-.769-1.28,1.1,1.1,0,0,0-.184-.171c-.011,0-.011-.012-.024-.012a.039.039,0,0,0-.023-.012.377.377,0,0,0-.158-.073.239.239,0,0,0-.159.012.682.682,0,0,0-.158.1,1.56,1.56,0,0,0-.293.342c-.085.134-.146.268-.208.366a1.061,1.061,0,0,1-.073.158l-1.877-1.866v-.012a.96.96,0,0,0-.159-.122,1.921,1.921,0,0,0-.476-.219c-.085-.037-.183-.061-.292-.1-.208-.049-.427-.11-.659-.146-.451-.1-.939-.158-1.341-.207-.622-.073-1.085-.086-1.085-.086s.671.463,1.256.89a6.657,6.657,0,0,1,.828.659c0,.012,0,.012-.023.012a.688.688,0,0,0-.1-.049c-.037-.024-.1-.036-.146-.061a3.288,3.288,0,0,0-.671-.1,7.338,7.338,0,0,0-1.4.061.073.073,0,0,0-.049.012,1.819,1.819,0,0,0-.28.073.238.238,0,0,0-.061.049.067.067,0,0,0-.014.049.538.538,0,0,0,.208.1,2.735,2.735,0,0,1,.378.122,1.323,1.323,0,0,1,.2.085c.073.024.146.061.232.1.061.037.134.061.2.1.085.037.158.073.231.11s.146.085.219.134a1.117,1.117,0,0,1,.169.1c.087.049.172.1.245.146a.668.668,0,0,1,.1.073,1.851,1.851,0,0,1,.231.171.231.231,0,0,1,.06.049,1.265,1.265,0,0,1,.294.342.2.2,0,0,1-.024.146.038.038,0,0,0-.012.024,9.688,9.688,0,0,0-1.024.841l-.183.183a1.878,1.878,0,0,0-.158.158c-.111.134-.232.268-.341.415-.074.085-.134.171-.2.256-.012.024-.037.048-.049.073a3.663,3.663,0,0,0-.231.378c-.024.036-.037.061-.062.1-.048.1-.1.207-.158.3-.024.061-.049.11-.073.171-.037.086-.085.183-.122.281-.024.061-.049.122-.073.2-.037.11-.073.232-.11.342l-.037.146c-.012.037-.024.073-.037.122a2.357,2.357,0,0,0-.085.268c-.024.049-.049.11-.074.158-.036.073-.061.134-.1.2s-.061.122-.1.2a1.133,1.133,0,0,0-.074.122,2.152,2.152,0,0,1-.146.2c0,.024-.024.036-.036.061a6.16,6.16,0,0,1-.854.914c-.878.768-1.792,1.268-1.792,1.927a2.921,2.921,0,0,0,1.524,2.658c.89.378,3.413.256,4.292.756s3.146.11,4.3.463,2.415,5.365,3.489,6.792c2.329,4.585,4.609,3.061,4.512,5.292a11.07,11.07,0,0,0,1.475,5.512,8.4,8.4,0,0,1-.159,2.939c-10.108-1.646-20.156-3.231-30.071-4.707a4.977,4.977,0,0,0-2.645-2.146c-.537-1.865-1.878-10.011-1.341-10.413s2.329-4.9,2.195-8.243,3.268-1.061,6.755-7.914c1.6-2.134,3.475-9.609,5.207-10.145s5.109.061,6.438-.695,5.1-.561,6.414-1.134a4.382,4.382,0,0,0,2.279-3.963c0-1-1.364-1.744-2.681-2.9a8.661,8.661,0,0,1-1.282-1.366c-.011-.024-.035-.049-.047-.073-.073-.1-.146-.207-.208-.3a1.421,1.421,0,0,1-.122-.183l-.146-.293a1.981,1.981,0,0,1-.134-.28l-.11-.256c-.048-.122-.085-.256-.134-.39-.014-.061-.037-.122-.049-.183l-.073-.219c-.048-.171-.1-.341-.159-.5-.038-.11-.073-.207-.11-.3a4.165,4.165,0,0,0-.183-.415c-.037-.085-.073-.171-.11-.244-.073-.171-.159-.317-.231-.463-.037-.049-.049-.1-.085-.159a6.363,6.363,0,0,0-.354-.549l-.073-.11c-.086-.134-.183-.256-.28-.39-.171-.22-.354-.427-.525-.622-.073-.085-.146-.159-.22-.232-.1-.1-.182-.183-.28-.28a17.513,17.513,0,0,0-1.524-1.256c-.011,0-.011-.024-.024-.024a.233.233,0,0,1-.036-.22,1.569,1.569,0,0,1,.427-.512.631.631,0,0,0,.1-.085c.1-.085.22-.158.341-.244l.146-.109c.11-.073.243-.159.366-.232l.256-.146.329-.183c.11-.061.23-.122.329-.171s.22-.1.317-.146a2.668,2.668,0,0,1,.341-.146c.1-.049.2-.1.293-.134.2-.061.39-.134.561-.183a.561.561,0,0,0,.3-.146.057.057,0,0,0-.012-.073.151.151,0,0,0-.1-.061,1.536,1.536,0,0,0-.414-.122c-.024,0-.061,0-.073-.012a10.421,10.421,0,0,0-2.1-.085,4.227,4.227,0,0,0-.987.146,1,1,0,0,0-.232.085l-.146.073c-.024,0-.037,0-.037-.012a10.29,10.29,0,0,1,1.243-.988c.879-.634,1.879-1.341,1.879-1.341s-.695.037-1.622.146c-.622.073-1.341.159-2.024.3-.342.061-.671.146-.977.232-.145.036-.3.085-.438.134a3.2,3.2,0,0,0-.707.329,1.3,1.3,0,0,0-.244.2l-2.8,2.8s-.05-.11-.122-.256a4.092,4.092,0,0,0-.292-.536,2.958,2.958,0,0,0-.427-.5.926.926,0,0,0-.244-.158.937.937,0,0,0-.184-.024h-.072a.807.807,0,0,0-.233.11c-.011.012-.024.012-.036.024s-.012.012-.024.024a1.715,1.715,0,0,0-.281.256,6.588,6.588,0,0,0-1.146,1.914,5.407,5.407,0,0,0-.183.525,4.519,4.519,0,0,0-.1.488.387.387,0,0,1-.171.256c-.487.4-2.012.585-3.743.683-1.11.061-2.305.085-3.354.11s-1.976.024-2.524.061c-.269.024-.756.1-1.4.22-1.987.366-5.56,1.122-9.523,1.817v.012c-5.158.915-10.962,1.707-14.8,1.39-2.012-.183-4.963-.4-8.243-.585-2.268-.122-4.682-.232-7.084-.281-.793-.012-1.6-.024-2.378-.024h-.024c-1.634-.012-3.219.024-4.695.1s-2.866.183-4.073.354c-2.4.341-4.109.9-4.609,1.768a3.084,3.084,0,0,0-.256.561.269.269,0,0,1-.024.073,10.3,10.3,0,0,0-.39,1.512c-.061.268-.11.573-.16.878-.035.219-.072.451-.1.7-.049.329-.1.671-.134,1.024-.024.207-.05.427-.061.646s-.049.476-.074.707c-.061.829-.121,1.671-.183,2.561-.354,6.4-.244,13.913-.5,14.572-.39,1.073-1.329,7.487-1.062,8.414s2,7.743,2.671,8.95a5.342,5.342,0,0,1,.353,1.854c-15.961-1.463-31.179-2.3-45.312-2.3-12.34,0-24.62.622-36.654,1.707-.4-2.878-.647-5.487-.3-5.731.671-.512,2.938-6.207,2.768-10.438s4.134-1.329,8.548-10c2.024-2.707,4.39-12.169,6.585-12.84s6.474.073,8.146-.878,6.451-.719,8.121-1.439a5.54,5.54,0,0,0,2.865-5.012c0-1.256-1.708-2.207-3.378-3.67a11.154,11.154,0,0,1-1.659-1.78c-.011,0-.011-.012-.011-.024-.11-.134-.2-.281-.294-.427-.047-.073-.084-.146-.121-.207a4.076,4.076,0,0,1-.208-.378c-.061-.11-.109-.232-.157-.341s-.1-.207-.148-.329c-.072-.195-.133-.4-.193-.61-.012-.048-.025-.085-.037-.122a.532.532,0,0,0-.049-.134,7.188,7.188,0,0,0-.243-.78c-.049-.134-.1-.268-.146-.39-.061-.171-.134-.329-.207-.5-.049-.11-.1-.232-.159-.354-.085-.183-.184-.354-.268-.524-.049-.073-.085-.158-.134-.232-.135-.244-.281-.476-.427-.695l-.11-.146a5.815,5.815,0,0,0-.39-.525.469.469,0,0,0-.1-.122c-.146-.2-.292-.366-.438-.536l-.025-.024-.012-.012c-.1-.11-.2-.2-.281-.3-.159-.159-.3-.3-.451-.439a19.546,19.546,0,0,0-1.878-1.536.221.221,0,0,1-.085-.11.3.3,0,0,1,0-.208,1.742,1.742,0,0,1,.488-.585c.061-.061.121-.122.195-.183a3.666,3.666,0,0,1,.329-.232,4.185,4.185,0,0,1,.341-.244c.1-.061.207-.134.3-.2.159-.1.305-.183.464-.268.109-.073.22-.122.341-.2l.513-.256c.1-.049.207-.1.3-.146.208-.1.414-.183.609-.268l.183-.073a7.442,7.442,0,0,1,.744-.244c.109-.036.195-.073.268-.1a.337.337,0,0,0,.122-.1.073.073,0,0,0-.012-.085,1.312,1.312,0,0,0-.658-.232,11.28,11.28,0,0,0-1.756-.159c-.33,0-.67,0-.987.025a4.384,4.384,0,0,0-1.549.3c-.159.086-.232.1-.22.073s.1-.122.231-.244c.854-.707,3.707-2.707,3.707-2.707-.048,0-4.792.268-6.877,1.232a4.147,4.147,0,0,0-.415.219,1.555,1.555,0,0,0-.3.244l-3.548,3.548s-.049-.122-.109-.244a.441.441,0,0,0-.037-.073,5.833,5.833,0,0,0-.377-.683c-.085-.122-.171-.232-.256-.341v-.012a2.316,2.316,0,0,0-.292-.293.882.882,0,0,0-.305-.183.655.655,0,0,0-.3-.037,1.031,1.031,0,0,0-.354.171,6.342,6.342,0,0,0-1.537,2.1c-.11.22-.208.451-.3.683a5.139,5.139,0,0,0-.341,1.28.607.607,0,0,1-.22.317v.012c-.622.5-2.562.732-4.744.853-1.255.073-2.585.11-3.792.134s-2.293.037-3.085.073c-.183,0-.415.012-.561.012-.171.012-.4.049-.708.085-.11.024-.269.049-.4.073-2.292.39-7.182,1.451-12.707,2.427a102.068,102.068,0,0,1-16.279,1.853c-.865,0-1.683-.037-2.438-.1-4.316-.378-11.974-.939-19.4-1.085-1.011-.024-2.011-.036-3.01-.036h-.025c-2.036,0-4,.024-5.853.122-1.915.085-3.695.232-5.244.451-.755.11-1.463.232-2.1.378-.33.073-.635.146-.915.232a8.842,8.842,0,0,0-1.5.549,3.734,3.734,0,0,0-1.012.683,1.887,1.887,0,0,0-.317.39.761.761,0,0,1-.036.1,2.252,2.252,0,0,0-.158.3,1.09,1.09,0,0,1-.086.207l-.073.219a14.118,14.118,0,0,0-.488,1.866q-.128.6-.22,1.28c-.035.183-.06.366-.084.561-.062.463-.122.939-.183,1.451-.024.28-.062.573-.085.866s-.049.585-.086.89c-.731,8.56-.5,20.705-.853,21.656-.512,1.354-1.695,9.462-1.354,10.645s2.524,9.792,3.378,11.316.329,7.938,1.012,9.121c.378.671.927,1.866,1.537,2.792.012.024.036.049.047.073.075.1.135.2.2.28a1.408,1.408,0,0,1,.133.159c-53.384,12.047-91.55,28.363-91.55,28.363v5.451h677.378v.183c-66.749,1.012-111.794-4.341-119.828-4.061C4049.4-1402.982,4049.2-1406.847,4049.758-1407.872ZM3859.705-1449.6s1.134,5.365.256,9.145S3858.692-1447.136,3859.705-1449.6Zm-279.238-13.462c-1.671-7.17.488-17.328.488-17.328C3582.857-1475.718,3582.138-1455.891,3580.467-1463.061Zm7.718,30.692c-.268-.329-.561-.695-.854-1.085h-.012a9.2,9.2,0,0,1-1.878-3.292c-.171-1.695-1.183-14.693-.171-15.705s3.72-6.255,5.245-6.926a.5.5,0,0,1,.231-.061c.976.061-1.22,5.036-.744,6.133.512,1.183,4.219,6.426,4.9,10.987s1.524,6.926,2.707,7.268a.874.874,0,0,1,.438.28,1.609,1.609,0,0,1,.208.3C3594.843-1433.784,3591.5-1433.076,3588.185-1432.369Zm14.864-3.012a2.325,2.325,0,0,1-.123-.207c-.6-.829-6.328-5.487-5.608-13.852.549-6.536,2.646-10,7.353-10.011a15.585,15.585,0,0,1,4.585.817c8.012,2.5,8.487,6.207,10.036,6.328s1.073-3.463,2.39-3.938,18.035-5.024,18.632-.963c.391,2.634.586,10.584.854,16.047C3628.035-1439.685,3615.256-1437.686,3603.049-1435.381Zm42.289-6.219c-.049-.3-.1-.61-.122-.915-.231-3.341,0-6.329.951-6.329.634,0,.646,3.451.89,7.072C3646.484-1441.722,3645.909-1441.661,3645.338-1441.6Zm87.612-17.145c-1.317-5.658.378-13.682.378-13.682C3734.84-1468.743,3734.279-1453.074,3732.95-1458.744Zm3.683,17.51c-.231-3.524-.439-8.572.11-9.121.8-.8,2.939-4.95,4.146-5.475a.407.407,0,0,1,.184-.049c.146.012.207.159.207.39,0,1.012-1.1,3.743-.792,4.463.4.939,3.341,5.073,3.877,8.67.1.732.219,1.353.329,1.939Q3740.632-1440.856,3736.633-1441.234Zm11.621,1.207a12.318,12.318,0,0,1-1.987-7.95,15.036,15.036,0,0,1,1.012-4.634c.805.658,2.122,1.536,3.146,1.207,1.561-.488,1.267,1.28,1.951,1.28s-.78-1.476-.2-1.866.891,1.171,1.573.878-1.378-1.463-.792-1.658-.39.878,2.256.976c1.853.073,2.536-1.573,2.792-2.573,2.914,1.451,4.816,1.28,7.511,1.012a50.728,50.728,0,0,1,11.316-2.085c1.878-.012,3.268.317,3.414,1.329.476,3.207.573,16.522,1.134,16.986.182.158.5.476.854.817.243.244.512.476.768.719C3771.178-1437.271,3759.557-1438.783,3748.253-1440.027Zm35.875-2.475c-.183-2.646,0-5,.756-5s.378,6.231,1.231,9.719A9.123,9.123,0,0,1,3784.128-1442.5Zm41.593,12.913a4.511,4.511,0,0,1-.073.585c-.3-.049-.609-.1-.9-.146.122-1.927.146-3.78.476-3.78C3825.721-1432.93,3825.855-1431.357,3825.721-1429.589Zm22.046,4.268q-9.968-1.683-19.924-3.317c.159-2.89.268-7.268.476-8.707.1-.671,1.036-.9,2.28-.89a33.86,33.86,0,0,1,7.573,1.39,7.785,7.785,0,0,0,5.024-.671,1.943,1.943,0,0,0,1.866,1.719c1.767-.061,1.122-.78,1.512-.658s-.989.915-.524,1.122.646-.854,1.049-.6-.585,1.244-.134,1.244.256-1.171,1.3-.854c.683.219,1.561-.366,2.11-.8a9.828,9.828,0,0,1,.67,3.1,9.193,9.193,0,0,1-2.963,7.328A4.435,4.435,0,0,0,3847.767-1425.321Zm9.56-1.207a4.62,4.62,0,0,1-.987,1.732c-.147.195-.292.366-.427.536-.122.146-.134.171-.231.281-1.756-.292-3.5-.6-5.255-.89a1.037,1.037,0,0,1,.231-.609v-.012a.483.483,0,0,1,.244-.146c.622-.183,1.073-1.427,1.427-3.841s2.316-5.182,2.584-5.8c.256-.585-.9-3.219-.39-3.243a.241.241,0,0,1,.122.024c.8.354,2.231,3.134,2.768,3.67S3857.413-1427.431,3857.327-1426.528Zm141.046,19.571a8.576,8.576,0,0,1-1.415,3.939l-.4-.037c.634-3.561.366-8.914,1.061-8.914C3998.373-1411.969,3998.568-1409.6,3998.373-1406.957Zm33.216,5.865c-9.511-.122-19.632-.671-30.241-1.549.366-3.231.5-13.206.9-15.937.146-1,1.547-1.341,3.415-1.317a49.862,49.862,0,0,1,11.316,2.085c2.693.256,4.6.439,7.523-1.012.244,1,.938,2.646,2.792,2.573,2.634-.1,1.659-1.171,2.245-.975s-1.464,1.366-.781,1.658.974-1.268,1.56-.878-.877,1.854-.194,1.854.39-1.756,1.951-1.268c1.036.317,2.341-.561,3.158-1.219a15.2,15.2,0,0,1,1.012,4.646c.561,6.609-3.962,10.292-4.438,10.95A2.879,2.879,0,0,0,4031.589-1401.092Zm14.035-1.3a3.413,3.413,0,0,1-.512,1.207c-3.048.073-6.084.122-9.1.122.926-.281,1.6-2.146,2.134-5.743s3.463-7.743,3.865-8.67c.378-.878-1.353-4.8-.585-4.853a.376.376,0,0,1,.183.037c1.206.536,3.34,4.682,4.145,5.475S4045.758-1403.738,4045.624-1402.4Zm3.548-34.5s1.708,8.036.377,13.694S4047.673-1433.21,4049.172-1436.893Z" transform="translate(-3491.586 1765.455)" fill="#01135d"/>
    <g id="Group_1260" data-name="Group 1260" transform="translate(-672.121 143.106)">
      <g id="Group_1258" data-name="Group 1258" transform="translate(875.668 91.439)">
        <path id="Path_2032" data-name="Path 2032" d="M905.794,108.589a19.7,19.7,0,0,1,5.227-2.709,11.824,11.824,0,0,1,6.14-.564,7.154,7.154,0,0,1,3.043,1.437,7.8,7.8,0,0,1,2.08,2.66c.131.246.22.5.326.754l.152.381.116.385.225.772.156.773a14.329,14.329,0,0,1,.212,1.548c.012.131.032.252.038.392l0,.438a4.917,4.917,0,0,1-.042.876,7.393,7.393,0,0,1-1.19,3.252,10.635,10.635,0,0,1-2.246,2.388,15.1,15.1,0,0,1-2.634,1.659c-.453.239-.917.439-1.378.645-.469.183-.933.376-1.406.535a32.736,32.736,0,0,1-5.745,1.423,34.245,34.245,0,0,1-5.837.44c1.872-.538,3.718-1.075,5.524-1.706a50.157,50.157,0,0,0,5.267-2.089,25.3,25.3,0,0,0,2.439-1.3,14.837,14.837,0,0,0,2.165-1.553,6.269,6.269,0,0,0,2.4-4,2.665,2.665,0,0,0,.033-.565l0-.285c0-.1-.02-.219-.029-.327-.048-.441-.073-.892-.161-1.318l-.107-.648-.161-.622-.081-.311-.108-.294c-.077-.192-.129-.4-.217-.585a5.845,5.845,0,0,0-1.328-1.955,5.352,5.352,0,0,0-2.046-1.191,11.746,11.746,0,0,0-5.3-.189A30.9,30.9,0,0,0,905.794,108.589Z" transform="translate(-889.904 -98.557)" fill="#01135d"/>
        <path id="Path_2033" data-name="Path 2033" d="M890.279,100.224a41.471,41.471,0,0,0-3.6-4.259,14.343,14.343,0,0,0-2.025-1.763,4.881,4.881,0,0,0-2.158-.97,1.928,1.928,0,0,0-1.7.723,8.787,8.787,0,0,0-1.325,2.094,18.551,18.551,0,0,0,.1,15.328A14.992,14.992,0,0,0,882.8,115.6a20.876,20.876,0,0,0,4.559,3.125,15.769,15.769,0,0,1-5.228-2.279,15.291,15.291,0,0,1-2.237-1.888,14.137,14.137,0,0,1-1.817-2.334,15.488,15.488,0,0,1-2.118-5.531,18.864,18.864,0,0,1-.117-5.91,17.68,17.68,0,0,1,1.744-5.677,10,10,0,0,1,1.813-2.534,4.127,4.127,0,0,1,1.533-.963,3.573,3.573,0,0,1,1.845-.1,6.185,6.185,0,0,1,2.792,1.545,15.4,15.4,0,0,1,1.945,2.193A24.223,24.223,0,0,1,890.279,100.224Z" transform="translate(-875.668 -91.439)" fill="#01135d"/>
      </g>
    </g>
  </g>
</svg>
