<svg xmlns="http://www.w3.org/2000/svg" width="14.995" height="28.627" viewBox="0 0 14.995 28.627">
  <path id="Path_70" data-name="Path 70" d="M224.92,69.453h2.726a.682.682,0,0,0,.682-.682v-4.09a.682.682,0,0,0-.682-.682H224.92a7.5,7.5,0,0,0-7.5,7.5v3.408h-3.408a.682.682,0,0,0-.682.682v4.09a.682.682,0,0,0,.682.682h3.408V92.627h5.453V80.358h3.408a.682.682,0,0,0,.646-.466l1.363-4.09a.682.682,0,0,0-.646-.9h-4.771V71.5A2.045,2.045,0,0,1,224.92,69.453Z" transform="translate(-213.333 -64)" fill="#fff"/>
</svg>
