<svg xmlns="http://www.w3.org/2000/svg" width="28.627" height="28.649" viewBox="0 0 28.627 28.649">
  <path id="Path_69" data-name="Path 69" d="M17.447,3.144c-5.863,0-11.43-.522-13.556,4.936-.878,2.254-.751,5.181-.751,9.373,0,3.678-.118,7.135.751,9.371,2.122,5.461,7.734,4.938,13.553,4.938,5.614,0,11.4.584,13.555-4.938.88-2.277.751-5.16.751-9.371,0-5.59.308-9.2-2.4-11.908C26.6,2.8,22.89,3.144,17.44,3.144ZM16.165,5.723C28.394,5.7,29.951,4.344,29.092,23.23c-.305,6.68-5.391,5.947-11.643,5.947-11.4,0-11.727-.326-11.727-11.73,0-11.537.9-11.717,10.443-11.727ZM25.084,8.1A1.716,1.716,0,1,0,26.8,9.814,1.717,1.717,0,0,0,25.084,8.1ZM17.447,10.1a7.347,7.347,0,1,0,7.345,7.348A7.348,7.348,0,0,0,17.447,10.1Zm0,2.579c6.305,0,6.313,9.539,0,9.539S11.134,12.684,17.447,12.684Z" transform="translate(-3.133 -3.13)" fill="#fff"/>
</svg>
