<svg xmlns="http://www.w3.org/2000/svg" width="173.244" height="172.262" viewBox="0 0 173.244 172.262"><g transform="translate(0 0)"><path d="M475.883,360.605a11.513,11.513,0,0,0-1.055-3.7,8.93,8.93,0,0,0-5.669-4.892,8.77,8.77,0,0,0-.3-4.49,15.965,15.965,0,0,0-2.938-4.862,14.991,14.991,0,0,0-4.43-3.982,8.789,8.789,0,0,0-4.22-1.092,10.313,10.313,0,0,0-.339-2.975,13.624,13.624,0,0,0-4.7-6.951c-.278-.233-.8-.65-1.546-1.242-.6-.472-1.076-.861-1.432-1.159-.238-.2-.513-.434-.789-.669-.365-.316-.6-.514-.708-.608a11.834,11.834,0,0,0-4.278-2.423,8.728,8.728,0,0,0-2.176-.356,14.911,14.911,0,0,0-1.324-1.944,15.721,15.721,0,0,0-4.4-3.74,16.643,16.643,0,0,0-5.224-1.988,14.5,14.5,0,0,0-2.691-.255,14.255,14.255,0,0,0-1.458.075,8.6,8.6,0,0,0-2.4-2.984,8.805,8.805,0,0,0-3.223-1.628,9.182,9.182,0,0,0-2.167-.3l-4.842-1.3a8.148,8.148,0,0,0-4.055-1.073,8.516,8.516,0,0,0-2.312.322,9.1,9.1,0,0,0-1.093-.586,15.132,15.132,0,0,0-5.218-1.109c-.749-.052-1.412-.078-2.026-.078a15.169,15.169,0,0,0-2.411.172,18.01,18.01,0,0,0-4.151-.694c-.571-.04-1.119-.06-1.629-.06a13.508,13.508,0,0,0-3.834.491,9.69,9.69,0,0,0-1.756.7l-.092-.038a8.5,8.5,0,0,0-3.257-.642,8.886,8.886,0,0,0-1.068.066,8.07,8.07,0,0,0-1,.187c-.372-.026-.744-.039-1.111-.039a15.922,15.922,0,0,0-1.939.119,13.849,13.849,0,0,0-7.246,3.022q-.172-.069-.348-.13a8.576,8.576,0,0,0-6.42-2.908,8.777,8.777,0,0,0-4.733,1.4,8.716,8.716,0,0,0-2.15.45,8.5,8.5,0,0,0-4.957,4.44,8.66,8.66,0,0,0-.727,2.345,12.337,12.337,0,0,0-5.058,2.006,17.676,17.676,0,0,0-2.368,1.681,9.2,9.2,0,0,0-2.131,2.677,9.519,9.519,0,0,0-3.594.911,18.849,18.849,0,0,0-2.246,1.214,12.788,12.788,0,0,0-3.929,3.554,9.042,9.042,0,0,0-.669,1.143l-.052.02a11.889,11.889,0,0,0-4.262,2.964,14.421,14.421,0,0,0-2.586,3.536,14.939,14.939,0,0,0-3.637,2.908,16.09,16.09,0,0,0-3.384,4.844,9.635,9.635,0,0,0-.786,3.514,14.661,14.661,0,0,0-2.594,1.616,15.791,15.791,0,0,0-3.816,4.345,16.557,16.557,0,0,0-2.057,5.169,14.682,14.682,0,0,0,6.766,15.469,14.572,14.572,0,0,0,4.265,1.732,8.457,8.457,0,0,0,1.578,1.466,74.11,74.11,0,0,0-3.862,23.672c0,.834.019,1.664.046,2.493a19.692,19.692,0,0,0-3.318,2.038,16.592,16.592,0,0,0-6.617,13.3,15.974,15.974,0,0,0,.082,1.611,18.851,18.851,0,0,0-.481,3.506,14.632,14.632,0,0,0-2.222,7.9,13.331,13.331,0,0,0,.106,1.683,17.578,17.578,0,0,0-.524,4.309,15.411,15.411,0,0,0,8.027,13.55,23.432,23.432,0,0,0,11.781,2.957q.435.012.863.012a25.659,25.659,0,0,0,10.331-2.061c.119.068.245.128.367.192a8.068,8.068,0,0,0-2.9,6.214,7.966,7.966,0,0,0,1.851,5.157V462.9a7.938,7.938,0,0,0-1.45,4.619c0,1.433.534,8.585,11.084,8.585a15.582,15.582,0,0,0,5.226-.767,10.045,10.045,0,0,0,1.778-.826,13.677,13.677,0,0,0,7.012,1.593,17.635,17.635,0,0,0,4.694-.5,12.126,12.126,0,0,0,4.17.7,13.809,13.809,0,0,0,3.869-.517,16.531,16.531,0,0,0,3.37.322A22.445,22.445,0,0,0,377,475.73c.054.011.108.025.162.035a10.867,10.867,0,0,0,1.985.13h8.889c.03,0,.243.042.318.054a9.765,9.765,0,0,0,1.56.133,8.1,8.1,0,0,0,2.4-.372,20.7,20.7,0,0,0,8.545-.108,12.126,12.126,0,0,0,4.17.7,13.925,13.925,0,0,0,3.723-.479,9.3,9.3,0,0,0,1.151.078h8.608c.354.012.522.031.533.031h0l.144.025a10.544,10.544,0,0,0,1.76.161,8,8,0,0,0,2.433-.377,13.706,13.706,0,0,0,3.223.367,12.212,12.212,0,0,0,6.037-1.376c.149.1.3.191.448.278a8.384,8.384,0,0,0,4.189,1.108,8.258,8.258,0,0,0,8.015-6.3,16.52,16.52,0,0,0,.488-4.642q-.009-1.3-.01-2.053v-2.487a8.182,8.182,0,0,0,1.677-4.989,8.28,8.28,0,0,0-1.343-4.56,16.43,16.43,0,0,0,5.485.917h0c.522,0,1.059-.022,1.579-.064a21.592,21.592,0,0,0,7.887-2.266,27.944,27.944,0,0,0,6.08-4.137l.067-.06a19.975,19.975,0,0,0,3.8-4.581,15.236,15.236,0,0,0,2.228-7.822,13.568,13.568,0,0,0-1.689-6.63c.14-.815.288-1.63.437-2.445,0,0,.089-.444.095-.478.3-1.638.493-2.922.64-3.927.008-.052.015-.1.022-.157a26.979,26.979,0,0,0,.275-3.324,15.083,15.083,0,0,0-.294-2.979,15.2,15.2,0,0,0,1.4-6.382,13.839,13.839,0,0,0-5.454-11.011,12.088,12.088,0,0,0-4.147-4.7c-.135-.089-.277-.168-.415-.252a74.053,74.053,0,0,0-1.611-9.816,8.5,8.5,0,0,0,.839-.338,8.121,8.121,0,0,0,3.444-3.061l.073-.12a8.269,8.269,0,0,0,.937-2.277l.153-.168q1.112-1.211,1.776-1.969l.054-.063c1.68-1.953,2.783-3.3,3.462-4.237a16.124,16.124,0,0,0,2.042-3.569l.037-.1A9.8,9.8,0,0,0,475.883,360.605Z" transform="translate(-302.689 -304.034)" fill="#fff"/><g transform="translate(10.279 7.911)"><g transform="translate(0 0)"><g transform="translate(13.383 19.3)"><path d="M494.834,442.627a63.236,63.236,0,0,1-5.806,26.173H373.334a63.229,63.229,0,0,1-5.807-26.173c0-1.1.021-2.183.085-3.264a63.633,63.633,0,0,1,127.138,0C494.813,440.444,494.834,441.525,494.834,442.627Z" transform="translate(-367.523 -378.581)" fill="#fff" fill-rule="evenodd"/><path d="M508.832,399.14l-.19.042h-.276l-.445.127-.381.17-.276.169-.169.106-.106.127-.064.063v-.063l.064-.169-.064-.3-.063-.339-.17-.466-.106-.233-.105-.3-.17-.3-.212-.212-.233-.3-.275-.3-.276-.3-.551-.339-.275-.064h-.657l-.212.064-.339.169-.276.233-.106.063-.064.106h-.064v.064l-.043-.064-.064-.169-.042-.233-.234-.233-.318-.276-.17-.127-.275-.106-.233-.127-.318-.106-.4-.127-.381-.106h-.382l-.339.063-.212.106-.169.17-.17.169-.106.3-.106.53-.106.572-.064.3-.106.233-.17.169-.17.17-.275.064H497.3l-.318.106-.276.191-.275.169-.233.276-.212.3-.275.7-.275.636-.106.3-.063.275-.064.233-.042.191v.106l-.169-.169-.106-.17-.17-.127-.17-.233-.445-.4-.487-.4-.276-.17-.339-.127-.339-.17-.318-.064-.382-.042-.4.042-.382.064-.445.064-.826.275-.763.36-.784.339-.339.17-.276.19-.318.17-.233.106-.148.191-.17.042-.106.063.042-.063.169-.106.106-.17.17-.233.17-.233.445-.594.445-.572.381-.636.318-.572.127-.3.106-.233.042-.233v-.233l-.042-.233-.106-.3-.127-.233-.149-.212-.445-.53-.508-.466-.551-.4-.594-.36-.572-.169-.594-.17-1.377-.466-.615-.233-.551-.233-.233-.042-.212-.127-.212-.063h-.127l-.042-.042h-.064v-.127l-.042-.169v-.17l-.063-.233-.106-.3-.106-.233-.169-.3-.233-.276-.213-.3-.339-.3-.318-.212-.4-.233-.424-.191-.572-.106-.594-.127h-.551l-.276.064-.233.064-.318.233-.339.3-.212.339-.17.4-.106.4-.169.869-.106.466-.063.36-.106.4-.169.276-.234.233-.212.19h-.212l-.17.043h-.381l-.275.127-.339.17-.233.169-.212.233-.212.3-.339.572-.339.53-.106.233-.339.339-.106.127h-.318l-.339-.191-.276-.042h-.508l-.042.042v-.042l-.063-.127-.106-.169-.106-.233-.17-.3-.169-.339-.276-.339-.211-.36-.276-.339-.4-.36-.318-.339-.381-.3-.445-.233-.445-.169-.509-.106-.487-.064-.487.064-.445.042-.339.127-.339.169-.212.17-.212.169-.17.233-.127.233-.106.466-.042.36v.339l-.127-.106-.106-.191-.106-.233-.169-.275-.212-.36-.234-.339-.148-.466-.276-.4-.339-.36-.339-.233-.318-.212-.339-.191-.276-.106-.17-.063h-.063l-.042-.064v-.042l-.106-.191-.339-.339-.339-.233-.381-.169-.276-.127-.275-.043-.551-.127h-.488l-.4.127-.382.043-.275.127-.212.106-.127.064-.042.064V391.3h-.063l-.042-.106-.17-.063-.17-.127-.169-.106-.212-.127-.275-.106-.233-.106-.318-.064-.4-.127-.318-.042-.4-.064h-.933l-.445.064-.487.106-.339.169-.318.233-.275.233-.17.233-.169.3-.106.339-.064.3-.106.572.042.233v.233l.063.169v.3h-.339l-.212-.063h-.276l-.339-.042-.763-.063-.827-.064h-2.162l-.381.064-.339.063-.318.169-.233.17-.212.233-.233.3-.169.212-.276.657-.148.572-.063.3-.064.233v.339l-.042.106-.063-.042-.043-.064-.063-.127-.106-.17-.169-.106-.17-.17-.212-.127-.276-.233-.339-.106-.34-.127-.424-.17-.445-.064-.551-.042-.551-.063h-.678l-.593.063-.615.169-.55.17-.509.3-.424.276-.339.36-.381.339-.276.361-.275.339-.233.3-.17.339-.105.3-.106.233-.064.169-.043.106v.063l-.064-.063-.042-.106-.063-.169-.339-.466-.212-.3-.275-.3-.276-.339-.382-.3-.4-.276-.445-.3-.551-.233-.487-.17-.615-.169-.721-.064h-.657l-.72.064a14.092,14.092,0,0,0-1.865.466l-.509.212-.445.233-.381.233-.381.3-.551.466-.233.233-.148.233-.17.169-.063.106-.064.064v-.106l-.106-.064h-.042l-.169-.063-.17-.042h-.212l-.233-.063h-1.653l-.381.063-.276.042-.233.127-.169.106-.106.127-.043.169v.106l.043.3.106.3.127.169.042.063v.042H419.1l-.127-.042-.106-.127-.17-.17-.148-.169-.445-.466-.3-.339a63.493,63.493,0,0,1,91.024.466Z" transform="translate(-399.45 -379.282)" fill="#28a8df" fill-rule="evenodd"/><path d="M494.822,461.155a63.192,63.192,0,0,1-5.637,26.174H373.152a63.187,63.187,0,0,1-5.637-26.174,50.518,50.518,0,0,1,.233-5.086l11.847-12.44,7.735,7.354,31.43-37,14.962,17,19.349-23.419,33.677,35.329,7.036,6.973A60.236,60.236,0,0,1,494.822,461.155Z" transform="translate(-367.515 -396.98)" fill="#06a250" fill-rule="evenodd"/><g transform="translate(0.237 7.291)"><path d="M494.264,444.374v.17c-.021-.127-.042-.276-.063-.4l-7.036-6.973L453.489,401.84l-19.349,23.419-14.962-17-31.43,37-7.735-7.354-11.847,12.44V450.2c.063-1.144.191-2.268.361-3.391l11.423-11.974,7.63,7.248,31.578-37.152,14.92,16.976,19.286-23.355,35.308,37.024,4.747,4.705A37.688,37.688,0,0,1,494.264,444.374Z" transform="translate(-368.165 -398.555)" fill="#1d1d1b"/></g><path d="M464.421,464.466l-14.7,20.412L478.3,471l-11.838.817,10.614-10.206Z" transform="translate(-419.716 -431.302)" fill="#fff" fill-rule="evenodd"/><path d="M606.3,453.937l.409-14.7,24.085,31.842-16.737-8.165,4.082,12.247-9.389-9.389Z" transform="translate(-519.14 -417.099)" fill="#fff" fill-rule="evenodd"/><path d="M499.969,523.49c.233,2.649-3.751,5.51-11.868,8.5-17.59,4.556-26.131,9.049-29.861,15.746h-27.89c8.1-13.246,15.323-14.009,28.886-15.45,4.663-.488,9.94-1.039,16.255-2.2.763-.148,1.526-.276,2.268-.424,5.192-.911,10.067-1.78,11.444-3.73a2.065,2.065,0,0,0,.34-1.568c-.594-3.158-7.566-5.3-17.23-8.265l-2.225-.7c-9.092-2.8-10.915-5.383-10.851-7.036.064-2.1,3.179-4.112,8.371-5.468l-.636.445c-2.628,1.78-5.107,3.476-4.726,5.235.487,2.2,5.426,4.005,16.022,5.828C497.4,517.683,499.82,521.858,499.969,523.49Z" transform="translate(-407.414 -457.515)" fill="#fff" fill-rule="evenodd"/></g><path d="M473.212,364.368l4.114-3.331a2.86,2.86,0,0,0,.753-.771,1.113,1.113,0,0,0-.024-.752l-.01-.028a1.067,1.067,0,0,1,.265-1.208,1.238,1.238,0,0,1,1.481-.076,8.536,8.536,0,0,1,2.151,2.078,9.709,9.709,0,0,1,1.633,2.506,1.093,1.093,0,0,1-.314,1.312,1.157,1.157,0,0,1-1.216.133c-.035-.013-.057-.02-.069-.026a1.778,1.778,0,0,0-1.639.475l-.037.03q-.813.61-2.206,1.714a17.2,17.2,0,0,1-3.3,2.288,4.269,4.269,0,0,1-3,.089,7.387,7.387,0,0,1-4.321-5.736,3.319,3.319,0,0,1,1.27-2.878,2.393,2.393,0,0,1,1.7-.594,2.06,2.06,0,0,1,1.5.812,2.2,2.2,0,0,1,.532,1.6,2,2,0,0,1-.78,1.435,2.871,2.871,0,0,1-.451.277,2.842,2.842,0,0,0-.458.282.445.445,0,0,0-.172.321.522.522,0,0,0,.126.366,1.074,1.074,0,0,0,1.037.4,2.989,2.989,0,0,0,1.437-.719ZM463.02,351.738l-1.17,1.394a7.5,7.5,0,0,0-.7.929.61.61,0,0,0-.11.428,3.011,3.011,0,0,0,.1.338,1.161,1.161,0,0,1-.09,1.2,1,1,0,0,1-1.222.232,9.51,9.51,0,0,1-2.317-1.58,9.664,9.664,0,0,1-2.013-2.087,1.065,1.065,0,0,1-.036-1.325,1.151,1.151,0,0,1,1.193-.235c.091.019.164.035.227.047.163.034.555-.247,1.176-.836a32.217,32.217,0,0,0,2.283-2.5l.45-.537q1.459-1.738,1.834-2.312c.249-.386.353-.659.306-.824a3.173,3.173,0,0,0-.153-.4,1.07,1.07,0,0,1,.03-1.155.878.878,0,0,1,1-.223,4.792,4.792,0,0,1,1.6.982q.125.106.6.516c.317.27.594.507.835.709.39.327.9.745,1.546,1.252s1.084.861,1.322,1.06a6.329,6.329,0,0,1,2.246,3.08,3.015,3.015,0,0,1-.7,2.841,3.169,3.169,0,0,1-1.177.905,2.791,2.791,0,0,1-1.409.19,3.01,3.01,0,0,1-.462-.089c-.316-.072-.511-.065-.586.024-.091.108-.027.326.186.652a2.53,2.53,0,0,1,.427,2.144,5.732,5.732,0,0,1-.687,1.595l-.172.277c-.356.594-.49.969-.406,1.122.021.043.05.1.087.156q.469.841.134,1.242a1.26,1.26,0,0,1-1.367.291,5.2,5.2,0,0,1-2.02-1.143,5.638,5.638,0,0,1-1.018-1.075,2.7,2.7,0,0,1-.467-1.06,4.774,4.774,0,0,1,.649-2.672l.038-.074c.034-.07.086-.182.158-.335q1.076-2.219.284-2.883a1.329,1.329,0,0,0-.211-.149C463.171,351.808,463.094,351.771,463.02,351.738Zm1.455-1.846c.088.119.159.211.214.273a1.333,1.333,0,0,0,.149.15,1.187,1.187,0,0,0,1.1.327,2.814,2.814,0,0,0,1.233-.977,1.928,1.928,0,0,0,.542-1.143,1.207,1.207,0,0,0-.506-.94.519.519,0,0,0-.564-.138,3.763,3.763,0,0,0-.9.88l-.545.649c-.184.219-.328.4-.428.525S464.569,349.761,464.475,349.891Zm-14.6-10.875a7.49,7.49,0,0,0-.651,1.548,12.747,12.747,0,0,0-.426,1.935,5.688,5.688,0,0,0,.059,2.194,1.906,1.906,0,0,0,.852,1.242,1.21,1.21,0,0,0,1.2.041,2.8,2.8,0,0,0,1.121-1.175,8.234,8.234,0,0,0,.666-1.493,9.824,9.824,0,0,0,.411-1.716,6.848,6.848,0,0,0,.016-2.412,1.872,1.872,0,0,0-.878-1.26,1.285,1.285,0,0,0-1.233-.049A2.622,2.622,0,0,0,449.879,339.016Zm-5.4-.884a6.949,6.949,0,0,1,1.962-2.157,7.067,7.067,0,0,1,2.678-1.212,6.677,6.677,0,0,1,2.737-.039,9.024,9.024,0,0,1,2.831,1.1,8.125,8.125,0,0,1,2.288,1.93,6.88,6.88,0,0,1,1.291,2.515,6.506,6.506,0,0,1,.153,2.716,7.778,7.778,0,0,1-.976,2.7,7.357,7.357,0,0,1-1.964,2.261,6.656,6.656,0,0,1-2.645,1.179,6.9,6.9,0,0,1-2.727.046,8.278,8.278,0,0,1-2.722-1.014,8.1,8.1,0,0,1-1.773-1.368,7.466,7.466,0,0,1-1.265-1.755,7.3,7.3,0,0,1-.815-3.5A6.981,6.981,0,0,1,444.475,338.132Zm-3.794-8.206a2.453,2.453,0,0,0,.563.018,2.455,2.455,0,0,1,.7.054,1.511,1.511,0,0,1,.552.282,1.35,1.35,0,0,1,.39.494,4.964,4.964,0,0,1,.471,1.6,4.13,4.13,0,0,1-.089,1.558,2.02,2.02,0,0,1-.719,1.178,1.358,1.358,0,0,1-1.182.168,1.454,1.454,0,0,1-.74-.488,2.528,2.528,0,0,1-.477-.972c-.04-.119-.082-.276-.131-.471q-.219-.853-.532-.935a.382.382,0,0,0-.388.091,1.153,1.153,0,0,0-.264.537l-.166.622c-.115.43-.337,1.2-.663,2.291s-.574,1.974-.75,2.628a4.5,4.5,0,0,0-.216,1.391,1.129,1.129,0,0,0,.358.732c.063.057.146.124.25.21a.939.939,0,0,1,.423,1.017q-.206.772-1.281.852a11,11,0,0,1-3.275-.51,8.339,8.339,0,0,1-2.672-1.123q-.89-.642-.709-1.317c.106-.4.455-.632,1.048-.71a2.709,2.709,0,0,0,.511-.1c.248-.1.549-.581.9-1.451a33.3,33.3,0,0,0,1.149-3.633l.222-.827a7.167,7.167,0,0,0,.319-1.65.448.448,0,0,0-.322-.473c-.212-.057-.534.1-.964.467-.122.106-.219.191-.295.253a4.332,4.332,0,0,1-1.1.7,1.359,1.359,0,0,1-.828.035,1.129,1.129,0,0,1-.761-.626,1.537,1.537,0,0,1-.072-1.1,3.446,3.446,0,0,1,.587-1.125,7.583,7.583,0,0,1,1.109-1.191,3.558,3.558,0,0,1,.941-.612,1.187,1.187,0,0,1,.771-.089,1.8,1.8,0,0,1,.482.262,1.8,1.8,0,0,0,.482.263Zm-29.3,7.954a1.018,1.018,0,0,1,.837-.9,2.307,2.307,0,0,0,.245-.084c.158-.055.3-.422.422-1.094a27.633,27.633,0,0,0,.322-2.947c.118-1.675.18-2.876.182-3.6a3.275,3.275,0,0,0-.127-1.277c-.005-.006-.181-.106-.523-.3a.833.833,0,0,1-.477-.817q.048-.686,1-.965a8.491,8.491,0,0,1,2.8-.15,8.988,8.988,0,0,1,2.691.477,1.012,1.012,0,0,1,.566,1.534,1.661,1.661,0,0,1-.58.425,1.044,1.044,0,0,0-.484.431,2.936,2.936,0,0,0-.187,1.013l-.05.726q-.043.614.19.787a2.651,2.651,0,0,0,1.157.238,10.392,10.392,0,0,0,1.1.03,1.964,1.964,0,0,0,.652-.1.325.325,0,0,0,.194-.207,2.7,2.7,0,0,0,.1-.657l.017-.247a5.259,5.259,0,0,0-.022-1.126,1.066,1.066,0,0,0-.234-.607,2.7,2.7,0,0,0-.246-.174.971.971,0,0,1-.509-.9,1.069,1.069,0,0,1,.9-.969,9.9,9.9,0,0,1,3.011-.095,8.7,8.7,0,0,1,2.653.475,1.017,1.017,0,0,1,.718,1.022q-.041.578-.8.922a2.84,2.84,0,0,0-.4.212c-.132.082-.238.382-.324.9s-.187,1.633-.307,3.352q-.152,2.184-.164,3.291a3.412,3.412,0,0,0,.111,1.294c0,.007.155.115.468.322a.916.916,0,0,1,.427.873,1.1,1.1,0,0,1-.912.984,8.035,8.035,0,0,1-2.7.138,8.857,8.857,0,0,1-2.754-.51c-.564-.253-.829-.608-.8-1.075a1.131,1.131,0,0,1,.2-.59,1.409,1.409,0,0,1,.526-.419c.039-.016.1-.043.182-.078a.675.675,0,0,0,.361-.3c.053-.223.1-.528.154-.911s.093-.789.123-1.214c.036-.514-.027-.827-.186-.941a2.775,2.775,0,0,0-1.15-.232,9.464,9.464,0,0,0-1.181-.023,2.165,2.165,0,0,0-.715.139.351.351,0,0,0-.2.243,2.805,2.805,0,0,0-.1.676,10.535,10.535,0,0,0-.01,1.594c.039.425.106.681.2.76.048.035.12.084.212.154a1.146,1.146,0,0,1,.6.982q-.05.714-1,1a8.4,8.4,0,0,1-2.833.157,7.209,7.209,0,0,1-2.548-.533A1.148,1.148,0,0,1,411.38,337.881Zm-7.316,2.75a10.725,10.725,0,0,1-3.086-.051,4.324,4.324,0,0,1-2.04-.726,3.322,3.322,0,0,1-.8-1.235,7.238,7.238,0,0,1-.467-1.872,1.481,1.481,0,0,1,.109-.918.826.826,0,0,1,.659-.372q.593-.073,1.275.725c.151.178.272.311.365.4a4.972,4.972,0,0,0,1.563,1.117,3.107,3.107,0,0,0,1.623.24,1.828,1.828,0,0,0,.967-.368.736.736,0,0,0,.306-.676c-.042-.34-.566-.62-1.576-.834-.452-.093-.809-.176-1.077-.247a7.366,7.366,0,0,1-3.21-1.547,4.025,4.025,0,0,1-1.318-2.567,4.1,4.1,0,0,1,1.147-3.457,6.046,6.046,0,0,1,3.807-1.772,8.422,8.422,0,0,1,1.818-.024q.921.086.94.084a2.948,2.948,0,0,0,.613-.163,3.018,3.018,0,0,1,.525-.153,1.259,1.259,0,0,1,.656.084,2.168,2.168,0,0,1,.664.458,5.108,5.108,0,0,1,.922,1.12,2.955,2.955,0,0,1,.419,1.125,1.488,1.488,0,0,1-.253,1.1,1.308,1.308,0,0,1-.938.526,2.446,2.446,0,0,1-1.544-.683c-.212-.157-.379-.276-.5-.356a3,3,0,0,0-.994-.472,2.827,2.827,0,0,0-1.085-.078,1.418,1.418,0,0,0-.8.311.683.683,0,0,0-.224.621q.088.724,2.3,1.089c.213.037.371.062.472.082a6.878,6.878,0,0,1,3.27,1.242,3.708,3.708,0,0,1,1.22,2.493,4.4,4.4,0,0,1-1.307,3.806A7.231,7.231,0,0,1,404.064,340.631Zm-21.2-11.1a1.246,1.246,0,0,1,.052-.977,1.268,1.268,0,0,1,1.694-.593,1.259,1.259,0,0,1,.636.75,1.26,1.26,0,0,1-2.382.82Zm3.9-1.341a1.225,1.225,0,0,1,.047-.972,1.272,1.272,0,0,1,2.286,1.115,1.225,1.225,0,0,1-.737.635,1.255,1.255,0,0,1-1.6-.778Zm5.954,14.823-6.438,2.217a2.246,2.246,0,0,1-1.171.184.816.816,0,0,1-.526-.591,1.053,1.053,0,0,1,.324-1.065,1.645,1.645,0,0,0,.254-2.048,39.126,39.126,0,0,0-1.166-3.82A26.26,26.26,0,0,0,383,335.34a2.008,2.008,0,0,0-.647-.906,3.728,3.728,0,0,0-.7-.135.9.9,0,0,1-.786-.606.85.85,0,0,1,.153-.869,2.363,2.363,0,0,1,1.091-.659c.092-.031.668-.22,1.729-.558s2.071-.674,3.033-1A32.83,32.83,0,0,0,390.8,329c.1-.049.163-.075.187-.084a1.38,1.38,0,0,1,1.4.326A3.905,3.905,0,0,1,393.476,331a1.977,1.977,0,0,1,.089,1.2.964.964,0,0,1-.636.678,1.321,1.321,0,0,1-1.2-.333,3.589,3.589,0,0,0-.345-.233,2.354,2.354,0,0,0-1.115-.316,4.025,4.025,0,0,0-1.374.26,9.262,9.262,0,0,0-1.275.5.775.775,0,0,0-.35.34,1.427,1.427,0,0,0,.048.669,11.336,11.336,0,0,0,.383,1.312c.173.5.325.791.455.862a1.108,1.108,0,0,0,.763-.088,1.037,1.037,0,0,0,.534-.33.966.966,0,0,0,.072-.619c0-.049-.012-.122-.025-.214-.117-.8.024-1.262.43-1.4a1.087,1.087,0,0,1,1.184.325,4.968,4.968,0,0,1,1,1.869,6.992,6.992,0,0,1,.494,2.554,1.162,1.162,0,0,1-.719,1.167q-.592.2-1.062-.683a.522.522,0,0,0-.045-.071,1.781,1.781,0,0,0-.539-.717.91.91,0,0,0-.642.052c-.329.113-.523.253-.578.421a2.084,2.084,0,0,0,.188,1.048,13.076,13.076,0,0,0,.558,1.447,1,1,0,0,0,.353.426.832.832,0,0,0,.539.064,7.186,7.186,0,0,0,1.174-.331,4.983,4.983,0,0,0,1.578-.825,2.531,2.531,0,0,0,.8-1.153,6.243,6.243,0,0,0,.192-.687q.193-.914.712-1.092a1.02,1.02,0,0,1,.878.043,1.427,1.427,0,0,1,.574.808,5.2,5.2,0,0,1,.264,1.366,6.546,6.546,0,0,1-.075,1.5,3.253,3.253,0,0,1-.286.994.872.872,0,0,1-.481.425,2.223,2.223,0,0,1-.249.036A15.892,15.892,0,0,0,392.71,343.014Zm-23.8,11.385a.933.933,0,0,1,.01-1.031,4.8,4.8,0,0,0,.326-.6,5.477,5.477,0,0,0-.794-1.991q-.841-1.6-2.493-4.237a5.5,5.5,0,0,0-.9-1.2,1.2,1.2,0,0,0-.725-.261c-.046,0-.115-.006-.212-.008a1.327,1.327,0,0,1-1.16-.489,1.035,1.035,0,0,1,.1-1.215,5.893,5.893,0,0,1,1.719-1.448,11.248,11.248,0,0,1,1.331-.725,2.378,2.378,0,0,1,.857-.262,1.775,1.775,0,0,1,.576.181q.384.171,1.606.829c.447.242,1.007.558,1.681.956q1.674.99,2.039.764.383-.239.149-2.142c-.115-.924-.194-1.7-.233-2.316q-.05-.845-.029-1.3a2.034,2.034,0,0,1,.12-.682,1.829,1.829,0,0,1,.47-.587,12.2,12.2,0,0,1,1.387-.955,5.7,5.7,0,0,1,2.048-.921,1.024,1.024,0,0,1,1.071.5.907.907,0,0,1-.054.955,1.278,1.278,0,0,0-.114.268,2.335,2.335,0,0,0,.333,1.331,26.87,26.87,0,0,0,1.522,2.68q1.033,1.651,1.793,2.68a4.578,4.578,0,0,0,1.015,1.138,1.246,1.246,0,0,0,.3.009,1.212,1.212,0,0,1,1.186.507,1.036,1.036,0,0,1-.151,1.275,9.364,9.364,0,0,1-2.265,1.763,8.608,8.608,0,0,1-2.516,1.214,1.059,1.059,0,0,1-1.209-.459,1.019,1.019,0,0,1,.014-1.037,1.419,1.419,0,0,0,.132-.364,1.706,1.706,0,0,0-.211-.864,18.708,18.708,0,0,0-1.051-1.83,1.348,1.348,0,0,0-.419-.464.368.368,0,0,0-.4.008q-.3.191-.088,1.453c.049.3.085.539.109.713.057.4.143.95.251,1.634q.413,2.677-.021,2.951c-.184.115-.485.07-.906-.13a29.514,29.514,0,0,1-2.81-1.789c-.28-.2-.639-.456-1.079-.792q-1.019-.779-1.3-.6c-.136.085-.151.268-.045.545a14.509,14.509,0,0,0,1.038,1.827,5.433,5.433,0,0,0,.809,1.1.774.774,0,0,0,.553.158c.028,0,.077-.007.142-.016a1.017,1.017,0,0,1,1.051.4.874.874,0,0,1-.059,1.048,8.623,8.623,0,0,1-3.526,2.2A.86.86,0,0,1,368.909,354.4Zm-16.045,5.291-.151-.146a4.494,4.494,0,0,0-.977-.79,1.134,1.134,0,0,0-.671-.046l-.084.02a1.243,1.243,0,0,1-1.192-.166q-.542-.523-.084-1.608a8.906,8.906,0,0,1,1.839-2.513,7.191,7.191,0,0,1,1.946-1.577,1.031,1.031,0,0,1,1.234.15,1.316,1.316,0,0,1,.25,1.354c-.027.118-.049.21-.059.274-.028.169.2.536.69,1.093s1.28,1.371,2.384,2.437a4.8,4.8,0,0,0,2.365,1.477,2.239,2.239,0,0,0,1.919-.844,3.292,3.292,0,0,0,.718-1.069,2.013,2.013,0,0,0,.13-1.079,2.873,2.873,0,0,0-.63-1.15,27.42,27.42,0,0,0-2.161-2.248l-.418-.4a18.53,18.53,0,0,0-1.459-1.317,1.241,1.241,0,0,0-.636-.309,2.886,2.886,0,0,0-.68.207.8.8,0,0,1-.891-.1c-.273-.264-.3-.672-.068-1.222a6.5,6.5,0,0,1,1.359-1.877,4.757,4.757,0,0,1,1.579-1.18.989.989,0,0,1,1.119.142,1.129,1.129,0,0,1,.216,1.155c-.029.108-.048.185-.06.234-.063.341.172.812.708,1.413.052.059.093.107.118.139.411.45.992,1.055,1.743,1.823a14.691,14.691,0,0,1,2.9,3.612,4.364,4.364,0,0,1,.112,3.064,8.573,8.573,0,0,1-2.112,3.244,6.923,6.923,0,0,1-4.009,2.29,4.215,4.215,0,0,1-3.641-1.253Zm-7.516,12.245a7.349,7.349,0,0,0,1.548.666,14.007,14.007,0,0,0,2.025.474,5.6,5.6,0,0,0,2.251-.043,2.077,2.077,0,0,0,1.314-.894,1.316,1.316,0,0,0,.084-1.268,2.734,2.734,0,0,0-1.172-1.187,7.707,7.707,0,0,0-1.507-.679,11.413,11.413,0,0,0-1.821-.442,6.777,6.777,0,0,0-2.451-.034,1.965,1.965,0,0,0-1.329.882,1.391,1.391,0,0,0-.088,1.316A2.623,2.623,0,0,0,345.348,371.934Zm10,.519a14.417,14.417,0,0,0,1.318-1.218,6.632,6.632,0,0,0,.864-1.1,2.8,2.8,0,0,0,.289-.811,2.831,2.831,0,0,1,.234-.72.571.571,0,0,1,.48-.3,1.353,1.353,0,0,1,.745.246q.727.437.688,1.981a6.069,6.069,0,0,1-.919,3.01,7.942,7.942,0,0,1-1.239,1.544,16.811,16.811,0,0,1-1.961,1.625c-.426.3-.992.7-1.7,1.188a10.985,10.985,0,0,0-2.084,1.633,1.858,1.858,0,0,0-.15.385,1.937,1.937,0,0,1-.166.409.873.873,0,0,1-.5.412.754.754,0,0,1-.611-.093,1.171,1.171,0,0,1-.56-.926,2.024,2.024,0,0,1,.32-1.28,3.015,3.015,0,0,1,.418-.543,3.728,3.728,0,0,1,.552-.481,7.19,7.19,0,0,1-3.5.8,7.022,7.022,0,0,1-6.661-8.465,8.927,8.927,0,0,1,1.127-2.8,8.18,8.18,0,0,1,1.976-2.265,6.687,6.687,0,0,1,2.53-1.236,6.5,6.5,0,0,1,2.718-.106,7.78,7.78,0,0,1,2.684,1.023,7.064,7.064,0,0,1,3.1,3.538A6.386,6.386,0,0,1,355.353,372.454Zm119.379-1.291a.877.877,0,0,1,.574-.085,1.935,1.935,0,0,1,.725.525,1.277,1.277,0,0,0,.691.457,7.934,7.934,0,0,0,1.112.061c.519,0,1.455-.014,2.818-.054l.691-.018a45.166,45.166,0,0,0,6.171-.384c.022,0,.063-.012.12-.025a1.533,1.533,0,0,1,1.97.9,4.117,4.117,0,0,1,.395,1.305,2.435,2.435,0,0,1-.14,1.11,8.9,8.9,0,0,1-1.105,1.87q-.81,1.115-2.982,3.638-.6.687-1.612,1.787a10.688,10.688,0,0,0-1.767,2.233,1.089,1.089,0,0,0-.021.55.973.973,0,0,1,.023.22.9.9,0,0,1-.134.485.811.811,0,0,1-.345.316,1.19,1.19,0,0,1-1.395-.4,9.348,9.348,0,0,1-1.576-2.557,12.771,12.771,0,0,1-1.113-3.048q-.134-.955.48-1.241a.918.918,0,0,1,.475-.1,1,1,0,0,1,.465.2c.043.035.105.086.184.157q.4.362.68.233.375-.175.251-.865a9.588,9.588,0,0,0-.771-2.078,5.347,5.347,0,0,0-.864-1.436.623.623,0,0,0-.751-.156.483.483,0,0,0-.254.226,1.1,1.1,0,0,0-.017.52,1.239,1.239,0,0,1-.052.648.833.833,0,0,1-.405.334,1.008,1.008,0,0,1-1.175-.262,6.389,6.389,0,0,1-1.244-1.948,5.746,5.746,0,0,1-.633-2.076.985.985,0,0,1,.529-1.04Zm6.786,3.28,1.267,2.716a17.515,17.515,0,0,0,1.422-1.709c.3-.431.419-.712.358-.846s-.3-.194-.716-.22S482.651,374.378,481.518,374.443Z" transform="translate(-337.327 -325.707)" fill="#1d1d1b"/><g transform="translate(12.44 18.76)"><path d="M488.152,468.792H370.9l-.249-.549a63.863,63.863,0,0,1-5.722-26.544,64.6,64.6,0,0,1,129.193,0,63.829,63.829,0,0,1-5.724,26.544Zm-116.04-1.87H486.942a61.979,61.979,0,0,0,5.311-25.222,62.725,62.725,0,1,0-125.449,0A62,62,0,0,0,372.111,466.922Z" transform="translate(-364.932 -377.104)" fill="#1d1d1b"/></g><g transform="translate(0 81.396)"><path d="M478.884,579.94c.085-.508.191-1.081.3-1.738l.064-.3c.191-1.166.4-2.331.615-3.5l.085-.424c.275-1.484.445-2.649.572-3.518a20.761,20.761,0,0,0,.212-2.331,6.756,6.756,0,0,0-1.017-3.688,7.979,7.979,0,0,0,2.077-5.319,6.4,6.4,0,0,0-3.01-5.4,7.07,7.07,0,0,0-1.123-.593,4.2,4.2,0,0,0-1.971-3.285c-1.823-1.208-4.493-1.42-7.354-.551a12.049,12.049,0,0,0-3.179,1.462,9.159,9.159,0,0,0-2.628,2.416,5.468,5.468,0,0,0-1.038,3.179,4.51,4.51,0,0,0,.53,2.14,7.544,7.544,0,0,0-.933,3.6c0,.148.042.3.042.445a3.341,3.341,0,0,0-.275.276c-.127.169-.233.339-.339.508-.127-.085-.233-.169-.361-.254a7.678,7.678,0,0,0-1.081-2.12,5.543,5.543,0,0,0-4.874-2.395,5.271,5.271,0,0,0-3.349,1.166,6.164,6.164,0,0,0-1.039,1.06,4.513,4.513,0,0,0-.657-1,3.5,3.5,0,0,0-2.67-1.144h-.042a9.634,9.634,0,0,0-3.518.827,18.354,18.354,0,0,0-3.687,2.035,9.76,9.76,0,0,0-2.332,2.183c-.17-.106-.339-.233-.508-.339a8.437,8.437,0,0,0-1.038-2.1,5.868,5.868,0,0,0-4.874-2.5,5.134,5.134,0,0,0-3.349,1.144,4.85,4.85,0,0,0-1.017,1.06,4.6,4.6,0,0,0-.7-1.06,3.458,3.458,0,0,0-2.692-1.144H422.7a9.771,9.771,0,0,0-3.5.763,18.871,18.871,0,0,0-3.709,2.014,9.966,9.966,0,0,0-1.78,1.526,5.346,5.346,0,0,0-1.357-.551v-.17a3.477,3.477,0,0,0-.932-2.585,3.421,3.421,0,0,0-2.607-.975h-.042a8.886,8.886,0,0,0-4.429,1.293c-.339.212-.614.36-.869.508-.212-.169-.488-.339-.805-.551a8.044,8.044,0,0,0-4.642-1.568.078.078,0,0,0-.063-.021,9.458,9.458,0,0,0-5.468,2.077,20.746,20.746,0,0,0-4.832,5.171c-.3.424-.508.89-.784,1.335a8.536,8.536,0,0,0-3.645-4.09,6.5,6.5,0,0,0-6.485-4.705h-.063c-.3,0-.615.043-.911.064a5.537,5.537,0,0,0-4.09-5.638v-.127a3.5,3.5,0,0,0-1.547-3.073,6.762,6.762,0,0,0-3.687-.742,17.148,17.148,0,0,0-7.947,1.78c-2.734,1.378-4.112,3.115-4.112,5.129a3.173,3.173,0,0,0,.72,2.119,6.529,6.529,0,0,0-1.081,3.179,6.166,6.166,0,0,0-1.759-1.611,11.927,11.927,0,0,0-6.167-1.377h-.127a13.712,13.712,0,0,0-8.541,2.628,9,9,0,0,0-3.666,7.269,9.331,9.331,0,0,0,.233,2.013,10.9,10.9,0,0,0-.636,3.751,10.057,10.057,0,0,0,.127,1.589,5.225,5.225,0,0,0-1.123,1.208,6.97,6.97,0,0,0-1.123,3.963,5.163,5.163,0,0,0,.36,1.95,9.362,9.362,0,0,0-.763,3.815,7.925,7.925,0,0,0,4.26,6.993,15.789,15.789,0,0,0,7.947,1.887,16.536,16.536,0,0,0,10.512-2.946,12.269,12.269,0,0,0,.975-.805,6.441,6.441,0,0,0,1.908,2.246,8.524,8.524,0,0,0,4.917,1.526,14.387,14.387,0,0,0,5.065-.7,10.084,10.084,0,0,0,2.882-1.526.917.917,0,0,1,.127.148,7.431,7.431,0,0,0,5.7,2.734,13.249,13.249,0,0,0,5.3-1.06,18.512,18.512,0,0,0,4.578-2.713c.127.212.254.424.4.636a9.029,9.029,0,0,0,7.46,4.111,11.018,11.018,0,0,0,5.235-1.081,9.136,9.136,0,0,0,1-.551,3.069,3.069,0,0,0,.467.445,6.652,6.652,0,0,0,4.323,1.611h.276a12.992,12.992,0,0,0,4.281-.806,18.129,18.129,0,0,0,4.175-2.246,8.255,8.255,0,0,0,.678-.53,5.437,5.437,0,0,0,1.95,2.289,8.815,8.815,0,0,0,4.938,1.123,16.232,16.232,0,0,0,5.595-.784,7.85,7.85,0,0,0,4.662-3.6c.4-.763.742-1.674,1.145-6,.127-1.25.233-2.395.36-3.476a7.489,7.489,0,0,0,5.235-1.568,24.481,24.481,0,0,0-.36,3.348,5.858,5.858,0,0,0,.127,1.145,29.056,29.056,0,0,0-.53,4.6,5.8,5.8,0,0,0,2.67,5.256,8.549,8.549,0,0,0,5.044.954,16.5,16.5,0,0,0,5.553-1.038,8.1,8.1,0,0,0,4.471-3.582c.509-.932.763-1.971,1.144-5.976q.191-1.94.382-3.56c.275.021.551.021.826.021a8.03,8.03,0,0,0,3.56-1.038,9.6,9.6,0,0,0-.042,1.081,6.267,6.267,0,0,0,.106.933c-.169.954-.275,1.8-.36,2.522a18.681,18.681,0,0,0-.148,2.289,7.076,7.076,0,0,0,2.607,5.722,8.1,8.1,0,0,0,5.849,1.484,13.657,13.657,0,0,0,5-1.463,19.774,19.774,0,0,0,4.323-2.946,12.345,12.345,0,0,0,2.374-2.84,7.6,7.6,0,0,0,1.145-3.921,5.949,5.949,0,0,0-1.1-3.539A5.18,5.18,0,0,0,478.884,579.94Z" transform="translate(-330.85 -548.701)" fill="#1d1d1b"/><g transform="translate(2.219 1.944)"><path d="M470.993,562.533a4.411,4.411,0,0,1-2.78-.738,2.445,2.445,0,0,1-1.055-2.06,3.636,3.636,0,0,1,.7-2.082,7.281,7.281,0,0,1,2.1-1.89,10.514,10.514,0,0,1,2.68-1.229,9.664,9.664,0,0,1,2.794-.443,5.16,5.16,0,0,1,2.923.761,2.24,2.24,0,0,1,1.141,1.909c0,1.4-.859,2.694-2.552,3.88a10.581,10.581,0,0,1-5.945,1.894Zm-4.818,19.33c.456-2.641.953-5.279,1.44-7.911.14-.758.228-1.289.271-1.588a5.1,5.1,0,0,0,.058-.7c0-.543-.243-.833-.713-.867a4.324,4.324,0,0,1-.727-.115,1.349,1.349,0,0,1-.784-.495,1.488,1.488,0,0,1-.285-.915,2.994,2.994,0,0,1,.684-1.879,7.108,7.108,0,0,1,2.139-1.712,19.416,19.416,0,0,1,3.92-1.625,15.069,15.069,0,0,1,3.849-.694,2.27,2.27,0,0,1,1.754.605,2.417,2.417,0,0,1,.641,1.794,14.436,14.436,0,0,1-.171,1.758c-.114.812-.285,1.923-.541,3.337-.242,1.325-.486,2.65-.714,3.98-.257,1.509-.462,2.7-.584,3.585a16.237,16.237,0,0,0-.185,1.761,1.712,1.712,0,0,0,.07.576.2.2,0,0,0,.214.14,4.357,4.357,0,0,0,.585-.1,4.109,4.109,0,0,1,.47-.1.815.815,0,0,1,.784.336,1.74,1.74,0,0,1,.285,1.048,3.492,3.492,0,0,1-.556,1.783,7.946,7.946,0,0,1-1.568,1.856,15.187,15.187,0,0,1-3.379,2.311,9.692,9.692,0,0,1-3.493,1.049,4.1,4.1,0,0,1-2.922-.609,2.881,2.881,0,0,1-1-2.418,16.068,16.068,0,0,1,.114-1.82C465.912,583.554,466.019,582.769,466.175,581.863Zm-12.4-5.024c-.227,1.8-.477,3.983-.727,6.556a20.544,20.544,0,0,1-.656,4.371,4.23,4.23,0,0,1-2.31,1.691,12.88,12.88,0,0,1-4.191.76,5.521,5.521,0,0,1-2.709-.351,1.816,1.816,0,0,1-.656-1.672,46.363,46.363,0,0,1,1.055-7.055,46.277,46.277,0,0,0,1.054-8.568,1.276,1.276,0,0,0-.185-.812.834.834,0,0,0-.67-.207,2.134,2.134,0,0,0-.371.052,2.3,2.3,0,0,1-.428.055,1.32,1.32,0,0,1-1.041-.425,1.638,1.638,0,0,1-.385-1.141,3.152,3.152,0,0,1,.6-1.828,7.678,7.678,0,0,1,1.925-1.787,16.986,16.986,0,0,1,3.307-1.838,7.882,7.882,0,0,1,2.809-.673,1.6,1.6,0,0,1,1.255.5,5.737,5.737,0,0,1,.912,1.967c.107.345.213.786.342,1.344.156.672.314,1.009.5,1.008.256,0,.515-.373.756-1.1.115-.35.2-.616.284-.812a5.757,5.757,0,0,1,1.554-2.267,3.445,3.445,0,0,1,2.167-.739,3.849,3.849,0,0,1,3.293,1.632,8.348,8.348,0,0,1,.029,8.757,3.787,3.787,0,0,1-3.023,1.808,3,3,0,0,1-1.767-.454,3.032,3.032,0,0,1-1.155-1.443,4.756,4.756,0,0,1-.185-.8c-.105-.545-.271-.811-.5-.805-.185,0-.33.3-.414.883a.362.362,0,0,0,0,.045C454.086,574.612,453.929,575.724,453.772,576.839Zm-23.722.292q-.363,2.724-.727,6.616a19.965,19.965,0,0,1-.671,4.4,3.908,3.908,0,0,1-2.309,1.621,12.5,12.5,0,0,1-4.191.565,5.821,5.821,0,0,1-2.709-.446,1.883,1.883,0,0,1-.641-1.691,45.267,45.267,0,0,1,1.041-7.036A46.012,46.012,0,0,0,420.9,572.6a1.339,1.339,0,0,0-.171-.816.843.843,0,0,0-.671-.21,2.094,2.094,0,0,0-.384.045,2.241,2.241,0,0,1-.428.047,1.338,1.338,0,0,1-1.026-.439,1.649,1.649,0,0,1-.385-1.149,3.081,3.081,0,0,1,.584-1.816,7.612,7.612,0,0,1,1.925-1.768,16.517,16.517,0,0,1,3.307-1.8,7.806,7.806,0,0,1,2.809-.635,1.6,1.6,0,0,1,1.254.513,5.564,5.564,0,0,1,.912,2c.1.349.22.8.343,1.363q.222,1.027.5,1.026c.257,0,.514-.366.756-1.1.115-.351.215-.62.3-.816a5.742,5.742,0,0,1,1.554-2.271,3.315,3.315,0,0,1,2.153-.716,3.908,3.908,0,0,1,3.293,1.72,7.6,7.6,0,0,1,1.254,4.593,7.445,7.445,0,0,1-1.226,4.378,3.609,3.609,0,0,1-3.022,1.757,3.043,3.043,0,0,1-1.768-.525,3.154,3.154,0,0,1-1.155-1.506,5.231,5.231,0,0,1-.185-.816c-.105-.558-.271-.833-.485-.833s-.331.295-.414.882a.29.29,0,0,0,0,.048Q430.285,575.449,430.05,577.131Zm-25.6-7.539c-.428,0-.912.318-1.44.964a15.42,15.42,0,0,0-1.768,2.942,20.862,20.862,0,0,0-1.425,3.784,13.256,13.256,0,0,0-.514,3.3,2.484,2.484,0,0,0,.242,1.152.724.724,0,0,0,.6.466,1.857,1.857,0,0,0,1.327-.8,12.232,12.232,0,0,0,1.54-2.426,21.755,21.755,0,0,0,1.682-4.246,14.5,14.5,0,0,0,.6-3.725,1.865,1.865,0,0,0-.242-1.015A.712.712,0,0,0,404.447,569.592Zm9.665-3.219c-.177,1.624-.344,3.249-.514,4.869-.215,2.052-.428,3.876-.6,5.453s-.264,2.539-.285,2.876c-.049.756-.085,1.513-.128,2.274v.1c0,.5.415.8,1.254.919.087.012.157.025.186.029a.764.764,0,0,1,.541.4,1.683,1.683,0,0,1,.2.875,3.781,3.781,0,0,1-.684,2.082,7.839,7.839,0,0,1-2.01,2,12.933,12.933,0,0,1-3.165,1.7,8.127,8.127,0,0,1-2.994.568,2.568,2.568,0,0,1-1.682-.568,2.652,2.652,0,0,1-.784-1.628c-.042-.27-.086-.632-.128-1.089-.086-.927-.257-1.392-.514-1.4q-.3-.009-.884.636c-.208.23-.374.4-.5.521A11.811,11.811,0,0,1,398.2,589.4a6.955,6.955,0,0,1-3.279.686,4.956,4.956,0,0,1-4.149-2.285,10.631,10.631,0,0,1-1.482-6.033,19.392,19.392,0,0,1,.955-5.969,22.1,22.1,0,0,1,2.766-5.656,18.631,18.631,0,0,1,4.377-4.685,7.487,7.487,0,0,1,4.362-1.7,6.291,6.291,0,0,1,3.564,1.226q1.754,1.212,1.8,1.211a20.929,20.929,0,0,0,1.939-1.063,6.929,6.929,0,0,1,3.492-1.052,1.693,1.693,0,0,1,1.24.387,1.728,1.728,0,0,1,.37,1.237c0,.181-.008.317-.014.406S414.12,566.3,414.112,566.372ZM360.081,584.6c.25-1.677.528-3.356.8-5.033a1.022,1.022,0,0,1,.014-.155c.348-2.181.684-4.438.984-6.76s.581-4.7.856-7.159q.187-1.683.385-3.378c.008-.071.035-.154.043-.247s0-.218,0-.377a.926.926,0,0,0-.2-.657,1.479,1.479,0,0,0-.784-.321,4.314,4.314,0,0,1-1.755-.55,1.25,1.25,0,0,1-.342-.967c0-1.241,1.013-2.37,3.037-3.4a15.345,15.345,0,0,1,7.085-1.562,5.4,5.4,0,0,1,2.623.425,1.6,1.6,0,0,1,.656,1.451c0,.169-.007.3-.014.413s-.013.207-.028.317c-.2,1.347-.38,2.7-.571,4.039-.051.359-.132.9-.228,1.609-.331,2.438-.57,4.323-.7,5.693a22.89,22.89,0,0,1,4.634-3.388,8.362,8.362,0,0,1,3.906-1.038,4.721,4.721,0,0,1,3.621,1.473,5.656,5.656,0,0,1,1.325,3.954,33.49,33.49,0,0,1-.784,6.792,36.965,36.965,0,0,0-.784,4.475,1.231,1.231,0,0,0,1.2,1.465l.185.052a1.227,1.227,0,0,1,.984,1.3,3.162,3.162,0,0,1-.456,1.539,5.352,5.352,0,0,1-1.269,1.481,14.122,14.122,0,0,1-3.749,2.263,8.81,8.81,0,0,1-3.579.753,3.321,3.321,0,0,1-2.594-1.186,4.732,4.732,0,0,1-.913-3.06,61.424,61.424,0,0,1,1.041-7.882c.055-.326.113-.651.171-.975.114-.745.235-1.489.371-2.233.05-.278.107-.52.142-.739a3.055,3.055,0,0,0,.043-.491,1.086,1.086,0,0,0-.256-.727.832.832,0,0,0-.627-.325c-.983-.018-1.81.728-2.466,2.233a26.165,26.165,0,0,0-1.54,6.941c-.044.376-.124.926-.2,1.658-.223,2.173-.544,3.535-.983,4.083a5.188,5.188,0,0,1-2.409,1.573,9.767,9.767,0,0,1-3.55.488,4.535,4.535,0,0,1-2.566-.709,2.156,2.156,0,0,1-.884-1.827,5.147,5.147,0,0,1,.029-.521C360,585.191,360.033,584.923,360.081,584.6Zm-4.091-4.265a7.075,7.075,0,0,1-3.022,5.974,12.634,12.634,0,0,1-7.954,2.13,12.177,12.177,0,0,1-5.9-1.322,3.81,3.81,0,0,1-2.181-3.385,5.025,5.025,0,0,1,.8-2.887,2.266,2.266,0,0,1,1.9-1.174c.656.007,1.142.458,1.44,1.333.03.088.058.171.085.244a3.15,3.15,0,0,0,.912,1.337,1.99,1.99,0,0,0,1.269.495,1.538,1.538,0,0,0,1.127-.4,1.455,1.455,0,0,0,.441-1.1,4.778,4.778,0,0,0-1.525-2.566c-.336-.371-.614-.664-.8-.874a14.509,14.509,0,0,1-2.338-3.537,8.191,8.191,0,0,1-.784-3.4,6.983,6.983,0,0,1,2.923-5.734,11.681,11.681,0,0,1,7.456-2.237,10.32,10.32,0,0,1,5.189,1.116,3.408,3.408,0,0,1,1.825,3.067,4.43,4.43,0,0,1-.685,2.6,2,2,0,0,1-1.725.964,1.523,1.523,0,0,1-.755-.2,1.641,1.641,0,0,1-.57-.557c-.068-.1-.187-.269-.327-.491-.714-1.118-1.34-1.673-1.854-1.68a.924.924,0,0,0-.741.359,1.276,1.276,0,0,0-.313.86c0,.594.565,1.538,1.725,2.817.521.574.928,1.04,1.226,1.4a17.962,17.962,0,0,1,2.495,3.71A7.528,7.528,0,0,1,355.99,580.331Z" transform="translate(-336.93 -554.027)" fill="#fff"/></g></g></g><g transform="translate(27.395 137.462)"><path d="M407.682,712v-5.2a3.56,3.56,0,0,0-.139-1.281,1.147,1.147,0,0,0-.752-.44q-.89-.257-.89-.891a.76.76,0,0,1,.376-.683,2.048,2.048,0,0,1,1.088-.238q.237,0,1.178.03h.594q1.643-.01,1.924-.025t2.014-.173a10.313,10.313,0,0,1,1.049-.059,6.134,6.134,0,0,1,2.889.663,3.83,3.83,0,0,1,2.207,3.641,3.914,3.914,0,0,1-1.544,3.236,5.542,5.542,0,0,1-3.522,1.138q-.525,0-1.286-.069-.406-.03-.5-.03-.287,0-.287.327V712l.069,1.623a1.407,1.407,0,0,0,.173.707,1.675,1.675,0,0,0,.628.48q.643.347.643.752,0,.624-.95.96a8.411,8.411,0,0,1-2.691.336q-3.661,0-3.661-1.256a.615.615,0,0,1,.158-.455,3.417,3.417,0,0,1,.742-.455.728.728,0,0,0,.415-.525Q407.662,713.828,407.682,712Zm4.462-6.461V708.9q0,.386.168.465a1.875,1.875,0,0,0,1.821-.227,2.152,2.152,0,0,0,.643-1.761,2.194,2.194,0,0,0-.752-1.861,1.826,1.826,0,0,0-1.148-.366Q412.144,705.15,412.144,705.536Z" transform="translate(-405.901 -702.766)" fill="#1d1d1b"/><path d="M450.477,710.892q-.376,0-.48.227a3.238,3.238,0,0,0-.1,1.059,9.4,9.4,0,0,0,.158,1.959.71.71,0,0,0,.149.307,1.643,1.643,0,0,0,.376.267.972.972,0,0,1,.594.861q0,.653-.826.925a9.98,9.98,0,0,1-2.795.272q-3.661,0-3.661-1.385A.614.614,0,0,1,444,715a2.247,2.247,0,0,1,.495-.4,1.465,1.465,0,0,0,.588-.678,4.963,4.963,0,0,0,.213-1.351q.049-.7.05-5.036a8.216,8.216,0,0,0-.139-1.87,1.107,1.107,0,0,0-.594-.722,1.849,1.849,0,0,1-.584-.381.666.666,0,0,1-.149-.451.859.859,0,0,1,.282-.638,1.722,1.722,0,0,1,.787-.4,4.917,4.917,0,0,1,1.167-.109q.327,0,1.633.1c.165.013.426.02.781.02q.891,0,2.375-.119.94-.069,1.316-.069a5.755,5.755,0,0,1,3.5,1.019,3,3,0,0,1,1.247,2.553,3.23,3.23,0,0,1-.435,1.657,2.79,2.79,0,0,1-1.2,1.123q-.317.158-.317.376,0,.287.485.465a2.894,2.894,0,0,1,1.524,1.138,5.918,5.918,0,0,1,.693,2.335,1.788,1.788,0,0,0,.257.846,1.762,1.762,0,0,0,.782.371.6.6,0,0,1,.317.252.761.761,0,0,1,.128.43,1.02,1.02,0,0,1-.238.618,1.637,1.637,0,0,1-.613.49,5.5,5.5,0,0,1-2.276.386,3.369,3.369,0,0,1-2.761-1.019,4.015,4.015,0,0,1-.638-1.148,20.039,20.039,0,0,1-.619-2.157,3.089,3.089,0,0,0-.579-1.326A1.378,1.378,0,0,0,450.477,710.892Zm-.574-5.047-.109,2.305v.089a.76.76,0,0,0,.1.475.555.555,0,0,0,.42.119,1.6,1.6,0,0,0,1.267-.45,2.152,2.152,0,0,0,.4-1.44q0-1.91-1.356-1.91a.7.7,0,0,0-.544.178A1.035,1.035,0,0,0,449.9,705.845Z" transform="translate(-430.016 -702.68)" fill="#1d1d1b"/><path d="M491.341,702.789a10.915,10.915,0,0,1,2.127.2q1.346.267,1.346,1.138a.612.612,0,0,1-.134.43,2.876,2.876,0,0,1-.678.42,1.29,1.29,0,0,0-.6,1,20.069,20.069,0,0,0-.143,3.008,32.785,32.785,0,0,0,.188,4.68.963.963,0,0,0,.213.44,1.826,1.826,0,0,0,.5.331.936.936,0,0,1,.653.861q0,.792-1.207,1.088a13.8,13.8,0,0,1-3.2.316q-3.225,0-3.226-1.227,0-.445.633-.831a1.156,1.156,0,0,0,.574-.811,37.285,37.285,0,0,0,.188-4.789,12.306,12.306,0,0,0-.257-3.245,1.468,1.468,0,0,0-.663-.732,2.393,2.393,0,0,1-.544-.445.72.72,0,0,1-.138-.455.766.766,0,0,1,.411-.678,4.689,4.689,0,0,1,1.449-.451A12.751,12.751,0,0,1,491.341,702.789Z" transform="translate(-457.384 -702.611)" fill="#1d1d1b"/><path d="M521.865,704.525l-4.374,7.539a5.75,5.75,0,0,0-.742,1.544q0,.455,1.346.455a5.072,5.072,0,0,0,1.059-.114,2.464,2.464,0,0,0,.782-.272,3.392,3.392,0,0,0,1-1.425,1.742,1.742,0,0,1,.386-.584.759.759,0,0,1,.5-.158,1.315,1.315,0,0,1,1.039.391,1.705,1.705,0,0,1,.346,1.162,4.663,4.663,0,0,1-.831,2.761q-.584.821-1.108.821a2.61,2.61,0,0,1-.4-.04,7.266,7.266,0,0,0-1.365-.138h-8.6a6.506,6.506,0,0,1-.7-.02.449.449,0,0,1-.232-.139.768.768,0,0,1-.2-.554,1.667,1.667,0,0,1,.277-.791l5.1-8.638a1.367,1.367,0,0,0,.227-.534q0-.564-1.128-.564a2.406,2.406,0,0,0-1.4.317,4.083,4.083,0,0,0-.975,1.435q-.416.861-.96.861a1.192,1.192,0,0,1-.93-.485,1.692,1.692,0,0,1-.406-1.118,4.977,4.977,0,0,1,.841-2.424q.594-.99.96-.99a.86.86,0,0,1,.257.06,10.071,10.071,0,0,0,2.622.208q.91,0,4.166-.2,2.77-.158,2.84-.158a.963.963,0,0,1,.688.247.858.858,0,0,1,.262.653A2.212,2.212,0,0,1,521.865,704.525Z" transform="translate(-471.739 -702.576)" fill="#1d1d1b"/><path d="M554.623,710.892q-.376,0-.48.227a3.253,3.253,0,0,0-.1,1.059,9.384,9.384,0,0,0,.158,1.959.7.7,0,0,0,.149.307,1.635,1.635,0,0,0,.376.267.972.972,0,0,1,.594.861q0,.653-.826.925a9.982,9.982,0,0,1-2.8.272q-3.661,0-3.661-1.385a.612.612,0,0,1,.109-.381,2.238,2.238,0,0,1,.494-.4,1.463,1.463,0,0,0,.589-.678,4.992,4.992,0,0,0,.213-1.351q.049-.7.049-5.036a8.218,8.218,0,0,0-.138-1.87,1.109,1.109,0,0,0-.594-.722,1.854,1.854,0,0,1-.584-.381.668.668,0,0,1-.149-.451.86.86,0,0,1,.282-.638,1.72,1.72,0,0,1,.787-.4,4.914,4.914,0,0,1,1.167-.109q.327,0,1.633.1.247.02.782.02.89,0,2.374-.119.94-.069,1.316-.069a5.756,5.756,0,0,1,3.5,1.019,3,3,0,0,1,1.247,2.553,3.232,3.232,0,0,1-.435,1.657,2.788,2.788,0,0,1-1.2,1.123q-.317.158-.317.376,0,.287.485.465a2.9,2.9,0,0,1,1.524,1.138,5.919,5.919,0,0,1,.693,2.335,1.79,1.79,0,0,0,.257.846,1.762,1.762,0,0,0,.781.371.593.593,0,0,1,.317.252.761.761,0,0,1,.129.43,1.021,1.021,0,0,1-.237.618,1.638,1.638,0,0,1-.614.49,5.5,5.5,0,0,1-2.276.386,3.367,3.367,0,0,1-2.76-1.019,4.021,4.021,0,0,1-.639-1.148,19.945,19.945,0,0,1-.618-2.157,3.089,3.089,0,0,0-.579-1.326A1.379,1.379,0,0,0,554.623,710.892Zm-.574-5.047-.109,2.305v.089a.761.761,0,0,0,.1.475.557.557,0,0,0,.421.119,1.6,1.6,0,0,0,1.267-.45,2.153,2.153,0,0,0,.4-1.44q0-1.91-1.356-1.91a.7.7,0,0,0-.544.178A1.036,1.036,0,0,0,554.049,705.845Z" transform="translate(-496.146 -702.68)" fill="#1d1d1b"/><path d="M593.3,702.687h5.086q1.543,0,2.251-.064a7.175,7.175,0,0,0,1.38-.262,1.275,1.275,0,0,1,.327-.059,1.121,1.121,0,0,1,.91.554,3.608,3.608,0,0,1,.653,2.177,1.683,1.683,0,0,1-.272,1.014.876.876,0,0,1-.747.371.849.849,0,0,1-.509-.134,2.5,2.5,0,0,1-.49-.6,2.108,2.108,0,0,0-1.1-.886,7.649,7.649,0,0,0-2.192-.223q-1.138,0-1.385.406a1.322,1.322,0,0,0-.153.584q-.025.366-.024,1.87,0,.594.2.737a2.215,2.215,0,0,0,1.039.144.874.874,0,0,0,.6-.173.978.978,0,0,0,.237-.619,4.332,4.332,0,0,1,.144-.786.817.817,0,0,1,.272-.371.721.721,0,0,1,.485-.178.843.843,0,0,1,.692.386,2.75,2.75,0,0,1,.352,1.014,7.87,7.87,0,0,1,.143,1.519,5.88,5.88,0,0,1-.485,2.563.862.862,0,0,1-.811.544.544.544,0,0,1-.465-.173,1.686,1.686,0,0,1-.2-.717,1.17,1.17,0,0,0-1.307-1.118.642.642,0,0,0-.608.282,2.3,2.3,0,0,0-.163,1.044q0,.465.064,1.2a6.181,6.181,0,0,0,.134.975.615.615,0,0,0,.49.411,5.74,5.74,0,0,0,1.37.114,5.113,5.113,0,0,0,2.236-.381,2.824,2.824,0,0,0,1.227-1.38,2.6,2.6,0,0,1,.5-.772.841.841,0,0,1,.579-.2.829.829,0,0,1,.688.361,1.462,1.462,0,0,1,.272.905,4.75,4.75,0,0,1-.307,1.484,7.322,7.322,0,0,1-.752,1.583,2.039,2.039,0,0,1-.376.45.6.6,0,0,1-.376.113,3.59,3.59,0,0,1-.544-.059,11.28,11.28,0,0,0-1.692-.149h-8.391a1.218,1.218,0,0,1-.782-.223.76.76,0,0,1-.277-.628.6.6,0,0,1,.119-.416,1.961,1.961,0,0,1,.544-.326,1.077,1.077,0,0,0,.44-.317,1.412,1.412,0,0,0,.223-.554,19.7,19.7,0,0,0,.326-4.027,14.486,14.486,0,0,0-.475-4.819.7.7,0,0,0-.218-.277,2.089,2.089,0,0,0-.495-.188.718.718,0,0,1-.564-.752.907.907,0,0,1,.188-.564.879.879,0,0,1,.495-.326A8.033,8.033,0,0,1,593.3,702.687Z" transform="translate(-523.514 -702.301)" fill="#1d1d1b"/><path d="M635.034,703.472l4.927,4.314a2.031,2.031,0,0,0,1,.6q.514,0,.515-1.1a6.415,6.415,0,0,0-.149-1.7,1.13,1.13,0,0,0-.623-.682,1.47,1.47,0,0,1-.544-.4.9.9,0,0,1-.158-.549q0-.831,1.138-1.068a8.987,8.987,0,0,1,1.623-.1,8.024,8.024,0,0,1,2.068.178q.91.277.91,1.049a1.046,1.046,0,0,1-.742.97,1.581,1.581,0,0,0-.406.228.8.8,0,0,0-.188.3,7.673,7.673,0,0,0-.277,2.474v3.226q0,.742.01,2.028a10.057,10.057,0,0,1-.208,2.513q-.267.96-.97.96a1.04,1.04,0,0,1-.53-.129,5.342,5.342,0,0,1-.737-.594l-5.868-5.254a1.723,1.723,0,0,0-1.019-.554q-.6,0-.6,1.672a7.561,7.561,0,0,0,.153,1.88,1.184,1.184,0,0,0,.628.742q.663.326.663.851,0,1.375-2.958,1.375a4.934,4.934,0,0,1-2.073-.351,1.09,1.09,0,0,1-.737-.994.783.783,0,0,1,.138-.5,2.64,2.64,0,0,1,.623-.455,1.264,1.264,0,0,0,.564-.979,30.055,30.055,0,0,0,.168-3.671,16.64,16.64,0,0,0-.3-3.72,1.678,1.678,0,0,0-.277-.633,1.623,1.623,0,0,0-.554-.4,1.9,1.9,0,0,1-.618-.425.76.76,0,0,1-.173-.5q0-.95,1.633-1.2a15.9,15.9,0,0,1,1.939-.079,3.886,3.886,0,0,1,1.153.123A2.763,2.763,0,0,1,635.034,703.472Z" transform="translate(-547.853 -702.611)" fill="#1d1d1b"/></g></g></g></svg>